<svg width="160" height="53" viewBox="0 0 160 53" fill="none" xmlns="http://www.w3.org/2000/svg">
<path fill-rule="evenodd" clip-rule="evenodd" d="M135.917 15.181L144.429 35.277C143.84 36.9463 143.046 38.1577 142.048 38.9102C141.05 39.6631 139.699 40.0232 137.997 39.9905V45.8823C141.139 46.0458 143.758 45.334 145.869 43.7465C147.972 42.159 149.666 39.6061 150.943 36.1037L159.895 11.5136H153.119L147.686 28.0107L141.287 11.5136H135.917H134.364H130.713V11.2684C130.713 8.22419 132.448 6.83328 135.917 7.09488V1.00687C132.088 0.777969 129.207 1.56316 127.276 3.36359C125.345 5.16403 124.379 7.7987 124.379 11.2684V11.5136H120.844V17.6016H124.379V36.0626H130.713V17.6016H135.917V15.1807L135.917 15.181ZM119.181 7.41428C119.95 6.64506 120.335 5.73667 120.335 4.68911C120.335 3.64193 119.951 2.72517 119.181 1.9396C118.412 1.15403 117.487 0.761239 116.407 0.761239C115.36 0.761239 114.451 1.15403 113.682 1.9396C112.913 2.72517 112.529 3.64155 112.529 4.68911C112.529 5.73667 112.913 6.64506 113.682 7.41428C114.451 8.1835 115.36 8.56792 116.407 8.56792C117.487 8.56792 118.412 8.1835 119.181 7.41428ZM113.265 11.514V36.063H119.599V11.514H113.265ZM104.2 0.22168V36.063H110.534V0.22168H104.2Z" fill="#B6FD85"/>
<path fill-rule="evenodd" clip-rule="evenodd" d="M20.3622 2.39465C14.6677 2.39465 9.65693 4.67913 5.78191 8.82488C1.90576 12.9721 0 18.1331 0 23.788H6.64658C6.64658 19.8138 7.91734 16.2741 10.6379 13.3634C13.2586 10.5599 16.5149 9.04123 20.3622 9.04123C20.7553 9.04123 21.1485 9.0553 21.5405 9.08458V2.42545C21.1493 2.40492 20.7561 2.39465 20.3622 2.39465ZM20.3622 10.8261C17.0891 10.8261 14.2822 12.0782 11.9418 14.5821C9.60141 17.0859 8.43142 20.1549 8.43142 23.788H14.7651C14.7651 21.7587 15.4035 20.0974 16.6799 18.8046C17.9564 17.5118 19.5766 16.8654 21.5405 16.8654V10.8759C21.1584 10.8428 20.7656 10.8265 20.3622 10.8265V10.8261Z" fill="#B6FD85"/>
<path d="M10.7324 51.221V45.4657H8.90039V52.8697H14.2998V51.2206H10.7324V51.221ZM23.5103 47.1148V45.4657H17.6797V52.8697H23.5103V51.2206H19.5227V49.9164H23.1441V48.2673H19.5227V47.114H23.5103V47.1148ZM32.3007 52.8701H34.3699L31.4383 45.4661H29.369L26.4378 52.8701H28.507L28.9382 51.7921H31.8699L32.3011 52.8701H32.3007ZM29.5093 50.3483L30.404 48.0745L31.2984 50.3483H29.5093ZM37.5776 52.8701H40.2827C42.8265 52.8701 44.6151 51.329 44.6151 49.1628C44.6151 46.9965 42.8261 45.4661 40.2827 45.4661H37.5776V52.8701ZM39.4207 51.1997V47.1365H40.5629C41.8238 47.1365 42.7291 47.9772 42.7291 49.1628C42.7291 50.3483 41.8238 51.1997 40.5629 51.1997H39.4207ZM56.1995 52.9997C58.0315 52.9997 59.1634 52.0727 59.1634 50.5856C59.1634 49.1955 58.0965 48.7209 56.4367 48.3654C55.3375 48.1281 54.9819 47.9776 54.9819 47.5247C54.9819 47.1581 55.3162 46.8779 55.9086 46.8779C56.5983 46.8779 57.3421 47.1475 58.0212 47.6646L58.9589 46.3497C58.1721 45.6923 57.2021 45.3368 55.963 45.3368C54.2709 45.3368 53.1287 46.2851 53.1287 47.708C53.1287 49.1955 54.3032 49.6263 55.8877 49.9818C56.9656 50.2404 57.3101 50.3377 57.3101 50.7795C57.3101 51.1784 56.9546 51.4586 56.2649 51.4586C55.3595 51.4586 54.5511 51.1138 53.829 50.521L52.7944 51.7606C53.6891 52.5689 54.8854 53.0001 56.2002 53.0001L56.1995 52.9997ZM66.3047 52.9997C68.4709 52.9997 70.2923 51.243 70.2923 49.1631C70.2923 47.0832 68.4709 45.3372 66.3047 45.3372C64.1491 45.3372 62.3278 47.0832 62.3278 49.1631C62.3278 51.243 64.1491 52.9997 66.3047 52.9997ZM66.3047 51.3294C65.1731 51.3294 64.2138 50.3377 64.2138 49.1631C64.2138 47.9992 65.1731 47.0076 66.3047 47.0076C67.4363 47.0076 68.3956 47.9992 68.3956 49.1631C68.3956 50.3377 67.4363 51.3294 66.3047 51.3294ZM75.5909 51.2214V45.4661H73.7589V52.8701H79.1583V51.221H75.5909V51.2214ZM85.933 52.9997C87.9593 52.9997 89.3711 51.6096 89.3711 49.6263V45.4661H87.5391V49.54C87.5391 50.5856 86.8711 51.329 85.9334 51.329C85.0068 51.329 84.3383 50.5852 84.3383 49.54V45.4661H82.4953V49.6263C82.4953 51.6092 83.9177 52.9997 85.9334 52.9997H85.933ZM94.9713 52.8705H96.8143V47.1152H99.0562V45.4661H92.7191V47.1152H94.9717V52.8705H94.9713ZM102.479 52.8705H104.322V45.4665H102.479V52.8705ZM111.83 52.9997C113.996 52.9997 115.818 51.243 115.818 49.1631C115.818 47.0832 113.996 45.3372 111.83 45.3372C109.674 45.3372 107.853 47.0832 107.853 49.1631C107.853 51.243 109.674 52.9997 111.83 52.9997ZM111.83 51.3294C110.698 51.3294 109.739 50.3377 109.739 49.1631C109.739 47.9992 110.698 47.0076 111.83 47.0076C112.962 47.0076 113.921 47.9992 113.921 49.1631C113.921 50.3377 112.962 51.3294 111.83 51.3294ZM119.338 52.8705H121.181V48.4947L124.403 52.8705H126.246V45.4665H124.403V49.8422L121.181 45.4665H119.338V52.8705ZM132.957 52.9997C134.789 52.9997 135.921 52.0727 135.921 50.5856C135.921 49.1955 134.854 48.7209 133.194 48.3654C132.095 48.1281 131.739 47.9776 131.739 47.5247C131.739 47.1581 132.073 46.8779 132.666 46.8779C133.356 46.8779 134.099 47.1475 134.779 47.6646L135.716 46.3497C134.929 45.6923 133.959 45.3368 132.72 45.3368C131.028 45.3368 129.886 46.2851 129.886 47.708C129.886 49.1955 131.061 49.6263 132.645 49.9818C133.723 50.2404 134.067 50.3377 134.067 50.7795C134.067 51.1784 133.712 51.4586 133.022 51.4586C132.117 51.4586 131.308 51.1138 130.586 50.521L129.552 51.7606C130.446 52.5689 131.643 53.0001 132.958 53.0001L132.957 52.9997Z" fill="white"/>
<path fill-rule="evenodd" clip-rule="evenodd" d="M76.1447 11.5144V42.8446H82.4784V33.1667C84.3442 35.5562 86.9956 36.7509 90.4322 36.7509C93.738 36.7509 96.5613 35.4987 98.9013 32.9949C101.242 30.491 102.412 27.4221 102.412 23.7889C102.412 20.1557 101.242 17.0872 98.9013 14.5829C96.5609 12.0791 93.738 10.8269 90.4322 10.8269C86.9952 10.8269 84.3442 12.0216 82.4784 14.4111V11.5144H76.1447ZM23.2208 17.0427C24.4508 17.315 25.5174 17.9024 26.4205 18.8055C27.7133 20.0983 28.3597 21.7596 28.3597 23.7889C28.3597 25.8182 27.7133 27.4795 26.4205 28.7723C25.1277 30.0651 23.4991 30.7115 21.5352 30.7115C19.5712 30.7115 17.951 30.0651 16.6746 28.7723C15.7711 27.8575 15.1878 26.7582 14.9236 25.4745H8.51465C8.82682 28.381 9.96754 30.8876 11.9368 32.9949C14.2772 35.4987 17.0837 36.7509 20.3572 36.7509C23.7942 36.7509 26.4619 35.5562 28.3601 33.1667V36.0634H34.6937V11.5144H28.3601V14.4111C27.0266 12.7327 25.3136 11.6441 23.2212 11.1444V17.0427H23.2208ZM37.3755 11.5144V36.0634H43.7092V22.2668C43.7092 20.4664 44.1267 19.0918 44.9613 18.1424C45.7959 17.1933 46.9173 16.7187 48.3245 16.7187C49.6337 16.7187 50.6485 17.1279 51.3683 17.9461C52.0885 18.7644 52.4486 19.9101 52.4486 21.3827V36.063H58.7822V22.2664C58.7822 20.466 59.183 19.0914 59.9849 18.142C60.7869 17.1929 61.9082 16.7184 63.3481 16.7184C64.6573 16.7184 65.6722 17.1275 66.392 17.9458C67.1121 18.764 67.4722 19.9097 67.4722 21.3824V36.0626H73.8059V20.9405C73.8059 17.8636 72.9629 15.4088 71.2773 13.5757C69.5917 11.7429 67.3414 10.8262 64.5261 10.8262C61.2857 10.8262 58.8473 12.0045 57.2103 14.3613C55.7704 12.0045 53.5444 10.8262 50.533 10.8262C47.4564 10.8262 45.1815 11.9228 43.7084 14.1156V11.5133H37.3748L37.3755 11.5144ZM89.2538 30.7119C87.2899 30.7119 85.6697 30.0655 84.3932 28.7727C83.1168 27.4799 82.4784 25.8186 82.4784 23.7893C82.4784 21.7599 83.1168 20.0987 84.3932 18.8059C85.6697 17.5131 87.2899 16.8666 89.2538 16.8666C91.2178 16.8666 92.8463 17.5131 94.1391 18.8059C95.4319 20.0987 96.0784 21.7599 96.0784 23.7893C96.0784 25.8186 95.4319 27.4799 94.1391 28.7727C92.8463 30.0655 91.2178 30.7119 89.2538 30.7119Z" fill="white"/>
</svg>
