<svg width="36" height="36" viewBox="0 0 36 36" fill="none" xmlns="http://www.w3.org/2000/svg">
<path d="M17.9962 12.1194C18.8396 12.1194 19.5339 11.6816 19.6278 11.1144L20.4613 1.69587C20.4613 0.764719 19.3708 0 17.9987 0C16.6292 0 15.5402 0.764719 15.5402 1.6958L16.372 11.1143C16.4638 11.6815 17.1589 12.1193 17.9992 12.1193H17.9962V12.1194Z" fill="white"/>
<path d="M12.9053 15.0618C13.3286 14.3323 13.2959 13.5115 12.8504 13.1475L5.10875 7.71798C4.30451 7.25216 3.09696 7.8129 2.41198 9.00062C1.72489 10.1868 1.8466 11.5124 2.65055 11.9776L11.2217 15.9687C11.7584 16.1683 12.4878 15.7861 12.9085 15.0567L12.9053 15.0618Z" fill="white"/>
<path d="M23.0906 15.0567C23.5128 15.7861 24.2399 16.1683 24.7766 15.9688L33.3491 11.9776C34.1563 11.5124 34.2721 10.1868 33.5897 9.00059C32.9015 7.81287 31.6927 7.2522 30.89 7.71795L23.1481 13.1476C22.7052 13.5116 22.6725 14.3323 23.0936 15.0619L23.0906 15.0567Z" fill="white"/>
<path d="M17.9962 23.8837C18.8396 23.8837 19.5339 24.3195 19.6278 24.8862L20.4614 34.3042C20.4614 35.2368 19.3709 36 17.9988 36C16.6292 36 15.5403 35.2368 15.5403 34.3042L16.3721 24.8862C16.4639 24.3195 17.159 23.8837 17.9993 23.8837H17.9962Z" fill="white"/>
<path d="M23.0906 20.9424C23.5128 20.2116 24.2399 19.8321 24.7766 20.0341L33.3491 24.0208C34.1563 24.4877 34.2721 25.814 33.5897 27.0015C32.9015 28.1854 31.6927 28.7479 30.89 28.2836L23.1481 22.8582C22.7052 22.4899 22.6725 21.6698 23.0936 20.9409L23.0906 20.9424Z" fill="white"/>
<path d="M12.9053 20.9409C13.3286 21.6698 13.2959 22.4899 12.8504 22.8582L5.10875 28.2836C4.30451 28.7479 3.09696 28.1854 2.41198 27.0015C1.72489 25.814 1.8466 24.4878 2.65055 24.0208L11.2217 20.0341C11.7584 19.8321 12.4878 20.2116 12.909 20.9424L12.9053 20.9409Z" fill="white"/>
</svg>
