<svg width="107" height="72" viewBox="0 0 107 72" fill="none" xmlns="http://www.w3.org/2000/svg">
<path d="M94.0752 49.733C72.4676 71.2867 37.8757 72.6775 14.8458 52.4494C14.0595 51.7589 12.975 50.7254 11.5925 49.3488C6.28548 44.0688 2.60221 40.3878 0.542627 38.3057C-0.434737 37.3171 0.0438344 36.4319 0.908858 35.5624C4.44984 32.0094 7.9983 28.4639 11.5543 24.926C12.9218 23.5644 14.0055 22.5316 14.8054 21.8276C36.8377 2.43761 70.0163 2.7297 91.7498 22.2747C92.4822 22.9338 93.5592 23.9733 94.9807 25.3933C98.2955 28.7051 101.609 32.0177 104.921 35.331C105.869 36.2791 106.588 37.2497 105.464 38.3687C101.669 42.1583 97.8723 45.9464 94.0752 49.733ZM91.77 26.8358C70.4343 5.46856 36.04 5.37869 14.6189 26.5616C11.0884 30.0517 7.5744 33.5462 4.07686 37.0453C4.06939 37.0526 4.06346 37.0613 4.0594 37.071C4.05535 37.0806 4.05326 37.091 4.05326 37.1014C4.05326 37.1119 4.05535 37.1223 4.0594 37.1319C4.06346 37.1416 4.06939 37.1503 4.07686 37.1576C7.32725 40.4245 10.5806 43.6831 13.837 46.9335C15.2076 48.3026 16.2928 49.3353 17.0927 50.0319C38.7317 68.9186 71.4655 67.7165 91.761 47.4188C95.1702 44.0096 98.5793 40.5975 101.988 37.1823C102.014 37.1569 102.014 37.1307 101.988 37.1037C98.5913 33.6796 95.1852 30.2569 91.77 26.8358Z" fill="#515151"/>
<path d="M72.1787 37.105C72.1787 42.1843 70.1609 47.0557 66.5692 50.6474C62.9776 54.239 58.1062 56.2568 53.0268 56.2568C47.9475 56.2568 43.0761 54.239 39.4844 50.6474C35.8928 47.0557 33.875 42.1843 33.875 37.105C33.875 32.0256 35.8928 27.1542 39.4844 23.5626C43.0761 19.9709 47.9475 17.9531 53.0268 17.9531C58.1062 17.9531 62.9776 19.9709 66.5692 23.5626C70.1609 27.1542 72.1787 32.0256 72.1787 37.105ZM68.8714 37.1342C68.8714 32.9313 67.2018 28.9007 64.23 25.9288C61.2581 22.957 57.2274 21.2874 53.0246 21.2874C48.8218 21.2874 44.7911 22.957 41.8192 25.9288C38.8474 28.9007 37.1778 32.9313 37.1778 37.1342C37.1778 39.2152 37.5877 41.2758 38.3841 43.1985C39.1805 45.1211 40.3477 46.868 41.8192 48.3395C44.7911 51.3114 48.8218 52.9809 53.0246 52.9809C55.1056 52.9809 57.1663 52.5711 59.0889 51.7747C61.0115 50.9783 62.7584 49.811 64.23 48.3395C65.7015 46.868 66.8687 45.1211 67.6651 43.1985C68.4615 41.2758 68.8714 39.2152 68.8714 37.1342Z" fill="#515151"/>
<path d="M54.6943 45.0112C54.6966 45.355 54.7055 45.6875 54.591 45.9998C54.227 46.9816 53.1687 47.4333 52.243 46.9232C51.6274 46.5847 51.3271 45.9534 51.3421 45.0292C51.3451 44.8764 51.2709 44.7843 51.1196 44.7528C49.1754 44.3604 47.8513 43.2564 47.1473 41.441C46.9436 40.9182 46.8829 40.4734 46.9653 40.1064C47.2753 38.7111 49.2031 38.6707 49.7648 40.0727C50.0726 40.8433 50.3332 41.3601 51.1264 41.7353C52.4026 42.3375 55.1954 42.6341 56.0424 41.0905C56.7636 39.7761 55.6627 39.0144 54.5101 38.7269C52.8969 38.3239 51.5315 37.9457 50.4141 37.5922C45.7003 36.1003 46.6575 30.2406 51.2387 29.4318C51.3121 29.4198 51.3525 29.3764 51.36 29.3015C51.3765 29.1592 51.3795 29.0251 51.369 28.8993C51.1915 26.4862 55.0044 26.3851 54.6831 29.2453C54.6651 29.3981 54.7318 29.4895 54.883 29.5194C56.4873 29.8385 57.6279 30.72 58.3049 32.1639C58.5416 32.6717 58.6307 33.1128 58.5723 33.4873C58.4083 34.5455 56.8333 34.9904 56.1076 34.204C56.0596 34.1516 55.8971 33.8355 55.62 33.2559C55.2665 32.5099 54.6164 32.089 53.6698 31.9932C52.6542 31.8898 51.2792 31.8718 50.5939 32.6402C49.8884 33.4334 50.1805 34.404 51.2028 34.7298C52.9373 35.2802 54.4988 35.5184 56.1907 36.1745C61.0281 38.0528 59.6373 44.09 54.8201 44.8629C54.7363 44.8764 54.6943 44.9258 54.6943 45.0112Z" fill="#639B3D"/>
<path d="M88.2488 0.314316L89.9272 4.77515L94.406 6.40481L89.9452 8.08314L88.3155 12.562L86.6372 8.10115L82.1583 6.47149L86.6192 4.79316L88.2488 0.314316Z" fill="#639B3D"/>
<path d="M20.3171 63.5885L22.1506 65.6628L24.9188 65.6212L22.8445 67.4547L22.8861 70.2228L21.0526 68.1485L18.2845 68.1902L20.3588 66.3567L20.3171 63.5885Z" fill="#515151"/>
</svg>
