<svg width="91" height="80" viewBox="0 0 91 80" fill="none" xmlns="http://www.w3.org/2000/svg">
<path d="M89.868 23.0997L77.0423 63.4869C76.3572 65.1001 74.6224 66.0141 72.9717 65.4899C54.2278 59.5384 35.4846 53.5861 16.742 47.6332C15.9834 47.3922 15.4714 47.187 15.206 47.0175C13.9871 46.2387 13.4575 44.7797 13.7916 43.3637L26.6117 2.99386C27.3123 1.31479 29.0237 0.48722 30.7687 1.04002C49.7186 7.04249 68.6661 13.0524 87.6113 19.0697C89.3275 19.6147 90.2663 21.3056 89.868 23.0997ZM31.9903 22.1938C33.2704 21.538 34.7882 21.7739 35.787 22.7235C36.0873 23.0084 36.484 23.6268 36.977 24.5786C39.169 28.8066 41.3584 33.0298 43.5453 37.248C43.5486 37.2545 43.5531 37.2603 43.5586 37.2649C43.5641 37.2696 43.5705 37.2732 43.5774 37.2754C43.5843 37.2776 43.5916 37.2784 43.5988 37.2777C43.606 37.2771 43.613 37.275 43.6194 37.2716C51.4122 33.2401 59.2113 29.2161 67.0166 25.1995C68.5889 24.3903 70.6525 24.9722 71.4492 26.5065C74.5439 32.4748 77.6343 38.4381 80.7204 44.3964C80.7239 44.4028 80.7291 44.408 80.7355 44.4114C80.7419 44.4149 80.7491 44.4164 80.7564 44.4158C80.7636 44.4152 80.7705 44.4126 80.7763 44.4082C80.782 44.4038 80.7864 44.3978 80.7888 44.3909C83.062 37.2356 85.3354 30.0753 87.6091 22.9101C87.961 21.8018 87.5906 21.3836 86.5033 21.0383C67.8159 15.1028 49.1279 9.16812 30.4392 3.23408C29.3062 2.87427 28.873 3.17605 28.51 4.31896C26.0275 12.1305 23.5492 19.9331 21.0752 27.7265C21.0535 27.7949 21.0745 27.8129 21.1383 27.7805C24.7418 25.9162 28.3591 24.0539 31.9903 22.1938ZM69.5666 27.6891C69.1239 26.8345 68.4233 26.9289 67.6859 27.3109C54.0694 34.3614 40.4608 41.4072 26.86 48.4483C26.7981 48.4803 26.8001 48.5068 26.866 48.5277C42.3014 53.4304 57.7514 58.3369 73.2161 63.2471C74.3479 63.6065 74.7806 63.3059 75.1432 62.1643C76.6997 57.2686 78.252 52.3821 79.8 47.5046C79.8054 47.4877 79.8073 47.4699 79.8057 47.4522C79.8041 47.4344 79.799 47.417 79.7907 47.401C76.3773 40.8173 72.9692 34.2467 69.5666 27.6891ZM34.6694 24.9407C34.3123 24.2533 33.7907 23.7286 32.9751 24.151C28.7014 26.3611 24.4265 28.575 20.1505 30.7925C20.1137 30.8122 20.0861 30.8454 20.0735 30.885C18.7281 35.1132 17.3854 39.3427 16.0454 43.5735C15.6934 44.6818 16.0642 45.0947 17.1499 45.4408C19.3375 46.1392 21.5222 46.8334 23.7042 47.5236C23.7293 47.5316 23.7557 47.5346 23.7819 47.5324C23.808 47.5302 23.8334 47.5228 23.8566 47.5108L41.561 38.3439C41.5745 38.3368 41.5846 38.3246 41.5892 38.3101C41.5938 38.2955 41.5926 38.2797 41.5857 38.2661C39.2791 33.8167 36.9736 29.3749 34.6694 24.9407Z" fill="#515151"/>
<path d="M55.886 24.0816C55.6228 24.9106 55.1988 25.6796 54.6384 26.3447C54.0779 27.0099 53.392 27.5581 52.6196 27.9581C51.8473 28.3581 51.0038 28.6021 50.1371 28.6761C49.2705 28.7502 48.3978 28.6528 47.5688 28.3895C45.8946 27.8578 44.5002 26.6829 43.6924 25.1231C42.8845 23.5633 42.7293 21.7465 43.261 20.0723C43.7926 18.3981 44.9676 17.0037 46.5274 16.1958C48.0872 15.3879 49.904 15.2328 51.5782 15.7644C53.2524 16.2961 54.6468 17.4711 55.4547 19.0308C56.2625 20.5906 56.4177 22.4074 55.886 24.0816ZM53.7769 23.4118C54.131 22.297 54.0276 21.0872 53.4897 20.0486C52.9517 19.01 52.0232 18.2276 50.9084 17.8736C49.7936 17.5195 48.5838 17.6228 47.5451 18.1608C46.5065 18.6988 45.7241 19.6273 45.3701 20.7421C45.0161 21.8569 45.1194 23.0667 45.6573 24.1053C46.1953 25.144 47.1238 25.9264 48.2386 26.2804C49.3534 26.6344 50.5632 26.5311 51.6019 25.9931C52.6405 25.4552 53.4229 24.5267 53.7769 23.4118Z" fill="#639B3D"/>
<rect x="22.1292" y="49.1133" width="65.9588" height="18.4108" rx="9.20541" transform="rotate(10.585 22.1292 49.1133)" fill="#F5F5F5" stroke="#515151" stroke-width="3"/>
<rect x="1.5" y="36.7812" width="65.9588" height="18.4108" rx="9.20541" fill="#F5F5F5" stroke="#515151" stroke-width="3"/>
<path d="M18.6648 42.2812L19.4876 44.8135H22.1502L19.9961 46.3786L20.8189 48.9109L18.6648 47.3458L16.5107 48.9109L17.3335 46.3786L15.1794 44.8135H17.842L18.6648 42.2812Z" fill="#639B3D"/>
<path d="M38.7352 57.9505L39.0788 60.5909L41.6961 61.08L39.2912 62.2227L39.6348 64.863L37.8049 62.9289L35.4 64.0717L36.6739 61.7336L34.844 59.7995L37.4613 60.2886L38.7352 57.9505Z" fill="#639B3D"/>
<path d="M26.1804 42.2812L27.0032 44.8135H29.6658L27.5117 46.3786L28.3345 48.9109L26.1804 47.3458L24.0263 48.9109L24.8491 46.3786L22.695 44.8135H25.3576L26.1804 42.2812Z" fill="#639B3D"/>
<path d="M46.1258 59.3294L46.4695 61.9698L49.0868 62.4589L46.6818 63.6016L47.0255 66.242L45.1955 64.3078L42.7906 65.4506L44.0645 63.1125L42.2346 61.1784L44.8519 61.6675L46.1258 59.3294Z" fill="#639B3D"/>
<path d="M33.696 42.2812L34.5188 44.8135H37.1814L35.0273 46.3786L35.8501 48.9109L33.696 47.3458L31.5419 48.9109L32.3647 46.3786L30.2106 44.8135H32.8732L33.696 42.2812Z" fill="#639B3D"/>
<path d="M53.5165 60.7123L53.8601 63.3526L56.4774 63.8417L54.0725 64.9844L54.4161 67.6248L52.5861 65.6907L50.1812 66.8334L51.4552 64.4953L49.6252 62.5612L52.2425 63.0503L53.5165 60.7123Z" fill="#639B3D"/>
<path d="M41.2195 42.2812L42.0422 44.8135H44.7049L42.5508 46.3786L43.3736 48.9109L41.2195 47.3458L39.0654 48.9109L39.8882 46.3786L37.7341 44.8135H40.3967L41.2195 42.2812Z" fill="#BDB3B3"/>
<path d="M60.8993 62.0931L61.2429 64.7335L63.8602 65.2226L61.4553 66.3653L61.7989 69.0056L59.969 67.0715L57.564 68.2142L58.838 65.8762L57.008 63.9421L59.6253 64.4312L60.8993 62.0931Z" fill="#BDB3B3"/>
<path d="M48.7351 42.2812L49.5579 44.8135H52.2205L50.0664 46.3786L50.8892 48.9109L48.7351 47.3458L46.581 48.9109L47.4038 46.3786L45.2497 44.8135H47.9123L48.7351 42.2812Z" fill="#BDB3B3"/>
<path d="M68.2899 63.474L68.6335 66.1143L71.2508 66.6034L68.8459 67.7461L69.1895 70.3865L67.3596 68.4524L64.9546 69.5951L66.2286 67.257L64.3986 65.3229L67.016 65.812L68.2899 63.474Z" fill="#BDB3B3"/>
</svg>
