<svg width="196" height="81" viewBox="0 0 196 81" fill="none" xmlns="http://www.w3.org/2000/svg">
<path d="M141.813 81.0001C162.317 81.0001 178.938 64.3787 178.938 43.8752C178.938 23.3716 162.317 6.75024 141.813 6.75024C121.31 6.75024 104.688 23.3716 104.688 43.8752C104.688 64.3787 121.31 81.0001 141.813 81.0001Z" fill="#96A9B3"/>
<path d="M41.021 59.0936V60.2707H54.3335V18.0833H41.021V48.6457H14.5836V18.0833H0.000240944V47.8124C-0.0104761 49.6234 0.336424 51.4188 1.02105 53.0955C1.70567 54.7722 2.71454 56.2972 3.98982 57.5832C4.94596 58.5412 6.08292 59.2998 7.33465 59.8148C8.58638 60.3298 9.92796 60.591 11.2815 60.5832H36.7085L39.6981 58.4374C39.8212 58.3479 39.9664 58.2939 40.1181 58.2812C40.2697 58.2684 40.4219 58.2974 40.5582 58.365C40.6945 58.4327 40.8097 58.5363 40.8913 58.6647C40.9729 58.7932 41.0177 58.9415 41.021 59.0936Z" fill="#96A9B3"/>
<path d="M109.772 23.5101L108.73 22.4685C106.184 19.928 102.743 18.488 99.1468 18.458L58.6572 18.1039V69.833H72.5218V60.5517H100.032C104.267 60.5495 108.328 58.8674 111.324 55.8747L111.918 55.2809C112.436 54.7633 112.847 54.1478 113.126 53.4701C113.405 52.7923 113.547 52.0659 113.543 51.333V32.583C113.541 30.8971 113.208 29.2279 112.561 27.6711C111.914 26.1142 110.966 24.7003 109.772 23.5101ZM99.1468 49.7705H73.2718V30.6455H99.1468V49.7705Z" fill="#96A9B3"/>
<path d="M168.645 23.5101L167.603 22.4685C165.057 19.928 161.616 18.488 158.02 18.458L117.53 18.1039V69.833H131.405V60.5517H158.874C163.109 60.5495 167.17 58.8674 170.166 55.8747L170.759 55.2809C171.284 54.7659 171.701 54.1516 171.985 53.4737C172.269 52.7958 172.416 52.0681 172.416 51.333V32.583C172.414 30.8971 172.081 29.2279 171.434 27.6711C170.787 26.1142 169.839 24.7003 168.645 23.5101ZM158.02 49.7705H132.145V30.6455H158.02V49.7705Z" fill="#FBFBFB"/>
<path d="M184.708 21.4166C190.07 21.4166 194.417 17.0701 194.417 11.7083C194.417 6.34656 190.07 2 184.708 2C179.347 2 175 6.34656 175 11.7083C175 17.0701 179.347 21.4166 184.708 21.4166Z" fill="#96A9B3" stroke="#96A9B3" stroke-width="2.53161" stroke-miterlimit="10"/>
<path d="M180.208 17.6251V5.12512H185.14C186.084 5.12512 186.889 5.29399 187.557 5.63171C188.228 5.96537 188.739 6.43941 189.089 7.05383C189.443 7.66417 189.62 8.38235 189.62 9.20836C189.62 10.0384 189.441 10.7525 189.082 11.3507C188.724 11.9448 188.206 12.4005 187.526 12.7179C186.851 13.0352 186.033 13.1939 185.072 13.1939H181.771V11.0699H184.645C185.15 11.0699 185.569 11.0007 185.903 10.8624C186.236 10.7241 186.484 10.5165 186.647 10.2398C186.814 9.96316 186.897 9.61933 186.897 9.20836C186.897 8.79332 186.814 8.44339 186.647 8.15856C186.484 7.87373 186.234 7.65807 185.896 7.51159C185.563 7.36103 185.142 7.28576 184.633 7.28576H182.851V17.6251H180.208ZM186.958 11.9366L190.065 17.6251H187.148L184.108 11.9366H186.958Z" fill="#96A9B3"/>
</svg>
