<svg width="94" height="94" viewBox="0 0 94 94" fill="none" xmlns="http://www.w3.org/2000/svg">
<path d="M48.0592 45.5039V44.8999C46.0168 44.8999 43.8646 45.3282 43.8646 47.7329C43.8646 48.9518 44.5015 49.7863 45.5776 49.7863C45.9883 49.7659 46.3861 49.636 46.7298 49.4101C47.0735 49.1842 47.3505 48.8705 47.5321 48.5016C47.9868 47.572 48.1695 46.5328 48.0592 45.5039ZM50.9031 52.3887C50.8113 52.4663 50.6981 52.5141 50.5785 52.5259C50.4589 52.5376 50.3385 52.5128 50.2333 52.4546C49.5864 51.9269 49.0396 51.2871 48.6192 50.5659C48.061 51.2522 47.3479 51.7962 46.5385 52.1531C45.7291 52.5101 44.8466 52.6699 43.9634 52.6193C43.3854 52.654 42.8067 52.5628 42.2675 52.3518C41.7282 52.1409 41.2412 51.8153 40.8402 51.3975C40.4391 50.9798 40.1337 50.4799 39.9449 49.9325C39.7561 49.3851 39.6886 48.8032 39.7469 48.227C39.7127 47.2421 39.9834 46.2707 40.5218 45.4453C41.0603 44.6199 41.8404 43.9808 42.7556 43.6152C44.4702 43.0476 46.2548 42.7187 48.0592 42.6379V42.2646C48.1474 41.5652 48.0291 40.8552 47.7188 40.2222C47.5337 39.9815 47.2934 39.789 47.0182 39.6609C46.7429 39.5329 46.4409 39.473 46.1376 39.4865C45.6185 39.4552 45.1052 39.6091 44.689 39.9207C44.2728 40.2324 43.9806 40.6816 43.8646 41.1885C43.8519 41.3156 43.7977 41.435 43.7104 41.5283C43.623 41.6216 43.5075 41.6835 43.3815 41.7046L40.6363 41.4081C40.5695 41.3975 40.5055 41.3737 40.4482 41.3379C40.3908 41.3021 40.3412 41.2552 40.3022 41.1999C40.2633 41.1446 40.2359 41.0821 40.2216 41.016C40.2073 40.9499 40.2065 40.8816 40.219 40.8152C40.8669 37.499 43.8426 36.4998 46.5329 36.4998C48.0614 36.4477 49.5578 36.9465 50.7494 37.9053C52.1549 39.19 52.0232 40.892 52.0232 42.7587V47.1509C52.0417 48.1304 52.4346 49.0656 53.1212 49.7643C53.2186 49.8664 53.2729 50.0021 53.2729 50.1432C53.2729 50.2842 53.2186 50.4199 53.1212 50.522C52.5392 50.9941 51.5181 51.8946 50.9251 52.3887" fill="#B6FD85"/>
<path d="M57.2415 55.3206C54.0646 57.4787 50.31 58.6269 46.4695 58.6147C41.6046 58.6472 36.9038 56.857 33.2928 53.5966C33.0183 53.3441 33.2928 53.0147 33.5893 53.2013C37.6013 55.496 42.1442 56.6998 46.766 56.6931C50.218 56.6807 53.6331 55.9827 56.8132 54.6398C57.3074 54.4312 57.7136 54.9692 57.2305 55.3206" fill="#B6FD85"/>
<path d="M58.4436 53.9372C58.0702 53.465 55.973 53.7176 55.0396 53.8274C54.7541 53.8274 54.7102 53.6078 54.9627 53.4321C56.6318 52.2572 59.355 52.5976 59.6844 52.9929C60.0138 53.3882 59.5965 56.1223 58.0373 57.3851C57.7957 57.5937 57.5651 57.4839 57.6749 57.2204C58.0263 56.3419 58.773 54.3764 58.4436 53.9262" fill="#B6FD85"/>
<path d="M48.4766 22.523L45.529 22.531L45.527 10.3463C45.527 10.2772 45.4945 10.2308 45.4294 10.2069C42.1632 9.04378 40.8168 5.53057 42.5017 2.56108C43.5334 0.744733 45.8656 -0.326753 47.9707 0.0894934C53.3381 1.15501 53.6587 8.3507 48.5642 10.2248C48.5385 10.2348 48.5164 10.2523 48.5008 10.275C48.4851 10.2978 48.4767 10.3247 48.4766 10.3523V22.523ZM49.2573 5.22984C49.2573 4.63085 49.0193 4.0564 48.5958 3.63285C48.1722 3.2093 47.5978 2.97135 46.9988 2.97135C46.3998 2.97135 45.8254 3.2093 45.4018 3.63285C44.9783 4.0564 44.7403 4.63085 44.7403 5.22984C44.7403 5.82883 44.9783 6.40328 45.4018 6.82683C45.8254 7.25038 46.3998 7.48833 46.9988 7.48833C47.5978 7.48833 48.1722 7.25038 48.5958 6.82683C49.0193 6.40328 49.2573 5.82883 49.2573 5.22984Z" fill="#909090"/>
<path d="M30.7063 28.6729L28.6489 30.7382L20.075 22.1664C20.0442 22.135 20.0042 22.1141 19.9606 22.1066C19.9171 22.0991 19.8721 22.1054 19.8321 22.1245C16.3527 23.7796 12.256 21.4573 12.25 17.508C12.244 11.81 19.9735 10.2346 22.2638 15.3949C22.9131 16.8554 22.85 18.3584 22.0746 19.9039C22.0612 19.9305 22.0565 19.9607 22.0611 19.9903C22.0658 20.0199 22.0795 20.0475 22.1005 20.0692L30.7063 28.6729ZM19.7205 17.4662C19.7205 16.8666 19.4824 16.2917 19.0585 15.8678C18.6345 15.4438 18.0596 15.2057 17.4601 15.2057C16.8605 15.2057 16.2856 15.4438 15.8617 15.8678C15.4377 16.2917 15.1996 16.8666 15.1996 17.4662C15.1996 18.0657 15.4377 18.6406 15.8617 19.0646C16.2856 19.4885 16.8605 19.7266 17.4601 19.7266C18.0596 19.7266 18.6345 19.4885 19.0585 19.0646C19.4824 18.6406 19.7205 18.0657 19.7205 17.4662Z" fill="#909090"/>
<path d="M65.3505 30.7131L63.2812 28.6578L71.879 20.06C71.9004 20.0388 71.9144 20.0113 71.9191 19.9816C71.9237 19.9518 71.9188 19.9214 71.9049 19.8947C70.4411 17.0168 71.8093 13.5036 74.9182 12.5058C78.1387 11.4722 81.5981 13.7486 81.7495 17.1941C81.9287 21.2589 77.6925 23.9516 74.1096 22.0914C74.0831 22.0781 74.0531 22.0734 74.0238 22.078C73.9945 22.0827 73.9674 22.0964 73.9463 22.1173L65.3505 30.7131ZM78.7939 17.4629C78.7939 16.8629 78.5555 16.2874 78.1312 15.8631C77.707 15.4388 77.1315 15.2005 76.5314 15.2005C75.9314 15.2005 75.3559 15.4388 74.9316 15.8631C74.5073 16.2874 74.269 16.8629 74.269 17.4629C74.269 18.063 74.5073 18.6384 74.9316 19.0627C75.3559 19.487 75.9314 19.7254 76.5314 19.7254C77.1315 19.7254 77.707 19.487 78.1312 19.0627C78.5555 18.6384 78.7939 18.063 78.7939 17.4629Z" fill="#909090"/>
<path d="M48.4827 22.5234C54.1123 22.9271 59.0449 24.9718 63.2804 28.6576L65.3497 30.7129C69.0474 34.9458 71.1014 39.8876 71.5117 45.5385L71.5197 48.4881C71.1373 54.1018 69.0846 59.0549 65.3616 63.3475L63.2963 65.4148C59.0635 69.0992 54.1249 71.1426 48.4807 71.5449L45.5311 71.5489C39.7893 71.1526 35.0772 69.0375 30.6897 65.3909L28.6283 63.3236C24.9372 59.0735 22.8938 54.1276 22.4982 48.4861L22.4922 45.5365C22.9078 39.9002 24.9605 34.9677 28.6503 30.7388L30.7076 28.6735C34.9417 24.9851 39.8843 22.9377 45.5351 22.5314L48.4827 22.5234ZM68.6179 47.0103C68.6179 41.2787 66.341 35.7819 62.2882 31.729C58.2353 27.6762 52.7385 25.3993 47.0069 25.3993C41.2753 25.3993 35.7785 27.6762 31.7257 31.729C27.6728 35.7819 25.396 41.2787 25.396 47.0103C25.396 52.7419 27.6728 58.2387 31.7257 62.2916C35.7785 66.3444 41.2753 68.6213 47.0069 68.6213C52.7385 68.6213 58.2353 66.3444 62.2882 62.2916C66.341 58.2387 68.6179 52.7419 68.6179 47.0103Z" fill="#909090"/>
<path d="M22.4896 45.5366L22.4956 48.4862L10.3548 48.4882C10.3284 48.4881 10.3027 48.4961 10.2809 48.511C10.2592 48.526 10.2426 48.5472 10.2333 48.5719C9.22552 51.1829 6.8555 52.6945 4.1031 52.1249C0.362852 51.3482 -1.27226 46.6898 1.12763 43.7601C3.63507 40.695 8.41494 41.3065 9.97038 44.9352C10.0474 45.1131 10.1337 45.285 10.2293 45.451C10.2638 45.5081 10.3143 45.5366 10.3807 45.5366H22.4896ZM7.48286 47.0124C7.48286 46.4129 7.2447 45.8379 6.82078 45.414C6.39686 44.9901 5.8219 44.7519 5.22238 44.7519C4.62287 44.7519 4.0479 44.9901 3.62398 45.414C3.20006 45.8379 2.9619 46.4129 2.9619 47.0124C2.9619 47.3093 3.02037 47.6032 3.13397 47.8775C3.24757 48.1517 3.41408 48.4009 3.62398 48.6108C3.83389 48.8207 4.08308 48.9872 4.35734 49.1008C4.63159 49.2144 4.92553 49.2729 5.22238 49.2729C5.51923 49.2729 5.81318 49.2144 6.08743 49.1008C6.36168 48.9872 6.61088 48.8207 6.82078 48.6108C7.03069 48.4009 7.19719 48.1517 7.31079 47.8775C7.42439 47.6032 7.48286 47.3093 7.48286 47.0124Z" fill="#909090"/>
<path d="M71.5158 48.4876L71.5078 45.538H83.6546C83.6813 45.5379 83.7074 45.5292 83.7292 45.5132C83.751 45.4971 83.7674 45.4744 83.7761 45.4484C84.7321 42.5366 87.8609 41.0151 90.7627 42.2001C93.1626 43.1819 94.6224 46.006 93.7481 48.5911C92.0792 53.5264 85.5526 53.363 83.7522 48.5653C83.7323 48.5135 83.6951 48.4876 83.6407 48.4876H71.5158ZM91.0256 47.0118C91.0256 46.4118 90.7872 45.8363 90.3629 45.412C89.9386 44.9877 89.3632 44.7493 88.7631 44.7493C88.1631 44.7493 87.5876 44.9877 87.1633 45.412C86.739 45.8363 86.5007 46.4118 86.5007 47.0118C86.5007 47.6118 86.739 48.1873 87.1633 48.6116C87.5876 49.0359 88.1631 49.2743 88.7631 49.2743C89.3632 49.2743 89.9386 49.0359 90.3629 48.6116C90.7872 48.1873 91.0256 47.6118 91.0256 47.0118Z" fill="#909090"/>
<path d="M28.6293 63.3232L30.6906 65.3905L22.1088 73.9724C22.0886 73.9924 22.0754 74.0185 22.0711 74.0468C22.0668 74.0751 22.0716 74.1041 22.0849 74.1297C24.443 78.7622 19.5197 83.5341 14.9629 81.1521C11.2326 79.2004 11.4158 73.8489 15.1023 71.9071C16.5801 71.1277 18.1767 71.133 19.8921 71.923C19.9559 71.9522 20.0123 71.9423 20.0614 71.8931L28.6293 63.3232ZM19.7209 76.5595C19.7209 75.96 19.4827 75.385 19.0588 74.9611C18.6349 74.5372 18.0599 74.299 17.4604 74.299C16.8609 74.299 16.2859 74.5372 15.862 74.9611C15.4381 75.385 15.1999 75.96 15.1999 76.5595C15.1999 77.159 15.4381 77.734 15.862 78.1579C16.2859 78.5818 16.8609 78.82 17.4604 78.82C18.0599 78.82 18.6349 78.5818 19.0588 78.1579C19.4827 77.734 19.7209 77.159 19.7209 76.5595Z" fill="#909090"/>
<path d="M65.3622 63.3467L73.9221 71.9046C73.9712 71.9551 74.027 71.9644 74.0894 71.9325C79.4887 69.2518 84.5115 76.1189 80.0842 80.3849C79.4349 81.0116 78.6655 81.4298 77.7759 81.6396C73.3884 82.6773 69.8732 78.1324 71.8887 74.1611C71.9245 74.0921 71.9152 74.0303 71.8608 73.9759L63.2969 65.414L65.3622 63.3467ZM78.7956 76.557C78.7956 75.957 78.5572 75.3815 78.1329 74.9572C77.7086 74.5329 77.1332 74.2946 76.5331 74.2946C75.9331 74.2946 75.3576 74.5329 74.9333 74.9572C74.509 75.3815 74.2706 75.957 74.2706 76.557C74.2706 77.1571 74.509 77.7325 74.9333 78.1568C75.3576 78.5811 75.9331 78.8195 76.5331 78.8195C77.1332 78.8195 77.7086 78.5811 78.1329 78.1568C78.5572 77.7325 78.7956 77.1571 78.7956 76.557Z" fill="#909090"/>
<path d="M45.5317 71.5489L48.4813 71.5449L48.4833 83.6818C48.4832 83.711 48.4922 83.7395 48.5089 83.7634C48.5257 83.7872 48.5494 83.8054 48.5769 83.8152C51.3293 84.813 52.9963 87.673 51.9367 90.515C50.1044 95.4243 43.2194 95.0539 41.913 89.9932C41.2378 87.3742 42.8311 84.7174 45.4341 83.8252C45.4625 83.8153 45.4872 83.797 45.5047 83.7727C45.5222 83.7484 45.5316 83.7195 45.5317 83.6898V71.5489ZM49.268 88.7963C49.268 88.1967 49.0298 87.6218 48.6059 87.1979C48.182 86.7739 47.607 86.5358 47.0075 86.5358C46.408 86.5358 45.833 86.7739 45.4091 87.1979C44.9852 87.6218 44.747 88.1967 44.747 88.7963C44.747 89.3958 44.9852 89.9707 45.4091 90.3947C45.833 90.8186 46.408 91.0567 47.0075 91.0567C47.607 91.0567 48.182 90.8186 48.6059 90.3947C49.0298 89.9707 49.268 89.3958 49.268 88.7963Z" fill="#909090"/>
</svg>
