<svg width="94" height="94" viewBox="0 0 94 94" fill="none" xmlns="http://www.w3.org/2000/svg">
<rect x="1.5" y="45.5" width="91" height="47" rx="4.5" stroke="#909090" stroke-width="3"/>
<path d="M78.5 2C78.5 1.72386 78.7239 1.5 79 1.5H88C88.2761 1.5 88.5 1.72386 88.5 2V39.5H78.5V2Z" stroke="#B6FD85" stroke-width="3"/>
<path d="M60.5 8C60.5 7.72386 60.7239 7.5 61 7.5H70C70.2761 7.5 70.5 7.72386 70.5 8V39.5H60.5V8Z" stroke="#B6FD85" stroke-width="3"/>
<path d="M42.5 15C42.5 14.7239 42.7239 14.5 43 14.5H52C52.2761 14.5 52.5 14.7239 52.5 15V39.5H42.5V15Z" stroke="#909090" stroke-width="3"/>
<path d="M24.5 22C24.5 21.7239 24.7239 21.5 25 21.5H34C34.2761 21.5 34.5 21.7239 34.5 22V39.5H24.5V22Z" stroke="#909090" stroke-width="3"/>
<path d="M6.5 29C6.5 28.7239 6.72386 28.5 7 28.5H16C16.2761 28.5 16.5 28.7239 16.5 29V39.5H6.5V29Z" stroke="#909090" stroke-width="3"/>
<path d="M48.19 77.7883C48.1963 78.3123 48.2617 78.944 48.0497 79.3873C47.6895 80.144 46.4794 80.2311 46.0568 79.4728C45.8042 79.02 45.8775 78.3012 45.8853 77.7439C45.8863 77.687 45.8593 77.6553 45.8042 77.649C43.1485 77.3355 41.0356 76.088 40.1483 73.452C40.0142 73.053 39.971 72.7153 40.0189 72.4388C40.2091 71.3432 41.597 71.0139 42.2831 71.8752C42.3725 71.9881 42.4702 72.215 42.5762 72.5559C43.3902 75.1713 46.7538 75.6716 49.004 75.1302C50.0971 74.8658 51.3103 74.0552 51.4351 72.8172C51.6331 70.8477 49.8336 70.2018 48.3413 69.8345C47.0886 69.5263 45.8421 69.1917 44.6019 68.8308C43.0784 68.3891 41.5985 67.5215 40.9249 66.0159C40.0033 63.9626 40.8609 61.5071 42.7213 60.3102C43.5613 59.7698 44.5826 59.4474 45.7855 59.3429C45.8395 59.3376 45.8686 59.307 45.8728 59.2511C45.9133 58.6083 45.7605 57.9386 46.1082 57.47C46.5199 56.9128 47.2747 56.851 47.7908 57.2848C48.3428 57.7502 48.1947 58.6178 48.1885 59.2891C48.1874 59.3471 48.2155 59.3793 48.2727 59.3857C50.4371 59.6485 52.2054 60.6648 53.0693 62.7372C53.272 63.2248 53.4015 63.6649 53.2065 64.1636C52.8713 65.0169 51.6924 65.1863 51.0983 64.542C50.7692 64.1842 50.7084 63.6364 50.4386 63.209C49.3081 61.4153 46.6306 61.4184 44.8717 61.914C43.6023 62.2733 42.6729 63.6966 43.3169 64.99C43.7957 65.951 45.4284 66.3357 46.3936 66.5558C49.7541 67.3236 54.4852 68.2402 53.9597 72.9169C53.6276 75.8853 51.039 77.3988 48.2789 77.6885C48.2196 77.6938 48.19 77.7271 48.19 77.7883Z" fill="#B6FD85"/>
</svg>
