<svg width="64" height="79" viewBox="0 0 64 79" fill="none" xmlns="http://www.w3.org/2000/svg">
<path d="M34.0166 55.4873C33.1448 56.8155 32.4472 58.2034 31.9236 59.6511C31.8925 59.7344 31.862 59.7344 31.8322 59.6511C31.2999 58.1462 30.5755 56.7192 29.6589 55.3698C28.5452 50.9598 26.9689 46.5312 24.3927 42.7536C24.3731 42.7248 24.3444 42.7035 24.3113 42.693C24.2781 42.6825 24.2424 42.6835 24.2098 42.6958C20.9751 43.9214 16.845 44.8914 13.5599 43.3375C9.75243 41.5373 7.55304 36.952 5.84054 33.3591C5.07321 31.751 4.50921 30.6747 4.14856 30.1299C3.15115 28.6189 1.91745 27.2652 0.447457 26.0688C0.122865 25.8052 -0.0251291 25.4408 0.00347478 24.9756C0.034566 24.4384 0.340503 24.0877 0.921287 23.9235C4.39231 22.9361 7.89505 22.5891 11.4295 22.8826C21.5945 23.7258 26.9502 30.74 26.1313 40.612C26.1252 40.6942 26.1476 40.7764 26.1947 40.8452C28.0477 43.4929 29.4891 46.3509 30.5189 49.4189C30.5711 49.5744 30.5972 49.5707 30.5972 49.4077V30.9433C30.5973 30.911 30.5882 30.8793 30.571 30.8519C30.5539 30.8245 30.5293 30.8025 30.5002 30.7885C28.2411 29.6804 26.0361 28.0667 24.5997 26.0576C21.2717 21.3958 22.7156 15.8871 25.9634 11.5256C26.8116 10.3852 27.3967 9.57368 27.7188 9.09115C29.1291 6.97383 30.3118 4.29502 30.5655 1.70574C30.6227 1.11003 30.711 0.717039 30.8304 0.526761C31.0903 0.115113 31.5107 -0.055267 32.0915 0.0156209C33.3507 0.166724 33.0858 1.53038 33.276 2.46685C33.7163 4.62085 34.4998 6.62748 35.6265 8.48673C35.726 8.65089 36.3472 9.51772 37.4902 11.0872C39.559 13.9302 41.292 17.2843 41.0625 20.9126C40.7715 25.4942 37.2029 28.9342 33.2704 30.7754C33.2382 30.7903 33.2109 30.8141 33.1917 30.8438C33.1725 30.8735 33.1623 30.9081 33.1623 30.9433L33.1641 48.85C33.1641 49.2529 33.2269 49.2635 33.3525 48.8817C34.2504 46.178 35.5339 43.552 37.2029 41.0038C37.2825 40.8831 37.316 40.7482 37.3036 40.599C36.8018 34.4392 38.727 28.3745 44.3178 25.1715C49.5542 22.17 56.9508 22.3155 62.5434 23.8974C63.3493 24.125 63.7504 25.2293 63.2094 25.8916C63.2007 25.904 62.942 26.131 62.4334 26.5725C60.7296 28.0499 59.3752 29.8066 58.3704 31.8425C55.6356 37.3792 52.69 44.8914 45.0565 44.1023C43.0816 43.8971 41.1564 43.4451 39.281 42.7461C39.2421 42.7316 39.1993 42.7308 39.1599 42.7441C39.1205 42.7573 39.0868 42.7837 39.0646 42.8189C36.6376 46.6879 35.1061 51.0624 34.0166 55.4873ZM31.8359 6.80221C31.3596 7.91403 30.8205 8.96554 30.2185 9.95673C29.5208 11.1059 28.4519 12.4453 27.5882 13.7026C25.8962 16.1669 24.6128 19.5061 25.5716 22.4405C26.3365 24.7835 28.3754 26.6452 30.489 27.8727C30.5587 27.9138 30.5935 27.8939 30.5935 27.813C30.5985 25.6839 30.5997 23.5554 30.5972 21.4275C30.5972 21.0171 30.6426 20.7137 30.7334 20.5172C31.1121 19.6982 32.4291 19.6217 32.8974 20.3176C33.0715 20.5775 33.1591 20.9966 33.1604 21.5749C33.1641 23.5908 33.1647 25.6615 33.1623 27.7869C33.1623 27.8752 33.2002 27.8976 33.276 27.8541C38.3128 24.9271 40.0085 20.4239 37.0518 15.1278C36.4262 14.0073 35.9219 13.2163 35.5389 12.7549C34.0291 10.9342 32.8209 8.95061 31.9142 6.80408C31.8881 6.74189 31.862 6.74127 31.8359 6.80221ZM15.5522 33.027C15.9228 32.8504 16.2144 32.8106 16.4271 32.9076C19.0698 34.114 21.434 35.732 23.5196 37.7616C23.5681 37.8101 23.5918 37.7995 23.5905 37.7299C23.3107 26.7049 12.9685 24.1138 4.06088 25.8058C4.05248 25.8075 4.04468 25.8114 4.03829 25.8171C4.03189 25.8228 4.02712 25.8301 4.02447 25.8383C4.02181 25.8464 4.02137 25.8551 4.02318 25.8635C4.02498 25.8719 4.02898 25.8797 4.03476 25.886C5.89091 27.8317 6.91692 29.6524 8.17798 32.2883C10.0658 36.2356 12.6999 42.0802 17.9101 41.5728C19.5132 41.4161 21.0628 41.0765 22.5589 40.5542C22.6037 40.5393 22.6099 40.5144 22.5776 40.4796C20.6449 38.384 18.4076 36.7144 15.8656 35.4708C15.4614 35.2731 15.199 35.0896 15.0784 34.9205C14.6101 34.2713 14.8097 33.3833 15.5522 33.027ZM55.5106 31.7324C56.4732 29.5684 57.7691 27.624 59.3983 25.8991C59.4343 25.8605 59.4269 25.8363 59.3759 25.8263C50.5802 24.1101 40.1839 26.7385 39.8686 37.575C39.8674 37.6198 39.8823 37.626 39.9134 37.5937C41.9766 35.4186 44.3526 33.6638 47.0414 32.3293C48.2278 31.7417 49.4478 32.9468 48.8248 34.0176C48.5281 34.5287 47.7558 34.8552 47.2093 35.1593C44.7257 36.5347 42.5835 38.3094 40.7827 40.4833C40.7529 40.5194 40.7603 40.5449 40.8051 40.5598C42.6277 41.1605 44.6368 41.6716 46.547 41.5914C51.2163 41.3937 53.9175 35.316 55.5106 31.7324Z" fill="#B6FD85"/>
<path d="M29.6593 55.3694C30.5758 56.7188 31.3003 58.1458 31.8326 59.6507C31.8624 59.734 31.8929 59.734 31.924 59.6507C32.4475 58.203 33.1452 56.8151 34.017 55.4869C36.8712 51.45 40.8279 49.1835 45.5755 47.9485C45.9685 47.8466 46.2788 47.8267 46.5064 47.8888C47.1966 48.0773 47.6238 48.9316 47.357 49.5883C47.2824 49.7711 47.0747 50.0254 46.7339 50.3513C41.104 55.7238 37.7741 62.0179 37.7163 69.9406C37.7163 69.9916 37.7411 70.0202 37.7909 70.0264C44.2902 70.8758 50.4829 72.7295 56.3691 75.5874C56.8803 75.8349 57.216 76.0761 57.3765 76.3112C57.8708 77.0294 57.2459 78.2382 56.3243 78.2419C56.0905 78.2432 55.7691 78.1443 55.3599 77.9453C49.6366 75.1509 43.6099 73.3507 37.2797 72.5448C37.0186 72.5112 36.513 72.5187 36.1399 72.4478C35.9335 72.408 35.7818 72.3837 35.6848 72.375C26.1093 71.4983 16.6681 73.1529 8.24552 77.8502C7.79034 78.1039 7.43652 78.2339 7.18406 78.2401C6.29237 78.2643 5.64691 77.1059 6.10395 76.3541C6.23951 76.1327 6.52617 75.8971 6.96394 75.6471C12.7786 72.3284 19.2723 70.4144 25.9283 69.8007C25.9905 69.7957 26.0216 69.7615 26.0216 69.6981C25.9694 64.2621 24.3458 59.3752 21.1509 55.0373C20.0801 53.5835 18.574 51.9009 16.6327 49.9894C16.06 49.426 16.3417 48.1575 17.1811 47.9056C17.4323 47.8298 17.7625 47.8441 18.1717 47.9485C22.8783 49.1518 26.8219 51.4109 29.6593 55.3694ZM22.2216 52.2858C26.3891 57.2591 28.3404 62.9973 28.596 69.5209C28.5984 69.5868 28.6326 69.6191 28.6986 69.6179L30.4596 69.588C30.5205 69.5868 30.5516 69.5563 30.5528 69.4966C30.5926 67.3911 30.5852 65.9814 30.5305 65.2676C30.4086 63.6521 29.9671 61.8861 29.206 59.9696C27.8392 56.526 25.5316 53.9398 22.2832 52.2111C22.1327 52.1316 22.1122 52.1564 22.2216 52.2858ZM35.1195 69.7503C35.1255 69.7506 35.1316 69.7496 35.1372 69.7475C35.1429 69.7453 35.148 69.7421 35.1524 69.7379C35.1567 69.7337 35.1602 69.7287 35.1626 69.7231C35.1649 69.7176 35.1662 69.7116 35.1662 69.7056C35.2557 63.1727 37.3463 57.3953 41.4379 52.3734C41.5747 52.2068 41.5479 52.1745 41.3577 52.2764C38.1565 54.0175 35.8831 56.595 34.5375 60.0088C33.7552 61.9962 33.3044 63.866 33.185 65.6183C33.1402 66.2837 33.1384 67.5976 33.1794 69.56C33.1807 69.6098 33.2068 69.6365 33.2578 69.6403L35.1195 69.7503Z" fill="#909090"/>
</svg>
