<svg width="41" height="76" viewBox="0 0 41 76" fill="none" xmlns="http://www.w3.org/2000/svg">
<path d="M2.21463 9.74176L8.875 23.0625H32.5L39.1604 9.74176C39.6086 8.8453 38.7492 7.85443 37.7984 8.17137L26.875 11.8125L21.1925 1.86807C20.7418 1.07939 19.5905 1.12243 19.2 1.94255L14.5 11.8125L3.57661 8.17137C2.62578 7.85443 1.7664 8.8453 2.21463 9.74176Z" stroke="#B6FD85" stroke-width="2.25"/>
<path d="M10 29.125L31.375 29.125" stroke="#909090" stroke-width="2.25" stroke-linecap="round"/>
<path d="M32.5 34.625H10.5625C10.5625 46.325 6.4375 56 4.375 59.375H39.25C33.4 50.825 32.3125 39.3125 32.5 34.625Z" stroke="#909090" stroke-width="2.25" stroke-linejoin="round"/>
<path d="M39.25 63.3125H3.25V71.75C3.25 72.9926 4.25736 74 5.5 74H37C38.2426 74 39.25 72.9926 39.25 71.75V63.3125Z" stroke="#909090" stroke-width="2.25" stroke-linejoin="round"/>
</svg>
