<svg width="60" height="62" viewBox="0 0 60 62" fill="none" xmlns="http://www.w3.org/2000/svg">
<path d="M42.0052 17.1409C42.0257 17.1981 42.0471 17.1981 42.0693 17.1409C42.4009 16.2914 42.8086 15.4709 43.2923 14.6795C43.3436 14.5949 43.3974 14.4052 43.4025 14.3065C43.5717 10.6145 44.8755 6.69429 47.7406 4.26244C48.6004 3.53259 49.7208 2.85145 51.1019 2.21902C53.1163 1.29602 55.2939 0.585398 57.6347 0.0871484C57.9706 0.0153595 58.2141 -0.0564294 58.5333 0.0666373C59.1922 0.323026 59.2499 0.860161 59.1166 1.51652C58.6466 3.82231 57.9325 6.01956 56.9745 8.10828C56.2592 9.66841 55.2541 11.2683 54.0106 12.4105C51.6749 14.5526 48.2688 15.5602 45.1614 15.7564C45.1226 15.7591 45.0851 15.7712 45.052 15.7915C45.019 15.8118 44.9914 15.8398 44.9716 15.873C43.9025 17.666 43.2872 19.6065 43.1256 21.6943C43.1231 21.7311 43.1402 21.7495 43.1769 21.7495C44.1649 21.7529 45.1592 21.7524 46.16 21.7482C46.9766 21.7456 47.1856 22.4122 47.1856 23.1416C47.1856 35.6577 47.1856 48.1738 47.1856 60.6898C47.1856 61.5397 46.5484 61.7474 45.7857 61.7474C43.3132 61.7474 40.8408 61.7474 38.3683 61.7474C37.4325 61.7474 36.93 61.518 36.93 60.5296C36.93 47.9451 36.93 35.3607 36.93 22.7763C36.93 21.9776 37.5581 21.7546 38.2812 21.752C39.1708 21.7503 40.0528 21.7499 40.9271 21.7507C40.9357 21.7508 40.9443 21.749 40.9522 21.7456C40.9601 21.7422 40.9672 21.7371 40.973 21.7308C40.9788 21.7246 40.9832 21.7171 40.9859 21.7091C40.9886 21.701 40.9895 21.6925 40.9886 21.6841C40.6656 18.4484 39.2388 15.4769 37.2056 12.9797C37.1646 12.9284 37.1201 12.8801 37.0723 12.8348C37.0407 12.8049 37.0031 12.7899 36.9595 12.7899C34.293 12.7438 31.4933 11.9054 29.7421 9.80045C28.2204 7.97111 27.3551 4.91111 26.9667 2.49208C26.777 1.31653 27.3205 0.787091 28.505 0.998612C30.983 1.44216 33.7162 2.23953 35.7006 3.74967C38.0171 5.51106 38.726 8.77745 38.7632 11.5144C38.764 11.558 38.7777 11.5969 38.8042 11.6311C40.122 13.304 41.2655 15.15 42.0052 17.1409ZM52.1467 3.98939C50.8365 4.57139 49.4866 5.35466 48.4547 6.39945C47.1663 7.7019 46.3266 9.54278 45.9318 11.3324C45.9216 11.3785 45.9335 11.3854 45.9677 11.3529C46.9582 10.4051 48.1432 9.51244 49.5225 8.6749C50.0285 8.36809 50.4763 8.3527 50.866 8.62875C51.2814 8.92231 51.4173 9.49022 51.1647 9.92864C51.0681 10.0953 50.822 10.2948 50.4263 10.5273C49.0615 11.3281 47.8423 12.3131 46.7689 13.4822C46.7673 13.484 46.7663 13.4862 46.7659 13.4886C46.7656 13.4909 46.7661 13.4933 46.7672 13.4955C46.7683 13.4976 46.7701 13.4993 46.7722 13.5003C46.7744 13.5014 46.7768 13.5018 46.7792 13.5014C49.1444 13.1104 51.7762 12.0721 53.3184 10.1876C55.0503 8.0711 56.1284 5.10724 56.7976 2.42926C56.7988 2.42444 56.7989 2.41934 56.7976 2.4145C56.7964 2.40967 56.794 2.40526 56.7906 2.40174C56.7872 2.39821 56.783 2.3957 56.7783 2.39445C56.7737 2.39321 56.7688 2.39328 56.7642 2.39465C55.1806 2.79376 53.6414 3.32534 52.1467 3.98939ZM32.888 6.3815C33.3098 6.42252 33.6777 6.71481 34.0174 6.97632C34.8549 7.62157 35.6574 8.31083 36.4249 9.0441C36.4625 9.07914 36.4753 9.07187 36.4634 9.02231C36.2369 8.02153 35.8339 7.09811 35.2545 6.25202C34.1007 4.56883 31.2125 3.66249 29.2781 3.27022C29.2336 3.26167 29.2157 3.27962 29.2242 3.32406C29.5344 4.94059 30.128 6.74429 31.042 8.12238C31.8701 9.36971 33.4751 10.1479 34.8878 10.5042C34.9485 10.5188 34.9566 10.5047 34.9122 10.4619C34.1242 9.70131 33.2786 8.98812 32.3752 8.32236C32.1351 8.14631 31.9774 7.98735 31.9022 7.84548C31.5343 7.15708 32.1406 6.30971 32.888 6.3815ZM45.1344 23.8942C45.1344 23.8697 45.1247 23.8462 45.1074 23.8289C45.0901 23.8116 45.0666 23.8019 45.0421 23.8019H39.0734C39.0613 23.8019 39.0493 23.8042 39.0381 23.8089C39.0269 23.8135 39.0167 23.8203 39.0081 23.8289C38.9996 23.8375 38.9928 23.8476 38.9881 23.8588C38.9835 23.87 38.9811 23.882 38.9811 23.8942V59.604C38.9811 59.6161 38.9835 59.6281 38.9881 59.6393C38.9928 59.6505 38.9996 59.6607 39.0081 59.6693C39.0167 59.6778 39.0269 59.6846 39.0381 59.6893C39.0493 59.6939 39.0613 59.6963 39.0734 59.6963H45.0421C45.0666 59.6963 45.0901 59.6866 45.1074 59.6693C45.1247 59.652 45.1344 59.6285 45.1344 59.604V23.8942Z" fill="#006350"/>
<path d="M34.8786 60.7104C34.8786 60.9854 34.7693 61.2492 34.5749 61.4437C34.3804 61.6382 34.1166 61.7475 33.8415 61.7475H25.6601C25.3851 61.7475 25.1213 61.6382 24.9268 61.4437C24.7323 61.2492 24.623 60.9854 24.623 60.7104V33.0434C24.623 32.7684 24.7323 32.5046 24.9268 32.3101C25.1213 32.1156 25.3851 32.0063 25.6601 32.0063H33.8415C34.1166 32.0063 34.3804 32.1156 34.5749 32.3101C34.7693 32.5046 34.8786 32.7684 34.8786 33.0434V60.7104ZM32.8275 34.1434C32.8275 34.1206 32.8184 34.0987 32.8023 34.0826C32.7862 34.0665 32.7644 34.0575 32.7416 34.0575H26.76C26.7373 34.0575 26.7154 34.0665 26.6993 34.0826C26.6832 34.0987 26.6742 34.1206 26.6742 34.1434V59.6105C26.6742 59.6218 26.6764 59.6329 26.6807 59.6433C26.685 59.6538 26.6913 59.6632 26.6993 59.6712C26.7073 59.6792 26.7168 59.6855 26.7272 59.6898C26.7376 59.6941 26.7488 59.6964 26.76 59.6964H32.7416C32.7529 59.6964 32.7641 59.6941 32.7745 59.6898C32.7849 59.6855 32.7944 59.6792 32.8023 59.6712C32.8103 59.6632 32.8166 59.6538 32.821 59.6433C32.8253 59.6329 32.8275 59.6218 32.8275 59.6105V34.1434Z" fill="#006350"/>
<path d="M22.57 60.7132C22.57 60.9876 22.461 61.2508 22.267 61.4448C22.073 61.6388 21.8099 61.7478 21.5355 61.7478H13.349C13.0746 61.7478 12.8115 61.6388 12.6175 61.4448C12.4234 61.2508 12.3145 60.9876 12.3145 60.7132V43.2967C12.3145 43.0224 12.4234 42.7592 12.6175 42.5652C12.8115 42.3712 13.0746 42.2622 13.349 42.2622H21.5355C21.8099 42.2622 22.073 42.3712 22.267 42.5652C22.461 42.7592 22.57 43.0224 22.57 43.2967V60.7132ZM20.5189 44.412C20.5189 44.3858 20.5085 44.3607 20.49 44.3422C20.4715 44.3237 20.4464 44.3133 20.4202 44.3133H14.4643C14.4381 44.3133 14.413 44.3237 14.3945 44.3422C14.376 44.3607 14.3656 44.3858 14.3656 44.412V59.598C14.3656 59.6241 14.376 59.6492 14.3945 59.6678C14.413 59.6863 14.4381 59.6967 14.4643 59.6967H20.4202C20.4464 59.6967 20.4715 59.6863 20.49 59.6678C20.5085 59.6492 20.5189 59.6241 20.5189 59.598V44.412Z" fill="#006350"/>
<path d="M10.2555 60.7178C10.2551 60.9925 10.1455 61.2558 9.95088 61.4497C9.75629 61.6436 9.49264 61.7523 9.21793 61.7518L1.03401 61.7375C0.897981 61.7373 0.763335 61.7103 0.637755 61.658C0.512175 61.6057 0.398121 61.5292 0.302105 61.4329C0.206089 61.3365 0.129991 61.2222 0.0781558 61.0964C0.0263208 60.9707 -0.000235997 60.8359 1.58002e-06 60.6999L0.016077 51.4904C0.0165594 51.2157 0.126149 50.9524 0.320737 50.7585C0.515325 50.5646 0.778973 50.4559 1.05368 50.4564L9.23761 50.4707C9.37363 50.4709 9.50828 50.498 9.63386 50.5502C9.75944 50.6025 9.87349 50.679 9.96951 50.7754C10.0655 50.8717 10.1416 50.986 10.1935 51.1118C10.2453 51.2376 10.2719 51.3723 10.2716 51.5083L10.2555 60.7178ZM8.21248 52.6159C8.21248 52.5891 8.20181 52.5633 8.18281 52.5443C8.16382 52.5253 8.13806 52.5147 8.1112 52.5147H2.16041C2.13355 52.5147 2.10779 52.5253 2.0888 52.5443C2.06981 52.5633 2.05914 52.5891 2.05914 52.6159V59.5923C2.05914 59.6191 2.06981 59.6449 2.0888 59.6639C2.10779 59.6829 2.13355 59.6936 2.16041 59.6936H8.1112C8.13806 59.6936 8.16382 59.6829 8.18281 59.6639C8.20181 59.6449 8.21248 59.6191 8.21248 59.5923V52.6159Z" fill="#006350"/>
</svg>
