<svg width="62" height="63" viewBox="0 0 62 63" fill="none" xmlns="http://www.w3.org/2000/svg">
<rect x="0.989362" y="30.5098" width="60.0213" height="31" rx="2.96809" stroke="#006350" stroke-width="1.97872"/>
<path d="M51.7775 1.81927C51.7775 1.63713 51.9252 1.48948 52.1073 1.48948H58.0435C58.2256 1.48948 58.3733 1.63713 58.3733 1.81927V26.5533H51.7775V1.81927Z" stroke="#006350" stroke-width="1.97872"/>
<path d="M39.9064 5.77594C39.9064 5.5938 40.054 5.44615 40.2361 5.44615H46.1723C46.3544 5.44615 46.5021 5.5938 46.5021 5.77594V26.5525H39.9064V5.77594Z" stroke="#006350" stroke-width="1.97872"/>
<path d="M28.0334 10.394C28.0334 10.2118 28.181 10.0642 28.3632 10.0642H34.2993C34.4815 10.0642 34.6291 10.2118 34.6291 10.394V26.5536H28.0334V10.394Z" stroke="#006350" stroke-width="1.97872"/>
<path d="M16.1603 15.0121C16.1603 14.83 16.308 14.6824 16.4901 14.6824H22.4263C22.6084 14.6824 22.7561 14.83 22.7561 15.0121V26.5547H16.1603V15.0121Z" stroke="#006350" stroke-width="1.97872"/>
<path d="M4.28837 19.6266C4.28837 19.4444 4.43602 19.2968 4.61816 19.2968H10.5543C10.7365 19.2968 10.8841 19.4444 10.8841 19.6266V26.5521H4.28837V19.6266Z" stroke="#006350" stroke-width="1.97872"/>
<path d="M31.7857 51.8066C31.7898 52.1522 31.833 52.5688 31.6931 52.8612C31.4556 53.3604 30.6574 53.4178 30.3787 52.9176C30.2121 52.619 30.2604 52.1449 30.2656 51.7773C30.2662 51.7397 30.2484 51.7189 30.2121 51.7147C28.4605 51.5079 27.0668 50.6851 26.4816 48.9465C26.3931 48.6833 26.3647 48.4606 26.3962 48.2782C26.5217 47.5556 27.4371 47.3384 27.8896 47.9064C27.9486 47.9809 28.0131 48.1306 28.083 48.3555C28.6199 50.0805 30.8384 50.4105 32.3226 50.0533C33.0436 49.879 33.8438 49.3443 33.9261 48.5277C34.0567 47.2288 32.8698 46.8027 31.8855 46.5605C31.0592 46.3572 30.2371 46.1365 29.4191 45.8984C28.4142 45.6071 27.4381 45.0349 26.9938 44.0418C26.3859 42.6875 26.9516 41.0679 28.1787 40.2785C28.7327 39.9221 29.4064 39.7094 30.1997 39.6405C30.2354 39.637 30.2546 39.6168 30.2573 39.5799C30.2841 39.156 30.1833 38.7143 30.4126 38.4052C30.6842 38.0376 31.182 37.9969 31.5224 38.283C31.8865 38.59 31.7888 39.1622 31.7847 39.605C31.784 39.6433 31.8025 39.6645 31.8402 39.6687C33.2678 39.842 34.4342 40.5124 35.004 41.8793C35.1377 42.2009 35.2231 42.4912 35.0945 42.8201C34.8734 43.3829 34.0958 43.4947 33.7039 43.0697C33.4869 42.8337 33.4468 42.4724 33.2689 42.1904C32.5232 41.0073 30.7572 41.0094 29.597 41.3363C28.7598 41.5733 28.1468 42.5121 28.5716 43.3652C28.8873 43.999 29.9642 44.2528 30.6009 44.3979C32.8173 44.9043 35.9379 45.5089 35.5913 48.5935C35.3722 50.5514 33.6648 51.5497 31.8443 51.7408C31.8053 51.7443 31.7857 51.7662 31.7857 51.8066Z" fill="#006350"/>
</svg>
