<svg width="405" height="100" viewBox="0 0 405 100" fill="none" xmlns="http://www.w3.org/2000/svg">
<path d="M352.103 0.125465C351.82 0.20636 351.052 0.287262 350.384 0.30748C347.836 0.347931 342.78 1.33891 339.221 2.49168L337.562 3.0175L338.169 4.65565C339.908 9.36786 341.162 12.8464 341.223 13.1498C341.263 13.4127 340.778 13.6958 339.221 14.3632C330.807 17.9429 323.79 24.6572 319.745 32.9693C317.096 38.4096 315.862 43.8094 315.882 50.0789C315.882 54.4473 316.428 58.2292 317.642 61.9706L318.107 63.447L317.561 63.6694C317.257 63.7705 316.287 64.1346 315.397 64.4379C312.565 65.4289 308.197 67.0468 307.914 67.2086C307.691 67.3502 307.792 67.7749 308.5 69.4131C313.253 80.597 321.606 89.4753 332.466 94.8751C340.03 98.6368 348.139 100.315 356.957 99.9514C364.4 99.6278 370.507 98.0301 377.242 94.6527C391.48 87.4934 401.491 73.6197 404.019 57.5618C404.544 54.2652 404.544 45.8925 404.019 42.596C401.652 27.6302 393.077 14.8284 380.215 7.10276C377.485 5.46461 376.655 5.08036 373.217 3.70512C370.103 2.47146 366.179 1.33891 363.308 0.833305C359.404 0.186142 353.135 -0.218346 352.103 0.125465ZM378.961 19.945C381.954 22.3517 385.898 26.7201 385.554 27.2661C385.473 27.3875 385.493 27.4279 385.635 27.347C385.857 27.2055 387.9 30.0975 387.9 30.5627C387.9 30.7042 388.042 30.9267 388.203 31.0683C388.628 31.4121 388.588 31.6548 388.062 31.8772C387.698 32.0188 387.678 32.0592 387.961 32.0592C388.284 32.0795 388.304 32.848 388.304 45.3262C388.304 57.7033 388.284 58.573 387.961 58.755C387.617 58.9572 387.617 58.9572 387.961 58.9774C388.163 58.9774 389.134 59.2201 390.145 59.5235C391.5 59.928 391.945 60.1504 391.945 60.4134C391.945 61.0807 390.489 64.9638 389.417 67.1682C385.332 75.4803 378.233 82.2351 369.901 85.7541C362.579 88.8484 354.753 89.7382 347.25 88.3023C345.429 87.9585 341.182 86.7855 341.182 86.6237C341.182 86.4417 345.005 76.1274 345.086 76.0263C345.167 75.9656 346.056 76.1477 347.088 76.451C350.101 77.3004 351.193 77.442 354.53 77.442C359.04 77.442 362.215 76.7544 366.179 74.8533C369.375 73.3365 371.296 71.9815 373.844 69.4131C377.222 66.0356 379.244 62.7593 380.7 58.3303C382.723 52.2024 382.419 45.3464 379.891 39.4208C377.95 34.9108 375.058 31.1896 370.952 28.0347L370.305 27.5088L373.056 23.5854C375.927 19.4799 376.777 18.3271 376.898 18.3271C376.939 18.3271 377.869 19.0552 378.961 19.945ZM358.029 22.8775C359.303 23.0393 361.285 23.464 362.438 23.8078C364.602 24.455 368.364 26.1134 368.222 26.3763C367.231 28.1155 363.267 34.9917 363.004 35.4367L362.62 36.0838L361.042 35.3962C358.575 34.3243 356.937 34.0412 353.944 34.1625C351.032 34.2637 349.474 34.6681 347.047 35.9423C342.173 38.4703 338.897 43.6072 338.614 49.1688C338.391 53.3349 339.767 57.4606 342.396 60.5751L343.104 61.4043L347.088 57.4202L351.092 53.4158L351.638 53.7799C352.892 54.5888 353.58 54.7708 354.935 54.6899C355.784 54.6091 356.512 54.427 356.998 54.1439C357.908 53.5978 358.919 52.1215 359.101 51.1103C359.162 50.7058 359.242 50.2609 359.283 50.1193C359.344 49.9373 360.658 49.8766 364.966 49.8766H370.568L370.447 51.535C370.143 55.7416 367.716 60.2111 364.379 62.7391C359.728 66.2581 353.843 67.0064 348.321 64.7615C347.371 64.357 346.501 64.0941 346.4 64.1548C346.319 64.2155 346.056 64.62 345.834 65.0649C345.45 65.8132 345.025 66.1165 345.025 65.6312C345.025 65.53 345.126 65.4896 345.227 65.5503C345.349 65.6109 345.429 65.5705 345.429 65.4694C345.429 65.348 345.349 65.2469 345.247 65.2469C344.924 65.2469 344.782 65.6514 344.985 65.9143C345.126 66.0761 345.106 66.2783 344.883 66.5615C344.58 66.9659 344.58 66.9659 344.701 66.5615C344.762 66.339 344.742 66.0559 344.661 65.9547C344.58 65.8334 342.416 65.7525 338.917 65.7525C333.558 65.7525 333.295 65.7323 332.992 65.348C332.709 64.984 332.709 65.0244 332.992 65.6514L333.335 66.3592L332.81 65.7525C332.527 65.4087 332.344 65.0042 332.405 64.8424C332.486 64.5997 332.466 64.5997 332.264 64.7817C332.061 64.984 332.082 65.1053 332.284 65.348C332.425 65.5098 332.486 65.7121 332.425 65.7727C332.243 65.9547 330.646 63.3863 329.816 61.6066C327.996 57.764 327.228 54.2652 327.228 49.9373C327.228 38.9152 333.699 29.147 343.892 24.7988C348.443 22.8573 353.074 22.2303 358.029 22.8775ZM388.911 32.1604C388.911 32.221 388.83 32.3222 388.709 32.3828C388.608 32.4435 388.507 32.403 388.507 32.3019C388.507 32.1806 388.608 32.0795 388.709 32.0795C388.83 32.0795 388.911 32.1199 388.911 32.1604ZM332.911 66.3997C333.174 66.7233 333.153 66.7435 332.85 66.4806C332.648 66.339 332.486 66.1772 332.486 66.1368C332.486 65.975 332.648 66.0761 332.911 66.3997ZM344.418 66.339C344.418 66.3997 344.337 66.5008 344.216 66.5615C344.115 66.6221 344.014 66.5817 344.014 66.4806C344.014 66.3592 344.115 66.2581 344.216 66.2581C344.337 66.2581 344.418 66.2986 344.418 66.339Z" fill="#96A9B3"/>
<path d="M387.109 30.3021C387.089 30.7065 387.392 30.7874 387.615 30.4234C387.696 30.3021 387.676 30.2616 387.534 30.3425C387.433 30.4032 387.271 30.3425 387.231 30.2212C387.17 30.0594 387.109 30.0998 387.109 30.3021Z" fill="#96A9B3"/>
<path d="M387.327 31.111C387.428 31.3739 388.298 31.7379 388.298 31.5155C388.298 31.4346 388.055 31.2728 387.772 31.1312C387.428 30.9694 387.287 30.9694 387.327 31.111Z" fill="#96A9B3"/>
<path d="M387.284 58.5753C386.92 58.818 387.244 58.818 387.79 58.5753C388.053 58.454 388.093 58.3933 387.891 58.3933C387.729 58.3933 387.446 58.4742 387.284 58.5753Z" fill="#96A9B3"/>
<path d="M290.311 33.1539C287.5 34.428 287.5 38.7155 290.291 39.9896C291.423 40.4952 292.374 40.475 293.567 39.8683C296.014 38.6549 296.257 35.0347 294.012 33.5382C293.062 32.9112 291.262 32.7292 290.311 33.1539ZM293.608 34.246C295.933 35.9853 294.74 39.5649 291.828 39.5649C290.554 39.5649 289.623 38.938 289.118 37.7043C288.774 36.8751 288.754 36.6324 288.976 35.9448C289.3 34.8527 289.947 34.1449 290.918 33.8011C291.909 33.4775 292.738 33.5988 293.608 34.246Z" fill="#96A9B3"/>
<path d="M290.219 36.6296C290.219 38.4093 290.239 38.5509 290.623 38.5509C290.967 38.5509 291.028 38.4093 291.028 37.7419C291.028 37.297 291.088 36.933 291.149 36.933C291.513 36.933 292.019 37.3981 292.241 37.9442C292.443 38.4296 292.625 38.5509 293.07 38.5509H293.657L293.131 37.7622L292.605 36.9734L293.03 36.5487C294.021 35.5577 293.293 34.7083 291.473 34.7083H290.219V36.6296ZM292.342 35.8207C292.342 36.124 292.18 36.2454 291.695 36.2858C291.088 36.3465 291.028 36.306 291.028 35.8207C291.028 35.3353 291.088 35.2948 291.695 35.3555C292.18 35.396 292.342 35.5173 292.342 35.8207Z" fill="#96A9B3"/>
<path d="M197.381 38.8524V40.9759H202.336H207.291V54.1216V67.2672H209.616H211.942V54.1216V40.9759H216.897H221.852V38.8524V36.7289H209.616H197.381V38.8524Z" fill="#96A9B3"/>
<path d="M228.669 36.8705C228.588 36.9311 228.527 43.8073 228.527 52.1396V67.2672H239.853H251.178V65.2448V63.2224H242.179H233.179V58.5709V53.9193H241.066H248.954V51.8969V49.8745H241.066H233.179L233.219 45.3646L233.28 40.8748L242.138 40.8141L250.996 40.7737L250.936 38.7917L250.875 36.83L239.833 36.7693C233.765 36.7491 228.73 36.7896 228.669 36.8705Z" fill="#96A9B3"/>
<path d="M258.612 36.8705C258.531 36.9311 258.471 43.8073 258.471 52.1396V67.2672H260.796H263.122V62.8584V58.4697L265.852 55.7395C267.349 54.2429 268.603 53.0699 268.643 53.1104C268.684 53.171 271.111 56.3664 274.043 60.2292L279.362 67.2672H282.173H284.984L282.092 63.4651C280.515 61.382 277.542 57.499 275.52 54.8294C273.477 52.1598 271.819 49.8947 271.819 49.8138C271.819 49.6521 282.396 38.6299 282.982 38.185C283.164 38.0434 283.508 37.6592 283.751 37.3356L284.175 36.7289H281.465H278.755L271.111 44.8185C266.884 49.2678 263.365 52.9081 263.284 52.9081C263.203 52.9081 263.122 49.2678 263.122 44.8185V36.7289H260.938C259.725 36.7289 258.673 36.7896 258.612 36.8705Z" fill="#96A9B3"/>
<path d="M7.30088 37.2565C5.72341 37.6812 3.98414 38.6722 2.85159 39.7845C1.69882 40.9171 0.606722 42.9799 0.444929 44.3147C0.404481 44.8203 0.262913 45.2855 0.182016 45.3461C-0.0606722 45.4877 -0.0606722 58.512 0.182016 58.6536C0.262913 58.7142 0.404481 59.1794 0.444929 59.6648C0.707842 61.9501 2.79092 64.7612 5.09646 65.914C7.19976 66.9859 7.88738 67.0668 14.3186 67.0668H20.2241V65.8533V64.6399H14.622C8.55477 64.6399 7.64469 64.5185 6.00654 63.5478C4.874 62.9006 3.72123 61.6063 3.15495 60.4131C2.75047 59.5232 2.73025 59.1389 2.66957 52.4246C2.6089 46.3978 2.64935 45.2248 2.93249 44.3349C3.64033 42.1103 5.62229 40.2901 7.9885 39.6632C8.91881 39.4205 10.3952 39.3598 14.7029 39.3598H20.2241V38.1464V36.9329L14.3186 36.9532C9.80867 36.9532 8.13007 37.0341 7.30088 37.2565Z" fill="#96A9B3"/>
<path d="M33.6315 37.2341C30.2338 38.1644 27.8474 40.3688 26.8362 43.5035C26.4722 44.6361 26.4519 45.263 26.4722 52.1594C26.5126 58.9749 26.5531 59.6828 26.9171 60.7546C27.9283 63.6871 30.1125 65.6893 33.3079 66.66C34.6629 67.0645 35.1078 67.0848 39.8807 67.0241L44.9974 66.9634L46.5749 66.2151C49.2849 64.9208 51.0039 62.7973 51.6916 59.8648C52.1567 57.8424 52.0151 44.7979 51.5095 43.2811C50.6804 40.7935 48.4962 38.5284 45.9479 37.497C44.876 37.0723 44.4513 37.0521 39.7391 36.9914C35.8157 36.9509 34.4404 37.0116 33.6315 37.2341ZM45.3412 39.9239C46.8176 40.5104 48.1928 41.8451 48.9006 43.362L49.4467 44.5147V52.0987C49.4467 59.3996 49.4265 59.7232 49.022 60.5928C48.4153 61.8872 46.9187 63.3635 45.5434 63.9905L44.3907 64.5365H39.3347H34.2786L32.9641 63.9096C31.4271 63.1815 30.4361 62.231 29.6069 60.7344L29.0204 59.6828V51.9976V44.3125L29.5664 43.3013C30.4967 41.5013 32.5394 39.9643 34.4404 39.5598C34.9056 39.4587 37.292 39.398 39.7391 39.4385C43.8446 39.4587 44.2693 39.4992 45.3412 39.9239Z" fill="#96A9B3"/>
<path d="M58.459 51.9999V67.0668H59.8747H61.2904L61.2499 54.4267C61.2095 47.4697 61.2499 41.8069 61.3308 41.8272C61.4724 41.8878 62.7465 43.6878 66.6902 49.3707C67.9238 51.1504 69.4609 53.3346 70.0676 54.2245C70.6945 55.1144 71.3619 56.0649 71.544 56.348C71.7462 56.6312 73.4855 59.1592 75.4067 61.9501L78.9257 67.0668H80.119H81.3122V51.9999V36.9329H79.8965H78.4808V49.1685C78.4808 55.9031 78.4201 61.404 78.3392 61.404C78.2381 61.3838 76.8831 59.503 75.3056 57.1974C73.7282 54.8919 70.5125 50.2404 68.1463 46.8427C65.7801 43.4451 63.2723 39.825 62.5645 38.7936L61.2701 36.9329H59.8747H58.459V51.9999Z" fill="#96A9B3"/>
<path d="M86.9746 36.9734C86.9746 37.0138 87.1566 37.5801 87.3589 38.2475L87.7431 39.4609L92.6171 39.5216L97.4911 39.562V53.3144V67.0668H99.0079H100.525V53.3144V39.562H105.48H110.435L109.949 38.2879L109.484 37.034L98.2192 36.9734C92.0306 36.9531 86.9746 36.9531 86.9746 36.9734Z" fill="#96A9B3"/>
<path d="M116.695 51.9999V67.0668H118.111H119.527V62.0108V56.9547H121.549H123.571L122.419 55.7413C121.367 54.629 121.205 54.5279 120.396 54.5279H119.527V47.045V39.5621H125.27C131.985 39.5621 132.47 39.643 134.189 41.2204C135.746 42.6361 136.212 43.9911 136.191 47.045C136.171 49.8966 135.767 51.1707 134.371 52.5661C133.036 53.9414 131.742 54.3661 128.668 54.4874L126.201 54.5683L127.151 55.62C127.677 56.1862 129.74 58.3704 131.742 60.4737C133.764 62.577 135.989 64.9028 136.697 65.6713L137.971 67.0668H139.69H141.409L140.742 66.2983C140.216 65.6915 134.755 59.9277 132.43 57.5008C132.106 57.1772 131.863 56.8536 131.863 56.7727C131.863 56.6918 132.248 56.4896 132.733 56.348C137.223 55.0132 139.791 50.2606 138.962 44.8203C138.355 40.8362 135.524 37.843 131.681 37.1352C131.095 37.0138 127.475 36.9329 123.652 36.9329H116.695V51.9999Z" fill="#96A9B3"/>
<path d="M153.092 37.2565C151.232 37.7419 149.816 38.5508 148.542 39.8654C146.095 42.3327 145.812 43.5866 145.812 52.0201C145.812 58.7547 145.933 60.0288 146.782 61.8085C147.429 63.1838 149.411 65.2264 150.766 65.8938C152.849 66.9454 153.699 67.0668 158.816 67.0668C162.962 67.0668 163.73 67.0263 164.842 66.6623C167.795 65.7522 169.858 63.7702 170.93 60.7569C171.375 59.5434 171.395 59.1996 171.435 52.7077C171.456 48.9865 171.375 45.3866 171.274 44.7192C170.687 41.0384 167.593 37.8228 164.013 37.1352C162.335 36.8116 154.427 36.8925 153.092 37.2565ZM164.964 40.0474C166.44 40.7148 167.856 42.1305 168.523 43.5462C168.948 44.4967 168.968 44.699 168.968 51.9998V59.4827L168.402 60.6355C167.593 62.2737 166.036 63.6489 164.337 64.195C163.123 64.5994 162.557 64.6399 158.735 64.6399C154.993 64.6399 154.346 64.5994 153.274 64.2354C151.757 63.7096 151.191 63.3658 150.2 62.3546C148.38 60.4535 148.178 59.321 148.279 51.1707C148.36 45.2046 148.38 44.8608 148.825 43.7889C149.614 41.8474 151.697 40.1081 153.84 39.562C154.265 39.4609 156.652 39.4003 159.159 39.4205C163.71 39.4609 163.71 39.4609 164.964 40.0474Z" fill="#96A9B3"/>
<path d="M177.962 51.9999V67.0668H188.276C193.959 67.0668 198.59 67.0061 198.59 66.905C198.59 66.8241 198.226 66.2578 197.781 65.6511L196.973 64.5388L188.944 64.5185L180.894 64.4781L180.834 50.7055L180.793 36.9329H179.378H177.962V51.9999Z" fill="#96A9B3"/>
<path d="M1.57641 80.5177C0.868566 80.9221 0.605653 81.4075 0.605653 82.3581C0.605653 83.0457 0.767445 83.2884 2.22358 84.7243C3.82128 86.3017 3.96285 86.5444 3.72016 87.1714C3.51792 87.6972 2.3247 87.5759 1.85954 86.9894C1.45506 86.4838 1.45506 86.4838 0.828117 86.8276C0.484309 87.0298 0.201172 87.2725 0.201172 87.3736C0.201172 87.4747 0.524757 87.859 0.929238 88.223C1.55618 88.8297 1.77865 88.9106 2.76963 88.9106C4.58979 88.9106 5.66167 87.7174 5.31786 86.0591C5.21674 85.4928 3.3359 83.4502 2.95164 83.4704C2.72918 83.4906 2.02134 82.439 2.02134 82.0951C2.02134 81.6098 3.03254 81.5491 3.61904 81.9738L4.16509 82.3783L4.71114 81.9536L5.25718 81.5086L4.67069 80.9424C3.9224 80.2345 2.44604 80.0323 1.57641 80.5177Z" fill="#96A9B3"/>
<path d="M9.29934 80.6592C8.22746 81.2457 7.19603 82.6412 6.99379 83.8142C6.81178 85.0681 7.19603 86.5242 7.98477 87.4545C8.91508 88.5264 9.78471 88.9106 11.3622 88.9106C12.879 88.9106 13.8902 88.4253 14.8407 87.232C15.407 86.5242 15.4677 86.2815 15.5283 84.8052C15.589 83.2479 15.5688 83.0861 14.9823 82.2367C14.052 80.8615 13.1419 80.3356 11.5442 80.2547C10.4319 80.1941 10.0476 80.275 9.29934 80.6592ZM12.8588 82.1356C14.1531 82.985 14.5374 84.8456 13.6677 86.1399C13.4048 86.5242 13.243 86.9287 13.3037 87.0298C13.3846 87.1107 13.3644 87.1309 13.2633 87.05C13.1621 86.9691 12.8992 87.0298 12.6565 87.1916C12.4341 87.3534 11.8476 87.495 11.342 87.495C8.30836 87.495 7.37805 83.3895 10.1083 81.9738C10.9173 81.5491 12.07 81.6098 12.8588 82.1356Z" fill="#96A9B3"/>
<path d="M42.2724 80.5379C41.3421 80.9424 40.5129 81.7513 40.0073 82.7221C39.4006 83.9153 39.5422 85.9377 40.3511 87.0703C41.2006 88.3241 42.3331 88.9106 43.8701 88.9106C45.4476 88.9106 46.2161 88.5871 47.1667 87.5354C49.7351 84.704 47.7734 80.2143 43.9915 80.2345C43.4454 80.2345 42.6567 80.3761 42.2724 80.5379ZM45.306 82.0749C46.3375 82.7828 46.7622 83.4704 46.7622 84.4816C46.8026 86.3826 45.569 87.5759 43.7286 87.4343C40.068 87.1714 40.3309 81.6907 44.0117 81.63C44.3555 81.63 44.942 81.8322 45.306 82.0749Z" fill="#96A9B3"/>
<path d="M60.1754 80.4357C59.4474 80.8604 59.0631 81.5076 59.0631 82.3368C59.0631 83.0851 59.1845 83.2671 60.5597 84.5817C62.3394 86.3007 62.5821 86.685 62.2181 87.1906C61.8338 87.7366 60.8833 87.6355 60.3372 87.0086C59.8519 86.4423 59.8923 86.4221 58.6991 87.2108C58.4968 87.3321 59.1642 88.1816 59.7305 88.5051C60.6204 89.0512 62.2787 89.0512 62.9664 88.5051C63.6135 87.9995 63.9978 86.8872 63.8158 86.0782C63.6944 85.4918 61.6518 83.2469 61.2473 83.2469C61.1664 83.2469 60.944 83.0244 60.7619 82.7413C60.499 82.3368 60.4788 82.175 60.681 81.9323C61.0248 81.5278 61.5305 81.5481 62.1372 82.0132C62.6225 82.3975 62.6428 82.3975 63.1888 81.9728L63.7349 81.5278L63.1282 80.9413C62.4405 80.2942 60.9035 80.011 60.1754 80.4357Z" fill="#96A9B3"/>
<path d="M117.329 80.6396C114.478 82.0552 114.033 85.7562 116.439 87.9404C117.37 88.7696 118.199 89.0123 119.837 88.8708C124.084 88.5067 124.974 82.6013 121.091 80.5991C120.06 80.0733 118.442 80.0935 117.329 80.6396ZM121.03 82.3182C122.426 83.39 122.486 85.3922 121.131 86.727C120.464 87.4146 120.262 87.4955 119.392 87.4955C117.592 87.4955 116.439 86.3427 116.439 84.5226C116.439 83.3294 117.107 82.3586 118.3 81.7923C118.907 81.489 120.302 81.7721 121.03 82.3182Z" fill="#96A9B3"/>
<path d="M139.316 80.6795C136.929 81.9536 136.221 84.8052 137.738 87.1916C138.507 88.405 139.558 88.8904 141.419 88.9106C142.855 88.9106 143.947 88.5264 144.635 87.7579C144.978 87.3736 144.978 87.3332 144.513 86.9085L144.028 86.4433L143.259 86.9691C141.763 87.9803 139.579 87.5354 138.83 86.0591C137.738 83.976 139.336 81.4682 141.621 81.6907C142.228 81.7311 142.855 81.9738 143.34 82.3176L144.089 82.8434L144.574 82.3581C145.019 81.9131 145.039 81.812 144.776 81.5086C144.614 81.3266 144.048 80.9424 143.482 80.6997C142.107 80.0525 140.529 80.0525 139.316 80.6795Z" fill="#96A9B3"/>
<path d="M175.045 80.5975C172.78 81.6289 171.89 84.3389 173.043 86.6647C173.832 88.2219 174.782 88.7882 176.744 88.8691C178.18 88.9298 178.342 88.8893 179.252 88.3231C181.557 86.8467 181.881 83.267 179.879 81.3862C178.625 80.2132 176.603 79.8896 175.045 80.5975ZM178.544 82.2154C180 83.2468 180.122 85.4108 178.787 86.7254C178.119 87.413 177.917 87.4939 177.047 87.4939C175.248 87.4939 174.054 86.3613 174.054 84.6827C174.054 82.2154 176.603 80.8199 178.544 82.2154Z" fill="#96A9B3"/>
<path d="M17.5908 84.6039V88.8105H19.5121H21.4334V88.042V87.2937H20.3211H19.2087V83.8557V80.4176H18.3998H17.5908V84.6039Z" fill="#96A9B3"/>
<path d="M23.0537 83.2884C23.0739 86.6254 23.2357 87.5557 23.9436 88.2635C24.611 88.9309 26.4918 89.1332 27.4626 88.6276C28.5749 88.0613 28.7164 87.495 28.7164 83.7536V80.4166H28.0086H27.3008V83.3895C27.3008 86.8479 27.139 87.3535 26.1075 87.4546C25.6828 87.495 25.2986 87.3939 25.0559 87.1714C24.7121 86.8681 24.6716 86.5243 24.6716 83.612V80.4166H23.8627H23.0537V83.2884Z" fill="#96A9B3"/>
<path d="M30.3438 81.1206C30.3438 81.788 30.3842 81.8284 31.0516 81.8284H31.7594V85.3069V88.8057H32.5684L33.3774 88.8259V85.3272V81.8284H34.0852C34.7526 81.8284 34.793 81.788 34.793 81.1206V80.4127H32.5684H30.3438V81.1206Z" fill="#96A9B3"/>
<path d="M36.2485 84.5799L36.3091 88.746L37.0776 88.8067L37.8259 88.8472V84.6203V80.4137H37.017H36.208L36.2485 84.5799Z" fill="#96A9B3"/>
<path d="M50.4057 84.5827L50.4664 88.7691L51.1337 88.8297L51.7809 88.9106V86.1804C51.7809 84.6838 51.8416 83.4502 51.9427 83.4502C52.0236 83.4704 52.8123 84.6029 53.682 85.9984C54.5718 87.3938 55.3606 88.5668 55.4617 88.6275C55.5426 88.6882 55.9471 88.7691 56.3313 88.7893L57.0392 88.8702V84.6434V80.4165H56.21H55.3808L55.4617 83.1468C55.4819 84.6434 55.4819 85.877 55.4212 85.877C55.3606 85.877 54.5314 84.6434 53.5606 83.1468C51.8416 80.4772 51.7809 80.4165 51.0731 80.4165H50.3652L50.4057 84.5827Z" fill="#96A9B3"/>
<path d="M68.5576 81.1206C68.5576 81.8082 68.5778 81.8284 69.3666 81.8284H70.1755V85.3272V88.8259H70.8834H71.5912V85.3272V81.8284H72.4002C73.1889 81.8284 73.2092 81.8082 73.2092 81.1206V80.4127H70.8834H68.5576V81.1206Z" fill="#96A9B3"/>
<path d="M74.8232 84.6193V88.8259L75.5311 88.8057H76.2389V86.9249V85.0643H77.7557H79.2725V86.9451V88.8259L79.9804 88.8057H80.6882V84.5991V80.4127H79.9804H79.2725V82.0306V83.6486H77.7557H76.2389V82.0306V80.4127H75.5311H74.8232V84.6193Z" fill="#96A9B3"/>
<path d="M85.5695 80.8576C84.2549 84.2148 82.5156 88.7046 82.5156 88.745C82.5156 88.7855 82.8392 88.8259 83.2639 88.8259C83.9313 88.8259 84.0324 88.745 84.3762 87.9563L84.7605 87.0867H86.5604H88.3402L88.5828 87.7945C88.7042 88.1788 88.9469 88.5832 89.1289 88.6641C89.4323 88.8462 90.403 88.745 90.403 88.5428C90.403 88.4619 89.048 84.8822 87.4705 80.7565C87.3694 80.5138 87.1065 80.4127 86.5402 80.4127C85.893 80.4127 85.711 80.4936 85.5695 80.8576ZM87.2278 84.1946C87.511 84.8822 87.6728 85.489 87.6121 85.5496C87.4503 85.7114 85.347 85.6912 85.347 85.5294C85.347 85.1451 86.4795 82.6778 86.6009 82.7992C86.6616 82.8801 86.9447 83.507 87.2278 84.1946Z" fill="#96A9B3"/>
<path d="M91.4102 81.1052C91.4102 81.7726 91.4506 81.813 92.1787 81.8737L92.927 81.9344L93.0281 85.3725L93.1292 88.8105H93.7966H94.4438V85.332V81.8332H95.2527C96.0415 81.8332 96.0617 81.813 96.0617 81.1254V80.4176H93.7359H91.4102V81.1052Z" fill="#96A9B3"/>
<path d="M101.11 84.6029V88.8095L101.818 88.85L102.526 88.9106L102.546 87.2927C102.566 86.4029 102.587 85.5535 102.607 85.4119C102.627 85.2703 103.072 85.1287 103.78 85.0681C105.661 84.9063 106.49 83.6726 105.924 81.9131C105.56 80.8008 104.71 80.4165 102.688 80.4165H101.11V84.6029ZM104.164 82.0345C104.589 82.2772 104.67 83.0457 104.306 83.4097C104.164 83.5513 103.719 83.6524 103.295 83.6524H102.546L102.607 82.7828C102.647 82.3176 102.688 81.9131 102.708 81.8727C102.769 81.7513 103.82 81.8525 104.164 82.0345Z" fill="#96A9B3"/>
<path d="M108.2 84.6406V88.8472L108.665 88.8067C108.908 88.7865 109.252 88.746 109.414 88.7258C109.656 88.7056 109.697 88.4022 109.656 87.0068C109.616 86.0158 109.656 85.2675 109.778 85.1866C109.899 85.1259 110.223 85.5304 110.506 86.1169C111.598 88.4225 111.881 88.7663 112.71 88.8067C113.115 88.8067 113.458 88.7865 113.458 88.7258C113.458 88.6854 113.054 87.8764 112.548 86.9461C111.557 85.1462 111.476 84.863 111.921 84.863C112.083 84.863 112.407 84.6203 112.629 84.3372C113.094 83.7305 113.216 82.1126 112.832 81.3845C112.488 80.7575 111.396 80.4137 109.717 80.4137H108.2V84.6406ZM111.254 82.0317C111.679 82.2744 111.78 83.0833 111.396 83.4069C111.254 83.508 110.809 83.6496 110.425 83.69C109.737 83.7507 109.717 83.7305 109.697 82.9417C109.677 82.4968 109.697 82.0721 109.757 81.971C109.879 81.7687 110.789 81.789 111.254 82.0317Z" fill="#96A9B3"/>
<path d="M124.787 81.1254C124.787 81.7928 124.828 81.8332 125.495 81.8332H126.203V85.3118V88.8105H127.012H127.821V85.332V81.8332H128.63C129.418 81.8332 129.439 81.813 129.439 81.1254V80.4176H127.113H124.787V81.1254Z" fill="#96A9B3"/>
<path d="M130.852 84.6039V88.8105H133.076H135.301V88.0623V87.314L133.845 87.2533L132.368 87.1926V86.0803V84.968L133.885 84.8669L135.402 84.7657V84.159V83.5523L133.865 83.4916L132.328 83.4309L132.368 82.6827L132.389 81.9344L133.966 81.8737C135.281 81.8332 135.523 81.7726 135.422 81.5097C135.362 81.3276 135.301 81.0243 135.301 80.8018C135.301 80.4378 135.139 80.4176 133.076 80.4176H130.852V84.6039Z" fill="#96A9B3"/>
<path d="M146.013 81.1216C146.013 81.8092 146.033 81.8294 146.822 81.8294H147.631V85.308V88.8067L148.338 88.8269L149.046 88.8472V85.3484V81.8294H149.855C150.644 81.8294 150.664 81.8092 150.664 81.1216V80.4137H148.338H146.013V81.1216Z" fill="#96A9B3"/>
<path d="M159.436 80.7189C159.497 80.9009 159.558 82.8222 159.558 84.9659V88.8894L160.266 88.849L160.973 88.8085V86.9277V85.0671H162.005C162.915 85.0671 163.117 84.9862 163.744 84.3592C164.412 83.6918 164.452 83.5705 164.371 82.6199C164.29 81.8514 164.128 81.4469 163.724 81.0627C163.239 80.5571 163.036 80.5166 161.236 80.4357C159.477 80.3751 159.315 80.4155 159.436 80.7189ZM162.551 82.1548C163.421 82.7615 163.016 83.5503 161.782 83.6918L161.075 83.7525L161.014 82.7817C160.953 81.8514 160.973 81.8312 161.519 81.8312C161.843 81.8312 162.308 81.9728 162.551 82.1548Z" fill="#96A9B3"/>
<path d="M166.436 84.6039V88.8105H168.66H170.885V88.042V87.2937H169.368H167.831L167.892 86.1207L167.952 84.968L169.429 84.9073L170.885 84.8466V84.159V83.4512H169.348H167.831L167.892 82.6827L167.952 81.9344L169.429 81.8737L170.885 81.813V81.1254V80.4176H168.66H166.436V84.6039Z" fill="#96A9B3"/>
<path d="M183.224 84.5991V88.8057H183.931L184.639 88.8259V86.9451V85.0643H185.549C187.208 85.0643 188.077 84.2755 188.077 82.7587C188.077 81.0599 187.167 80.4127 184.761 80.4127H183.224V84.5991ZM186.338 82.152C186.722 82.5362 186.763 83.1227 186.419 83.4059C186.277 83.507 185.833 83.6486 185.448 83.689L184.74 83.7497L184.68 82.7789L184.619 81.8284H185.327C185.711 81.8284 186.176 81.97 186.338 82.152Z" fill="#96A9B3"/>
<path d="M190.113 84.6039V88.8105H192.035H193.956V88.042V87.2937H192.844H191.731V83.8557V80.4176H190.922H190.113V84.6039Z" fill="#96A9B3"/>
<path d="M195.775 84.5587V88.7046L197.353 88.7248C198.202 88.7248 199.213 88.7451 199.578 88.7653C200.204 88.8057 200.225 88.7653 200.225 88.0372V87.2889H198.708H197.191V86.0755V84.862H198.708H200.225V84.1542V83.4464H198.708H197.191V82.6374V81.8284H198.708H200.225V81.1206V80.4127H198H195.775V84.5587Z" fill="#96A9B3"/>
<path d="M204.873 81.1229C204.873 81.8105 204.893 81.8307 205.682 81.8307H206.491V85.3902C206.491 88.5653 206.531 88.9294 206.815 88.8282C206.997 88.7676 207.3 88.7069 207.522 88.7069C207.866 88.7069 207.907 88.4844 207.947 85.3093L208.008 81.9318L208.776 81.8712C209.484 81.8105 209.525 81.77 209.525 81.1027V80.415H207.199H204.873V81.1229Z" fill="#96A9B3"/>
<path d="M211.137 84.6231V88.8297L211.845 88.7489L212.552 88.668V86.868V85.0681H214.069H215.586V86.9894V88.9106L216.294 88.85L217.002 88.8095V84.6029V80.4165H216.294H215.586V82.0345V83.6524H214.069H212.552V82.0345V80.4165H211.845H211.137V84.6231Z" fill="#96A9B3"/>
<path d="M221.965 80.5947C221.864 80.7768 218.83 88.6844 218.83 88.7855C218.83 88.8259 219.963 88.7855 220.266 88.7248C220.347 88.7046 220.549 88.3406 220.731 87.8956L221.055 87.0867H222.834H224.614L224.998 87.9361C225.362 88.7046 225.484 88.7855 226.151 88.8057L226.879 88.8259L226.637 88.199C226.495 87.8754 225.767 85.9743 224.998 83.9924L223.623 80.4127H222.855C222.43 80.4127 222.046 80.4936 221.965 80.5947ZM223.502 84.0531C223.805 84.8216 223.987 85.5092 223.927 85.5699C223.866 85.6305 223.32 85.671 222.713 85.671C221.924 85.671 221.641 85.6103 221.722 85.4081C221.763 85.2867 222.005 84.5991 222.268 83.8913C222.511 83.2036 222.774 82.6374 222.855 82.6374C222.915 82.6374 223.219 83.2845 223.502 84.0531Z" fill="#96A9B3"/>
<path d="M227.726 81.1254C227.726 81.7928 227.766 81.8332 228.433 81.8332H229.141L229.182 85.2916L229.242 88.7701L230.011 88.7903L230.759 88.8105V85.3118V81.8332H231.568C232.357 81.8332 232.377 81.813 232.377 81.1254V80.4176H230.051H227.726V81.1254Z" fill="#96A9B3"/>
<path d="M237.424 84.6039V88.8105L239.466 88.7499C240.741 88.7297 241.711 88.5881 242.075 88.4061C243.451 87.6982 244.219 85.9994 244.037 84.1388C243.916 82.9456 243.552 82.1568 242.783 81.3681C242.055 80.6603 241.145 80.4176 239.102 80.4176H237.424V84.6039ZM241.55 82.3388C242.541 83.0062 242.884 84.9275 242.197 86.2421C241.792 87.0106 241.186 87.2937 239.952 87.2937H239.062L239.001 84.6444C238.961 83.1883 238.981 81.9546 239.042 81.8939C239.244 81.6917 241.044 82.0153 241.55 82.3388Z" fill="#96A9B3"/>
<path d="M246.119 84.6039V88.8105H248.344H250.568V88.042V87.2937H249.052H247.515L247.575 86.1207L247.636 84.968L249.112 84.9073L250.568 84.8466V84.159V83.4512H249.052H247.535V82.6422V81.8332H249.052H250.568V81.1254V80.4176H248.344H246.119V84.6039Z" fill="#96A9B3"/>
<path d="M252.607 84.6039V88.8105H254.529H256.45V88.042V87.2937H255.237H254.023V83.8557V80.4176H253.315H252.607V84.6039Z" fill="#96A9B3"/>
<path d="M258.069 84.6203V88.8472L258.777 88.8269L259.485 88.8067V84.6001V80.4137H258.777H258.069V84.6203Z" fill="#96A9B3"/>
<path d="M262.149 83.2888C262.695 84.8865 263.362 86.7673 263.625 87.4954C264.05 88.7897 264.09 88.8099 264.798 88.8099C265.283 88.8302 265.587 88.7088 265.668 88.5066C265.728 88.3448 266.355 86.6055 267.063 84.664C267.771 82.7225 268.398 80.963 268.479 80.7608C268.6 80.4776 268.499 80.417 267.811 80.417C267.225 80.417 266.982 80.5181 266.901 80.7608C266.578 81.8933 265.061 85.9988 264.919 86.1606C264.818 86.2819 264.717 86.2415 264.656 86.0595C264.596 85.8977 264.131 84.5629 263.605 83.0865L262.674 80.417H261.886H261.117L262.149 83.2888Z" fill="#96A9B3"/>
<path d="M270.399 84.6039V88.8105H272.624H274.849V88.042V87.2937H273.332H271.795L271.856 86.1207L271.916 84.968L273.393 84.9073L274.849 84.8466V84.159V83.4512H273.332H271.815V82.6422V81.8332H273.332H274.849V81.1254V80.4176H272.624H270.399V84.6039Z" fill="#96A9B3"/>
<path d="M276.895 84.5599L276.955 88.7058L277.42 88.726C277.683 88.7463 278.007 88.7665 278.149 88.7867C278.31 88.8069 278.411 88.2609 278.492 86.8856L278.593 84.9644L279.483 86.6834C279.969 87.6339 280.434 88.4833 280.515 88.5642C280.677 88.7463 282.133 88.8878 282.133 88.726C282.133 88.6654 281.728 87.8362 281.223 86.8654C280.211 84.9037 280.191 84.8632 280.575 84.8632C281 84.8632 281.708 83.9936 281.85 83.306C282.032 82.3757 281.587 81.2634 280.838 80.7982C280.353 80.4948 279.827 80.4139 278.533 80.4139H276.834L276.895 84.5599ZM280.191 82.2746C280.373 82.5172 280.515 82.8004 280.515 82.8813C280.515 83.2453 279.807 83.6498 279.18 83.6498C278.492 83.6498 278.492 83.6498 278.492 82.7397C278.492 81.8296 278.492 81.8296 279.18 81.8296C279.686 81.8296 279.969 81.9712 280.191 82.2746Z" fill="#96A9B3"/>
<path d="M152.177 87.5769C152.116 87.7387 152.096 88.0825 152.136 88.3454C152.177 88.7094 152.318 88.8105 152.783 88.8105C153.512 88.8105 153.916 88.2645 153.592 87.7387C153.309 87.2937 152.339 87.1724 152.177 87.5769Z" fill="#96A9B3"/>
<path d="M283.956 87.6972C283.653 88.2635 284.037 88.9106 284.664 88.9106C285.291 88.9106 285.675 88.2635 285.372 87.6972C285.251 87.4545 284.947 87.2927 284.664 87.2927C284.381 87.2927 284.078 87.4545 283.956 87.6972Z" fill="#96A9B3"/>
</svg>
