<svg width="51" height="28" viewBox="0 0 51 28" fill="none" xmlns="http://www.w3.org/2000/svg">
<path d="M21.7344 12.6881C24.5896 12.7024 27.0833 12.7038 29.2155 12.6923C29.6917 12.6895 30.1399 12.838 30.3832 13.2627C30.6943 13.8055 30.5007 14.5776 29.893 14.8373C29.5833 14.9699 29.0805 14.9616 28.7225 14.9609C26.3913 14.9554 24.0601 14.9547 21.7288 14.9589C21.7209 14.9589 21.7132 14.962 21.7076 14.9676C21.7019 14.9731 21.6988 14.9807 21.6988 14.9886V16.903C21.6988 16.9123 21.7025 16.9213 21.709 16.9279C21.7156 16.9345 21.7245 16.9382 21.7337 16.9382C24.1992 16.9354 26.6631 16.9368 29.1253 16.9423C29.4838 16.9432 29.7497 16.9764 29.9231 17.0418C30.3823 17.2149 30.6041 17.5595 30.5888 18.0756C30.5629 18.941 29.942 19.2034 29.163 19.2013C26.6906 19.1949 24.2179 19.1912 21.7449 19.1903C21.7142 19.1903 21.6988 19.2055 21.6988 19.2359V21.1316C21.6988 21.1555 21.7109 21.1675 21.7351 21.1675C24.2151 21.1698 26.6941 21.1703 29.1721 21.1689C29.5516 21.1684 29.8198 21.2027 29.9769 21.2718C30.4147 21.4645 30.6202 21.8789 30.5888 22.3533C30.5417 23.0637 30.1131 23.4187 29.3029 23.4182C26.774 23.4164 24.2451 23.4162 21.7163 23.4175C21.6944 23.4175 21.6834 23.4284 21.6834 23.45V25.3285C21.6834 25.3547 21.6967 25.3679 21.7233 25.3679C24.2684 25.3692 26.8108 25.3672 29.3539 25.3893C30.0315 25.3948 30.5706 25.7173 30.5909 26.4404C30.6132 27.2608 30.1007 27.6282 29.3267 27.6276C25.2306 27.6225 22.35 27.6259 20.6849 27.6379C19.4606 27.6469 19.4137 26.9024 19.413 25.881C19.4116 17.815 19.4118 9.74885 19.4137 1.68244C19.4137 0.940028 19.4382 0.316399 20.1619 0.0753736C20.318 0.0233471 20.5875 -0.00174721 20.9702 9.4437e-05C23.7895 0.0143672 26.6076 0.0215034 29.4245 0.0215034C29.6492 0.0215034 29.862 0.092408 30.0629 0.234215C30.8006 0.75494 30.6342 1.93935 29.7497 2.21214C29.6369 2.24667 29.4651 2.26417 29.2344 2.26463C26.7372 2.26924 24.24 2.26509 21.7428 2.2522C21.7135 2.25174 21.6988 2.26624 21.6988 2.29571V4.21769C21.6988 4.24624 21.7135 4.26051 21.7428 4.26051C24.2992 4.26235 26.854 4.2635 29.4071 4.26397C30.6559 4.26397 30.9538 6.01261 29.8336 6.42422C29.6933 6.47578 29.4642 6.50111 29.1463 6.50018C26.6747 6.4919 24.2053 6.48269 21.7379 6.47256C21.7274 6.47256 21.7172 6.47671 21.7098 6.48409C21.7023 6.49147 21.6981 6.50149 21.6981 6.51193L21.6988 8.44497C21.6988 8.45394 21.7024 8.46255 21.7088 8.46889C21.7152 8.47524 21.724 8.4788 21.733 8.4788C24.1528 8.4788 26.5743 8.4788 28.9973 8.4788C29.4481 8.47927 29.7634 8.51472 29.9434 8.58516C30.7943 8.92011 30.8272 10.2461 29.9811 10.6156C29.8105 10.6902 29.6019 10.727 29.3553 10.7261C26.8311 10.7159 24.2906 10.7097 21.7337 10.7074C21.7245 10.7074 21.7156 10.7111 21.709 10.7175C21.7025 10.724 21.6988 10.7328 21.6988 10.742L21.6995 12.6543C21.6995 12.6768 21.7111 12.6881 21.7344 12.6881Z" fill="#282420"/>
<path d="M6.48107 6.44652C6.81947 6.64937 7.03132 6.78345 7.11663 6.84877C7.9261 7.46974 8.30291 8.43155 8.21242 9.43131C8.09365 10.7333 7.10532 12.0118 5.75361 12.2912C4.81123 12.4858 3.6815 12.4692 2.66489 12.4948C2.10404 12.5086 1.64003 12.5042 1.27289 12.4816C1.09261 12.4706 0.93213 12.4803 0.757511 12.4879C0.261224 12.5092 0.0661024 12.1167 0.0569119 11.6916C-0.01944 8.22893 -0.0189673 4.76623 0.0583272 1.30353C0.0696386 0.803303 0.0653972 0.335509 0.73701 0.330679C1.93413 0.32148 3.13054 0.344935 4.32625 0.401053C5.10721 0.437391 5.79131 0.548015 6.37856 0.732925C7.46445 1.07446 7.93529 2.0825 8.14031 3.09054C8.37714 4.25313 7.95296 5.34396 6.99362 6.07256C6.85223 6.17951 6.65498 6.28783 6.48036 6.39477C6.45209 6.41225 6.45232 6.4295 6.48107 6.44652ZM5.11239 2.887C4.79002 2.66621 4.41179 2.63447 4.00812 2.62205C3.56226 2.60871 3.1329 2.61285 2.72004 2.63447C2.64081 2.63852 2.56619 2.67211 2.51149 2.72831C2.4568 2.78451 2.42618 2.85907 2.42594 2.93667L2.41958 5.21908C2.41957 5.23165 2.42459 5.24373 2.43357 5.25275C2.44255 5.26177 2.45477 5.26701 2.46765 5.26737C3.18828 5.28669 3.91103 5.28531 4.6359 5.26323C4.86449 5.25633 5.04123 5.22 5.16612 5.15422C6.01518 4.70712 5.82218 3.37411 5.11239 2.887ZM2.4217 9.7342C2.4521 9.95982 2.56804 10.0288 2.78649 10.0357C3.17343 10.0481 3.72133 10.0336 4.43018 9.99225C5.11522 9.95223 5.65675 9.59552 5.71543 8.91522C5.77482 8.23698 5.39942 7.63602 4.65994 7.60014C4.09343 7.57209 3.35937 7.56978 2.45775 7.59324C2.43372 7.5937 2.4217 7.60543 2.4217 7.62843L2.41534 9.63209C2.41534 9.66613 2.41746 9.70017 2.4217 9.7342Z" fill="#282420"/>
<path d="M12.6289 9.929C14.053 9.93724 15.477 9.93564 16.901 9.92419C17.3928 9.92076 17.4381 10.2427 17.4367 10.6711C17.4354 11.0812 17.4343 11.4912 17.4334 11.9013C17.432 12.2851 17.3158 12.502 16.9213 12.5027C14.923 12.5041 12.925 12.5036 10.9272 12.5013C10.4841 12.5013 10.2003 12.3702 10.199 11.889C10.1954 10.6565 10.2048 9.42465 10.2274 8.19352C10.2686 5.91708 10.2611 3.60082 10.2848 2.27244C10.2915 1.89761 10.2882 1.57633 10.2746 1.3086C10.2593 1.0015 10.2717 0.797608 10.3118 0.696921C10.4611 0.321405 10.8198 0.350925 11.238 0.337195C11.5492 0.326211 11.861 0.327125 12.1736 0.339939C12.6688 0.359848 12.6269 0.830103 12.6201 1.22553C12.5724 4.11341 12.5623 7.00153 12.5897 9.88987C12.5902 9.91596 12.6032 9.929 12.6289 9.929Z" fill="#282420"/>
<path d="M38.3264 7.46351C38.3282 7.46445 38.3302 7.4649 38.3323 7.4648C38.3343 7.4647 38.3363 7.46407 38.338 7.46295C38.3398 7.46183 38.3413 7.46027 38.3423 7.45842C38.3433 7.45656 38.3439 7.45448 38.344 7.45235C38.3426 5.77696 38.355 4.09971 38.3811 2.4206C38.3919 1.7207 38.3882 1.25038 38.3699 1.00964C38.3363 0.56349 38.5347 0.415005 38.9639 0.373876C39.5132 0.32043 39.997 0.32438 40.4154 0.385725C40.7303 0.431735 40.785 0.712673 40.7878 1.00616C40.8121 3.15187 40.7962 5.6624 40.7401 8.53776C40.7289 9.11032 40.7216 10.3825 40.7184 12.3544C40.717 13.0265 39.9463 12.7532 39.5178 12.8152C38.9372 12.8994 38.4905 12.6737 38.1778 12.1383C36.9403 10.0168 35.6884 7.90315 34.422 5.79741C34.4089 5.77603 34.3925 5.76743 34.3729 5.77161C34.3637 5.77354 34.3555 5.77854 34.3496 5.78578C34.3438 5.79302 34.3406 5.80205 34.3406 5.81135C34.3439 7.96031 34.3446 10.1067 34.3427 12.2506C34.3427 12.917 33.9451 12.8145 33.3933 12.8173C33.0632 12.8187 32.7334 12.8106 32.4038 12.7929C31.988 12.7713 31.9031 12.5162 31.9165 12.1362C31.951 11.1496 31.9686 10.5136 31.969 10.2283C31.9779 7.14934 31.9852 4.07066 31.9908 0.992214C31.9913 0.626462 32.1682 0.422672 32.5216 0.380845C33.0447 0.318802 33.8294 0.233755 34.2214 0.660388C34.2798 0.724057 34.4058 0.924594 34.5994 1.262C35.7602 3.2892 36.9443 5.30292 38.1518 7.30317C38.1944 7.37334 38.2526 7.42679 38.3264 7.46351Z" fill="#282420"/>
<path d="M47.8351 0.458319C48.9999 0.534009 49.8523 1.03512 50.3923 1.96164C50.5779 2.28082 50.7171 2.68024 50.8099 3.15991C50.943 3.85161 51.0062 4.60168 50.9994 5.4101C50.9876 6.8391 50.939 8.0848 50.8534 9.14719C50.8181 9.58903 50.7531 9.94194 50.6585 10.2059C50.1798 11.5403 48.9154 12.4637 47.4868 12.4787C46.2084 12.4924 44.9298 12.5006 43.6509 12.5033C43.4411 12.504 43.2897 12.4896 43.1342 12.3358C42.8592 12.0635 42.7743 11.803 42.7743 11.3926C42.7752 8.09004 42.7754 4.78771 42.775 1.48561C42.775 0.991116 42.7885 0.636148 43.2129 0.417969C43.3252 0.359605 43.487 0.330193 43.6985 0.329737C45.0787 0.325633 46.4576 0.368494 47.8351 0.458319ZM47.1744 2.66542C46.6679 2.63487 46.1314 2.61048 45.5651 2.59224C45.5331 2.59114 45.5013 2.59653 45.4714 2.6081C45.4415 2.61967 45.4143 2.63718 45.3913 2.65958C45.3683 2.68198 45.35 2.70882 45.3375 2.7385C45.325 2.76817 45.3186 2.80008 45.3186 2.8323C45.3177 5.09344 45.3179 7.37896 45.3193 9.68888C45.3193 9.69207 45.317 9.73448 45.3125 9.81609C45.3016 10.0012 45.3929 10.0885 45.5862 10.078C46.0479 10.0534 46.5099 10.0283 46.9721 10.0028C47.5567 9.97066 47.9682 9.89338 48.267 9.40983C48.3548 9.26666 48.4189 9.05326 48.4591 8.76965C48.527 8.2877 48.5621 7.93113 48.5644 7.69996C48.5757 6.53862 48.5433 5.37773 48.4673 4.2173C48.4406 3.81012 48.384 3.5183 48.2975 3.34185C48.0925 2.92418 47.7181 2.69871 47.1744 2.66542Z" fill="#282420"/>
<path d="M43.5235 27.6376C42.9264 27.6444 42.7775 27.1433 42.7768 26.6264C42.7732 23.2706 42.7735 19.9148 42.7775 16.559C42.7779 16.2524 42.8106 16.0325 42.8756 15.8991C43.094 15.4516 43.4427 15.4977 43.9402 15.4894C45.0546 15.4706 45.7937 15.4622 46.1575 15.464C48.1484 15.4764 49.8961 15.9266 50.4859 18.107C50.5335 18.283 50.5778 18.5655 50.6188 18.9545C50.6464 19.2153 50.6622 19.5008 50.6662 19.811C50.6826 21.139 50.6557 22.4661 50.5854 23.7923C50.552 24.4128 50.4952 24.866 50.4151 25.152C50.0598 26.4126 48.9692 27.3846 47.6862 27.5688C47.5437 27.5894 47.147 27.6025 46.4961 27.608C45.5054 27.6162 44.5146 27.6261 43.5235 27.6376ZM47.2 17.8836C46.57 17.8052 45.9442 17.7624 45.3227 17.755C45.3104 17.755 45.2987 17.76 45.2901 17.7689C45.2814 17.7778 45.2766 17.7899 45.2766 17.8025V25.1128C45.2766 25.1238 45.2787 25.1346 45.2829 25.1447C45.2872 25.1548 45.2933 25.1639 45.3011 25.1714C45.3089 25.179 45.318 25.1848 45.3281 25.1885C45.3381 25.1923 45.3488 25.1939 45.3594 25.1932C45.9253 25.1643 46.4469 25.1417 46.9242 25.1252C47.694 25.099 48.1225 24.6969 48.2098 23.9188C48.318 22.9597 48.3616 22.0856 48.3407 21.2964C48.3349 21.0751 48.3144 20.6583 48.2793 20.0461C48.2468 19.4742 48.2056 19.0588 48.1557 18.7999C48.0511 18.255 47.7325 17.9496 47.2 17.8836Z" fill="#282420"/>
<path d="M34.4034 20.8625C34.3808 20.8405 34.3695 20.8452 34.3695 20.8766C34.3681 23.0311 34.3629 25.188 34.354 27.3473C34.3525 27.6959 34.2882 27.9426 33.8953 27.9518C33.1293 27.9696 32.6106 27.9572 32.3392 27.9145C32.0533 27.8695 31.9119 27.6833 31.9152 27.3557C31.9487 23.8418 31.9675 20.3276 31.9718 16.8132C31.9718 16.6876 31.9762 16.5468 31.9852 16.3908C32.0106 15.9269 31.993 15.5824 32.571 15.5185C33.142 15.4552 33.9561 15.3463 34.2904 15.8896C35.6354 18.0784 36.9352 20.28 38.1898 22.4946C38.199 22.5104 38.2132 22.5228 38.2302 22.5299C38.2472 22.537 38.266 22.5383 38.2838 22.5336C38.3017 22.529 38.3175 22.5187 38.3288 22.5043C38.3402 22.4899 38.3464 22.4721 38.3467 22.4538C38.3471 20.3142 38.3471 18.1585 38.3467 15.9866C38.3467 15.6183 38.8223 15.5058 39.1078 15.4995C39.7419 15.485 40.1426 15.4869 40.3098 15.5051C40.719 15.5494 40.7861 15.8826 40.7897 16.2551C40.8123 18.9012 40.793 21.5471 40.7317 24.1928C40.7091 25.1669 40.7147 26.1236 40.7119 27.0886C40.711 27.4045 40.7006 27.5935 40.6808 27.6559C40.5317 28.1282 39.9155 27.8794 39.536 27.9433C38.9443 28.0427 38.5026 27.8388 38.211 27.3318C36.9889 25.204 35.7487 23.0859 34.4903 20.9778C34.4625 20.9314 34.4336 20.893 34.4034 20.8625Z" fill="#282420"/>
<path d="M2.3919 22.5175C2.37012 23.9563 2.37915 25.3007 2.41901 26.5504C2.43291 26.9887 2.41692 27.4891 1.86987 27.5692C1.5098 27.6216 1.14834 27.6444 0.785487 27.6375C0.37954 27.6299 -0.00207684 27.6244 8.50729e-06 27.1399C0.00139874 26.8734 0.0563126 26.4917 0.0563126 26.1694C0.0586297 22.8278 0.0720676 19.4865 0.0966283 16.1453C0.0998722 15.6967 0.317212 15.4705 0.748646 15.4668C2.56637 15.4516 4.57525 15.529 6.61333 15.5151C7.00746 15.5131 7.24797 15.5883 7.23824 16.0252C7.22341 16.7007 7.20788 17.1609 7.19166 17.4057C7.16849 17.7522 6.99054 17.9236 6.65781 17.9199C5.42283 17.9056 4.06342 17.8989 2.57958 17.8999C2.5286 17.8999 2.50312 17.9252 2.50312 17.9758V20.0271C2.50312 20.0404 2.50844 20.0531 2.51794 20.0625C2.52743 20.0719 2.54034 20.0773 2.55386 20.0775C3.94548 20.0913 5.33663 20.1047 6.72733 20.1175C7.04986 20.121 7.14857 20.3412 7.14231 20.638C7.13258 21.0885 7.11613 21.538 7.09296 21.9867C7.06863 22.447 6.75791 22.4733 6.3756 22.4733C5.05998 22.4728 3.7439 22.4758 2.42735 22.4822C2.40372 22.4827 2.3919 22.4944 2.3919 22.5175Z" fill="#282420"/>
<path d="M14.4338 22.8524C14.7896 23.5457 15.1107 24.2622 15.4591 24.9612C15.6223 25.2885 15.7836 25.4813 16.0911 25.62C16.5271 25.8164 17.1578 25.6179 17.3517 26.1725C17.4088 26.3368 17.4381 26.5501 17.4394 26.8124C17.4442 27.6957 16.8591 27.8787 16.1237 27.9534C15.2298 28.0442 14.5686 27.6662 14.0127 26.9299C13.7606 26.5963 13.5624 26.2572 13.4182 25.9128C13.0585 25.0546 12.6896 24.2005 12.3113 23.3507C12.1474 22.984 11.9841 22.7658 11.5745 22.9326C11.555 22.9406 11.5453 22.9556 11.5453 22.9776C11.5471 24.0499 11.5469 25.1219 11.5446 26.1937C11.5439 26.5069 11.5739 26.8623 11.5752 27.1995C11.5766 27.6106 11.4398 27.7964 11.0378 27.8457C10.513 27.9095 10.0529 27.9264 9.65744 27.8963C9.32409 27.871 9.21252 27.4628 9.21388 27.1312C9.22114 24.7089 9.22703 22.2867 9.23157 19.8644C9.23361 18.6206 9.27171 17.3649 9.29212 16.1155C9.29665 15.826 9.40368 15.6322 9.61322 15.5341C9.7139 15.4872 9.90416 15.4637 10.184 15.4637C11.2226 15.4637 12.2598 15.4898 13.2957 15.5419C14.6876 15.6123 16.1176 15.8108 16.7646 17.2432C17.1156 18.0216 17.2108 19.2372 17.0353 20.0896C16.7319 21.5628 15.7026 22.278 14.4529 22.7996C14.4275 22.8099 14.4211 22.8275 14.4338 22.8524ZM14.5189 20.1051C14.9325 19.459 14.7502 18.4883 14.1012 18.047C13.5801 17.6922 12.5031 17.7943 11.9011 17.8175C11.6439 17.8274 11.5739 18.0062 11.5698 18.2539C11.5571 18.986 11.5555 19.7229 11.565 20.4648C11.5655 20.4887 11.5773 20.5012 11.6004 20.5021C12.3016 20.5265 13.0034 20.5338 13.7059 20.5239C14.0724 20.5188 14.3434 20.3792 14.5189 20.1051Z" fill="#282420"/>
</svg>
