<svg width="331" height="79" viewBox="0 0 331 79" fill="none" xmlns="http://www.w3.org/2000/svg">
<path fill-rule="evenodd" clip-rule="evenodd" d="M127.032 56.0128C130.093 56.1543 132.277 58.5662 132.133 61.4043V61.8304C131.986 64.9514 129.218 67.2218 126.158 66.9388C122.952 66.7973 120.621 64.1008 120.912 61.1212C121.059 57.9986 123.827 55.7282 126.887 56.0128H127.032ZM126.029 68.4191C130.035 68.718 133.427 65.7162 133.735 61.8145V61.514C133.735 57.6123 130.498 54.3099 126.492 54.3099C122.637 54.3099 119.402 57.1623 119.248 60.9146C118.939 64.8163 122.022 68.1186 126.029 68.4191ZM114.09 56.4389V68.3571H112.487V56.4389H108.117V54.736H118.462V56.4389H114.09ZM85.8224 62.8225L88.1548 56.8634L90.3394 62.8225H85.8224ZM83.7825 68.3571L85.2405 64.3838H90.9229L92.3793 68.3571H94.2745L89.174 54.8775H87.2804L82.0352 68.3571H83.7825ZM104.765 63.9577C104.619 65.8036 103.016 67.0803 101.122 66.9388C100.976 66.9388 100.685 66.9388 100.685 67.0803C98.7915 66.9388 97.3336 65.3775 97.4798 63.5332V54.8775H95.7309V63.5332C95.8772 66.2281 98.0618 68.3571 100.831 68.4986C103.744 68.6417 106.221 66.3712 106.368 63.5332V54.8775H104.765V63.9577ZM163.987 61.4043C164.133 58.5662 161.947 56.1543 158.888 56.0128H158.742C155.683 55.7282 152.913 57.9986 152.768 61.1212C152.476 64.1008 154.808 66.7973 158.014 66.9388C161.073 67.2218 163.842 64.9514 163.987 61.8304V61.4043ZM165.59 61.8145C165.283 65.7162 161.892 68.718 157.885 68.4191C153.877 68.1186 150.794 64.8163 151.102 60.9146C151.256 57.1623 154.494 54.3099 158.346 54.3099C162.354 54.3099 165.59 57.6123 165.59 61.514V61.8145ZM147.312 68.3571H149.061V54.736H146.437L142.504 66.2297L138.278 54.736H135.801V68.3571H137.405V57.0065L141.485 68.3571H143.378L147.312 57.0065V68.3571ZM172.374 56.4389V68.3571H170.625V56.4389H166.401V54.736H176.745V56.4389H172.374ZM178.785 54.736H180.534V68.2156H178.785V54.736ZM189.13 68.3571H187.381L182.283 54.736H184.03L188.256 66.2297L192.482 54.736H194.231L189.13 68.3571ZM205.887 56.4389V54.736H195.978V68.3571H205.887V66.6543H197.583V61.9719H205.012V60.4121H197.583V56.4389H205.887Z" fill="#96A9B3"/>
<path fill-rule="evenodd" clip-rule="evenodd" d="M231.678 0.105742V7.91077C227.598 7.48467 225.412 9.18749 225.267 13.5869H231.241V20.9658H225.267V45.7975H216.815V20.9658H205.304V32.3164C205.304 36.8572 207.49 38.5601 211.716 38.2755V45.7975C201.954 46.7896 196.853 41.1135 196.853 32.3164V20.9658H192.92V13.5869H197V5.35732H205.45V13.7284H216.815C216.961 5.21422 222.207 -0.886382 231.678 0.105742ZM161.883 35.1544C162.903 42.2503 169.168 46.5066 177.62 46.5066C186.07 46.5066 192.19 41.9657 192.045 35.439C192.045 28.4862 186.217 26.6419 177.911 25.3636C173.831 24.7959 171.354 24.2283 171.354 22.5255C171.354 21.3919 172.957 19.9721 176.892 19.9721C180.097 19.9721 181.991 21.1073 182.428 22.6686H191.171C190.15 16.5664 184.468 12.5931 176.892 12.5931C167.274 12.5931 162.757 17.8431 162.757 22.9516C162.757 30.189 170.772 31.7488 176.599 32.601C182.428 33.4516 183.593 34.1623 183.593 36.0066C183.593 37.851 180.971 38.8447 177.62 38.8447C174.996 38.8447 171.645 37.9925 170.479 35.1544H161.883ZM265.337 45.7959H257.177V42.3902C254.554 45.0868 250.765 46.6481 246.976 46.5066C238.379 46.5066 231.241 39.2692 231.241 29.7629C231.241 20.2551 238.379 12.8762 246.976 12.8762C250.765 12.8762 254.554 14.296 257.177 16.9909V13.4438H265.337V45.7959ZM248.288 20.3966C243.626 20.3966 239.837 24.3698 239.837 29.6198C239.837 34.8698 243.626 38.7016 248.288 38.7016C253.242 38.4186 257.031 34.4453 256.74 29.6198C256.885 24.6544 252.951 20.5397 248.288 20.3966ZM270.728 5.35573H279.179V45.7959H270.728V5.35573ZM293.021 13.0192H284.57V5.35573H293.021V13.0192ZM293.021 45.6544H284.57V16.5664H293.021V45.6544ZM322.309 45.7959H330.469V13.4438H322.309V16.9909C319.686 14.296 315.897 12.8762 312.11 12.8762C303.513 12.8762 296.373 20.2551 296.373 29.7629C296.373 39.2692 303.513 46.5066 312.11 46.5066C315.897 46.6481 319.686 45.0868 322.309 42.3902V45.7959ZM304.969 29.6198C304.969 24.3698 308.758 20.3966 313.42 20.3966C318.229 20.5397 322.017 24.6544 322.017 29.6198C322.163 34.4453 318.374 38.5601 313.42 38.7016C308.758 38.7016 304.969 34.8698 304.969 29.6198ZM118.17 45.7975H109.427L103.454 24.3714L97.4789 45.7975H88.5911L78.3916 13.4453H87.2794L93.1081 36.0066L99.2278 13.4453H107.68L113.653 36.0066L119.482 13.4453H128.516L118.17 45.7975ZM144.689 19.4045C149.499 19.4045 150.518 23.5192 150.518 25.9312H138.278C138.569 23.2362 140.318 19.4045 144.689 19.4045ZM147.75 38.8447C142.942 38.8447 138.716 36.8572 138.425 32.7425L159.989 32.884C160.135 31.6073 160.28 30.189 160.28 28.9107C160.28 20.8227 156.2 12.7346 145.417 12.7346C133.761 12.7346 128.516 21.6749 128.37 29.9044C128.37 39.9783 134.927 46.3651 146.147 46.3651C150.371 46.5066 154.451 45.7975 158.24 44.3777L156.928 37.5664C154.014 38.4186 150.809 38.8447 147.75 38.8447Z" fill="#96A9B3"/>
<path fill-rule="evenodd" clip-rule="evenodd" d="M71.6889 44.0928C71.6889 63.3915 55.6623 79 35.8452 79C16.0282 79 0 63.3915 0 44.0928C0 24.7957 16.0282 9.04415 35.8452 9.18725C55.6623 9.18725 71.6889 24.7957 71.6889 44.0928ZM42.8394 69.6336C43.0334 69.729 43.4706 69.7767 44.1511 69.7767L45.7537 70.0597C45.8269 69.7052 45.8635 69.3856 45.8984 69.066C45.935 68.748 45.9716 68.4285 46.0447 68.0739C46.9716 66.8687 48.1037 65.8241 49.2246 64.7923C50.2151 63.8765 51.1977 62.9718 52.0197 61.9717C52.0197 60.978 52.0197 59.9859 51.8734 59.1337C52.1644 56.7217 53.3298 54.4513 55.225 52.89C55.516 51.7547 55.6623 50.6195 55.8069 49.4843C58.8676 47.4985 59.5958 46.9309 59.7421 43.2422C59.1538 41.5251 58.2109 40.0162 57.2761 38.5201C55.8912 36.3053 54.5239 34.1159 54.3505 31.3224C54.3569 31.2874 54.3633 31.2509 54.3696 31.2111C54.5302 30.2778 54.915 28.0408 54.4952 27.6337C50.1245 30.8963 48.9591 36.1463 52.6016 40.2611C52.7272 40.3549 52.8528 40.4487 52.9768 40.5409C55.3093 42.2691 57.4096 43.8257 57.4096 46.7894C56.8277 47.64 55.9532 48.2076 55.0788 47.357C53.2805 43.9704 50.2978 43.0832 46.9446 42.0831C46.2212 41.8685 45.4819 41.6491 44.733 41.3963C44.1829 41.1864 43.6709 41.002 43.1924 40.8303C40.1254 39.7253 38.4957 39.1386 37.7388 35.5787C37.8088 34.8044 37.8867 34.0221 37.963 33.2351C38.2142 30.7071 38.4686 28.1362 38.4686 25.6463C37.3016 23.0929 35.699 20.6809 33.6591 18.6935C33.1519 18.8589 32.791 19.4074 32.4348 19.9496C32.1788 20.3407 31.9244 20.727 31.6192 20.9639C28.8511 21.6731 23.7521 23.5174 23.4596 26.7815C23.4914 26.834 23.5232 26.8849 23.555 26.9389C23.9636 27.6099 24.4088 28.3429 25.3548 28.3429C27.2484 27.2076 29.4346 26.64 31.7654 26.7815V27.7752C30.7972 30.0791 28.956 31.9202 27.1785 33.6962C26.5488 34.3258 25.9256 34.9475 25.3548 35.5787C24.3499 35.9046 22.7203 35.4356 21.1287 34.9761C19.949 34.6358 18.7915 34.302 17.9234 34.302C15.7372 35.2957 13.8436 36.7139 12.3856 38.5598C12.0947 39.6935 11.8037 42.2485 12.5319 43.2422C13.2601 42.9576 13.6974 42.6746 14.1346 42.107C14.1346 41.7286 14.0058 41.3502 13.8754 40.9718C13.8102 40.7826 13.7466 40.5934 13.6973 40.4041C13.9883 38.2752 17.0489 36.2894 19.0888 36.2894C20.8378 36.9985 22.5851 37.9922 24.1878 39.1274L24.0431 39.2689C23.4039 39.2689 22.7314 39.067 22.0414 38.8603C21.3132 38.6409 20.5643 38.4167 19.817 38.4167C17.1952 39.8365 15.3 42.107 14.2809 44.8019C14.3111 45.0372 14.3286 45.3266 14.3476 45.6446C14.4224 46.8625 14.5209 48.4969 15.4463 49.0598L16.758 47.357C16.1745 46.6479 15.8835 45.6541 16.0282 44.8019C16.0489 44.767 16.0695 44.7304 16.0902 44.6938C16.9694 43.1198 18.4099 40.5457 20.5452 40.5457C22.1479 41.6809 23.7521 42.6746 25.4995 43.5252C26.6649 43.6667 27.8319 44.2343 28.5601 45.228L31.6192 47.2155C32.5461 47.6893 33.6527 48.0693 34.7895 48.4588C37.052 49.2363 39.4417 50.0551 40.7995 51.7548C41.0173 52.607 41.0173 53.4941 41.0173 54.3988C41.0173 55.3035 41.0173 56.2257 41.2367 57.1478C41.5579 57.6344 41.8791 58.0112 42.1573 58.3371C43.0159 59.3404 43.4658 59.8666 42.2559 61.6887C41.8504 62.145 41.383 62.6156 40.8981 63.1021C39.1269 64.8845 37.1251 66.8989 37.0107 69.3506H39.4878C39.6341 68.783 39.6341 68.2154 39.6341 67.6478C40.6532 65.945 41.9649 64.3837 43.4229 63.1069C43.9317 62.7524 44.4786 62.3978 45.0256 62.0432C45.5709 61.6887 46.1178 61.3325 46.6282 60.978C47.0607 60.3881 46.8762 59.5947 46.6854 58.7823C46.5551 58.2274 46.4231 57.6646 46.4819 57.1478C47.2101 57.2893 48.5218 59.8428 48.8128 60.4104C48.8128 61.9129 46.7856 63.9782 45.4803 65.3074C45.183 65.6111 44.9238 65.875 44.733 66.0865C43.8585 67.2217 43.1303 68.3569 42.8394 69.6336Z" fill="#96A9B3"/>
</svg>
