<svg width="99" height="78" viewBox="0 0 99 78" fill="none" xmlns="http://www.w3.org/2000/svg">
<path d="M11.809 33.1418C12.4647 32.6354 13.4067 32.7565 13.913 33.4121L22.1644 44.0969C22.6707 44.7526 22.5497 45.6946 21.894 46.201C21.2383 46.7073 20.2963 46.5862 19.79 45.9306L12.4555 36.433L2.95785 43.7675C2.30218 44.2739 1.36018 44.1528 0.853835 43.4971C0.347492 42.8415 0.468545 41.8995 1.12422 41.3931L11.809 33.1418ZM14.2136 34.5201C11.7092 54.0083 25.4773 71.8367 44.9655 74.3411L44.5831 77.3166C23.4516 74.6011 8.52253 55.2692 11.2381 34.1378L14.2136 34.5201Z" fill="#515151"/>
<path d="M87.191 44.9676C86.5353 45.474 85.5933 45.3529 85.087 44.6972L76.8356 34.0124C76.3293 33.3568 76.4503 32.4148 77.106 31.9084C77.7617 31.4021 78.7037 31.5231 79.21 32.1788L86.5445 41.6764L96.0421 34.3418C96.6978 33.8355 97.6398 33.9566 98.1462 34.6122C98.6525 35.2679 98.5315 36.2099 97.8758 36.7162L87.191 44.9676ZM84.7864 43.5892C87.2908 24.1011 73.5227 6.27265 54.0345 3.76829L54.4169 0.792754C75.5484 3.50829 90.4775 22.8401 87.7619 43.9716L84.7864 43.5892Z" fill="#515151"/>
<path d="M43.5476 19.5547H53.6667L48.9048 33.1261H62L47.7143 59.5547L50.0952 40.269H37L43.5476 19.5547Z" stroke="#639B3D" stroke-width="3"/>
</svg>
