<svg width="79" height="79" viewBox="0 0 79 79" fill="none" xmlns="http://www.w3.org/2000/svg">
<path d="M35.4398 0.142143C27.8054 0.987183 20.2 4.22163 14.1682 9.14615C12.1868 10.7779 8.34039 15.0031 6.99999 17.0429C0.0357326 27.5621 -1.82917 39.8588 1.84236 51.4271C6.21323 65.2099 17.3735 75.2629 31.7974 78.4099C35.2941 79.1967 43.7445 79.1967 47.212 78.4099C55.1379 76.6907 61.2571 73.4271 66.9101 67.9781C72.8545 62.296 76.73 55.2152 78.3035 47.2893C79.0029 43.6761 79.1486 37.3237 78.5949 33.7979C76.0307 17.0137 63.4425 3.87196 46.9789 0.72493C43.5114 0.0547256 38.5286 -0.178383 35.4398 0.142143ZM37.5087 0.666649C37.4213 0.812347 38.0332 0.812347 38.8491 0.72493C39.665 0.608376 41.0054 0.637512 41.8213 0.812347C42.6372 0.958038 43.7736 0.987183 44.3273 0.899765C45.0266 0.783203 45.2014 0.812347 44.91 1.01632C44.5895 1.22029 44.7352 1.30771 45.4928 1.30771C46.0465 1.30771 47.2412 1.56996 48.1153 1.8905C48.9895 2.21103 49.8928 2.415 50.1259 2.32758C50.3299 2.24017 50.7087 2.32758 50.9127 2.50242C51.1167 2.67725 51.4372 2.73553 51.5829 2.61897C51.7869 2.53156 51.816 2.61897 51.7286 2.91036C51.612 3.2309 51.6703 3.31831 51.9909 3.17262C52.224 3.0852 52.5154 3.14348 52.6319 3.31831C52.7193 3.49315 53.0399 3.63885 53.3313 3.63885C54.0889 3.63885 54.5842 4.25077 54.2054 4.717C53.9432 5.00838 53.9723 5.0958 54.2346 5.0958C54.526 5.0958 54.526 5.18322 54.2346 5.53289C54.0306 5.79514 53.3895 5.96998 52.7485 5.96998C52.1074 5.96998 51.612 6.08653 51.612 6.26137C51.612 6.40707 51.0875 6.55276 50.4465 6.55276C49.8054 6.55276 49.2809 6.66932 49.2809 6.84415C49.2809 6.98985 48.7564 7.13554 48.1153 7.13554C47.1538 7.13554 46.9498 7.22296 46.9498 7.71833C46.9498 8.21369 46.7458 8.30111 45.7842 8.30111C44.8226 8.30111 44.6186 8.38853 44.6186 8.8839C44.6186 9.37926 44.4147 9.46667 43.4531 9.46667C42.4915 9.46667 42.2875 9.55409 42.2875 10.0495C42.2875 10.5448 42.0835 10.6322 41.1219 10.6322C40.4809 10.6322 39.9564 10.7488 39.9564 10.9236C39.9564 11.0693 39.4319 11.215 38.7908 11.215C38.1498 11.215 37.6252 11.3316 37.6252 11.5064C37.6252 11.6521 37.1007 11.7978 36.4597 11.7978C35.265 11.7978 35.1193 11.9726 35.2358 13.313C35.3233 14.2455 35.0901 13.8667 34.4199 12.0018C34.0411 11.0111 33.5166 9.78721 33.2252 9.29184C32.9338 8.79648 32.7299 8.33025 32.8173 8.24283C32.9047 8.15541 32.6425 7.95144 32.2345 7.7766C31.5352 7.45608 31.506 7.48521 31.6809 8.21369C31.8848 9.02959 40.6557 31.0588 41.0637 31.7873C41.2676 32.1661 41.4425 32.1369 42.171 31.525C42.8994 30.9131 47.9405 26.921 59.4213 17.8879C61.0531 16.5766 62.5684 15.5859 62.7723 15.6733C63.5882 15.9939 64.2876 19.374 64.2876 22.8707C64.2584 25.8137 64.171 26.4548 63.5008 28.0575C61.1697 33.6813 57.0611 37.7317 49.0769 42.2774C47.416 43.2098 46.0756 44.1423 46.0756 44.3171C46.0756 44.5211 46.6875 46.1237 47.416 47.9012C48.6399 50.8151 48.8438 51.1357 49.514 51.1357C50.9418 51.1357 53.5061 52.0681 55.0796 53.1171C61.4319 57.4297 60.7035 67.2788 53.7683 70.6881C51.2624 71.941 48.873 72.1159 46.1922 71.2708C43.1034 70.3384 41.1802 68.6192 39.7233 65.5013C39.0822 64.1026 38.9657 63.4033 38.9657 61.4801C38.9657 59.4403 39.0822 58.8867 39.8981 57.2549C40.3935 56.2059 40.9763 55.1569 41.1511 54.9238C41.4133 54.545 41.0637 53.9039 39.2279 51.4853C37.9749 49.8536 36.8094 48.5132 36.6345 48.5132C36.4597 48.5423 34.9444 49.0959 33.2544 49.7953L30.1948 51.0774L30.1365 53.4668C30.0782 55.4191 29.9325 56.1768 29.2332 57.6337C28.1842 59.8483 26.4358 61.6549 24.2795 62.7039C22.8226 63.4324 22.298 63.5198 19.8504 63.5198C17.4318 63.5198 16.8782 63.4324 15.4795 62.7331C13.3815 61.7132 11.5166 59.8483 10.555 57.8377C9.88477 56.439 9.79735 55.8562 9.79735 53.3211C9.79735 50.8734 9.91391 50.2032 10.4967 49.0377C12.0702 45.8032 14.751 43.8217 18.306 43.2098C20.404 42.8602 22.2106 43.1224 24.6875 44.1714C25.5908 44.5211 25.6491 44.4919 28.2716 42.4231C29.7285 41.2575 30.9232 40.1794 30.9232 40.0337C30.9232 39.8588 30.3987 38.8681 29.7285 37.7899C28.0385 34.9926 25.8239 30.3886 24.8914 27.6787C24.163 25.5515 24.1047 24.9978 24.1047 20.9766C24.0755 17.1011 24.163 16.4309 24.7457 14.9448C25.1245 14.0124 25.4159 13.1674 25.3868 13.0799C25.3577 12.9634 25.4451 12.7885 25.5908 12.7011C25.7365 12.6137 26.261 11.9144 26.7855 11.1859C27.2808 10.4574 28.4464 9.14615 29.3789 8.30111C30.3113 7.45608 30.8067 6.90243 30.4862 7.07726C28.8835 7.95144 24.5709 12.7594 24.7457 13.4879C24.804 13.721 24.6 14.2455 24.3087 14.6535C24.0464 15.0905 23.8424 15.5859 23.8716 15.7899C23.9007 15.9647 23.6967 16.1978 23.3762 16.3144C22.6477 16.5475 21.9775 17.5674 21.7444 18.9078C21.5696 19.7528 21.3947 19.9568 20.8411 19.9568C20.4623 19.9568 20.1418 20.0733 20.1418 20.2482C20.1418 20.3939 19.9961 20.5396 19.8212 20.5396C19.2384 20.5396 19.7338 19.8402 20.4623 19.6362C20.9285 19.4905 20.9868 19.4323 20.6663 19.4031C20.3749 19.374 20.1418 19.2283 20.1418 19.0826C20.1418 18.9078 19.8795 18.7912 19.559 18.7912C19.1802 18.7912 18.9762 18.9952 18.9762 19.374C18.9762 19.8694 18.7722 19.9568 17.8106 19.9568C16.849 19.9568 16.6451 20.0442 16.6451 20.5396C16.6451 21.0349 16.4411 21.1223 15.4795 21.1223C14.5179 21.1223 14.3139 21.2098 14.3139 21.7051C14.3139 22.1131 14.1099 22.2879 13.6437 22.2879C13.2649 22.2879 12.8278 22.4336 12.6238 22.6376C12.4199 22.8416 11.6914 22.9581 10.9629 22.8998C10.1762 22.8707 9.65166 22.9581 9.65166 23.1329C9.65166 23.3369 10.351 23.4535 11.4 23.4535C13.0901 23.4535 13.1192 23.4826 12.6238 23.978C12.3616 24.2694 12.0993 24.3859 12.0411 24.2694C11.9828 24.1528 11.2834 24.0363 10.4967 24.0363C9.70993 24.0363 9.06887 23.8906 9.06887 23.7449C9.06887 23.57 8.92318 23.4535 8.74834 23.4535C8.57351 23.4535 8.48609 23.7157 8.57351 24.0363C8.69006 24.5025 8.63179 24.5608 8.1947 24.3276C7.43708 23.9197 7.32052 23.9488 7.32052 24.619C7.32052 25.1144 7.11655 25.2018 6.15496 25.2018C5.51389 25.2018 4.98939 25.3475 4.98939 25.4932C4.98939 25.668 4.66886 25.9303 4.26091 26.1343C3.8821 26.3091 3.61985 26.5714 3.73641 26.7462C3.82382 26.921 3.76555 26.9502 3.59071 26.8336C3.09534 26.5131 3.64899 25.0561 4.29005 25.0561C4.72714 25.0561 4.84369 24.823 4.90197 24.0363C4.93111 23.4826 4.87283 23.2786 4.78542 23.5992C4.698 23.9197 4.52316 24.2985 4.37747 24.4733C4.23177 24.619 4.29005 24.1528 4.52316 23.4535C5.10595 21.5303 6.44635 18.7038 6.65032 18.9078C6.73774 18.9952 6.65032 19.2574 6.44635 19.5197C6.24237 19.7528 6.21323 19.9568 6.38807 19.9568C6.76688 19.9568 7.05827 19.1992 6.8543 18.6455C6.73774 18.4124 6.82516 18.2084 6.99999 18.2084C7.17483 18.2084 7.32052 17.917 7.32052 17.5382C7.32052 17.0137 7.3788 16.9846 7.61191 17.3343C7.84503 17.6839 7.90331 17.6548 7.90331 17.1303C7.90331 16.7806 8.22384 16.1395 8.63179 15.7025C9.03973 15.2654 9.36026 14.8283 9.36026 14.7409C9.36026 14.4203 12.245 11.5356 14.3139 9.72893C16.2954 8.03886 19.2967 5.96998 19.7921 5.96998C19.9669 5.96998 20.1418 5.85342 20.2 5.73686C20.3749 5.27064 24.7749 3.28918 25.1245 3.52229C25.3577 3.66798 25.3868 3.6097 25.2411 3.34745C25.0663 3.05606 25.1245 2.99778 25.4742 3.14348C25.7365 3.2309 25.9696 3.20176 26.0279 3.05606C26.1736 2.61897 32.2636 1.0746 33.9829 1.01632C35.6438 0.987183 36.4014 0.870621 36.6345 0.637512C36.9259 0.346123 37.6835 0.375259 37.5087 0.666649ZM56.3617 5.12494C56.5657 5.12494 56.4491 5.2415 56.1286 5.35806C55.4876 5.62031 55.1087 5.50375 55.1087 5.03752C55.1087 4.89183 55.3127 4.83355 55.575 4.92097C55.8372 5.00838 56.1869 5.0958 56.3617 5.12494ZM37.4796 13.2548C37.567 13.4005 37.3921 13.5462 37.0716 13.5462C36.7219 13.5462 36.4597 13.4005 36.4597 13.2548C36.4597 13.0799 36.6345 12.9634 36.8676 12.9634C37.1007 12.9634 37.3921 13.0799 37.4796 13.2548ZM22.8808 18.5581L22.6769 19.5197L22.3855 18.6747C22.1815 18.0627 22.2106 17.8005 22.502 17.5965C23.0557 17.276 23.1431 17.4508 22.8808 18.5581ZM21.2199 20.423C21.1325 20.5104 20.8702 20.5396 20.6663 20.4521C20.4331 20.3647 20.5206 20.2773 20.8411 20.2773C21.1616 20.2482 21.3365 20.3356 21.2199 20.423Z" fill="#96A9B3"/>
<path d="M24.0397 24.0399L0.874023 33.6558C2.97204 20.0187 13.1125 9.61599 17.9204 6.1193C38.551 -5.41981 55.6556 2.7683 61.6292 8.30474L37.1523 17.4836L32.3443 8.30474C23.6026 8.30474 23.1655 18.7948 24.0397 24.0399Z" fill="#96A9B3"/>
</svg>
