<svg width="63" height="64" viewBox="0 0 63 64" fill="none" xmlns="http://www.w3.org/2000/svg">
<path d="M19.8846 8.38464L25.5329 19.6811H45.5679L51.2162 8.38464C51.5964 7.62441 50.8676 6.78411 50.0612 7.05289L40.7977 10.1407L35.9786 1.70744C35.5964 1.03862 34.6201 1.07511 34.2889 1.77061L30.3031 10.1407L21.0396 7.05289C20.2332 6.78411 19.5044 7.62441 19.8846 8.38464Z" stroke="#006350" stroke-width="1.82"/>
<path d="M26.4883 24.8225L44.6153 24.8225" stroke="#006350" stroke-width="1.82" stroke-linecap="round"/>
<path d="M45.5679 29.4842H26.9639C26.9639 39.4063 23.4657 47.611 21.7166 50.4732H51.2922C46.3312 43.2224 45.4089 33.4594 45.5679 29.4842Z" stroke="#006350" stroke-width="1.82" stroke-linejoin="round"/>
<path d="M51.2922 53.8123H20.7626V60.9676C20.7626 62.0214 21.6169 62.8757 22.6707 62.8757H49.3841C50.4379 62.8757 51.2922 62.0214 51.2922 60.9676V53.8123Z" stroke="#006350" stroke-width="1.82" stroke-linejoin="round"/>
<path d="M5.4177 20.8473L8.25896 24.0616L12.5486 23.9971L9.3342 26.8383L9.39872 31.1279L6.55747 27.9135L2.26785 27.9781L5.48223 25.1368L5.4177 20.8473Z" fill="#006350"/>
<path d="M57.2856 35.2425L58.8405 37.0016L61.188 36.9662L59.4289 38.5211L59.4642 40.8686L57.9094 39.1095L55.5618 39.1449L57.3209 37.59L57.2856 35.2425Z" fill="#006350"/>
</svg>
