<svg width="273" height="69" viewBox="0 0 273 69" fill="none" xmlns="http://www.w3.org/2000/svg">
<path fill-rule="evenodd" clip-rule="evenodd" d="M105.432 0C114.237 0.141128 117.375 4.40856 114.845 12.8024C108.674 18.4464 103.904 17.4423 100.537 9.7901C100.167 5.50934 101.798 2.24593 105.432 0Z" fill="#96A9B3"/>
<path fill-rule="evenodd" clip-rule="evenodd" d="M16.5679 1.50622C27.1397 0.174614 35.9259 3.43796 42.9258 11.2963C40.4248 14.7995 37.664 18.0629 34.6419 21.0864C29.6542 17.076 24.1319 15.9464 18.074 17.6975C15.814 20.7121 16.3156 23.2223 19.5802 25.2284C26.007 27.7031 32.2825 30.4644 38.4073 33.5123C46.1762 41.464 47.3058 50.3754 41.7962 60.2468C33.8361 68.1053 24.4225 70.4895 13.5555 67.4011C7.93977 65.5358 3.42126 62.2726 0 57.611C2.09433 53.8848 4.85589 50.7474 8.28393 48.1975C11.3098 50.2127 14.5729 51.8439 18.074 53.0925C20.8356 53.5948 23.5964 53.5948 26.358 53.0925C31.0474 50.4733 31.2982 47.461 27.1111 44.0555C20.5366 41.6469 14.2612 38.6346 8.28393 35.0185C-0.442814 25.6922 -0.693591 16.1532 7.53085 6.40127C10.4935 4.54574 13.5058 2.91404 16.5679 1.50622Z" fill="#96A9B3"/>
<path fill-rule="evenodd" clip-rule="evenodd" d="M64.766 2.25913C64.6402 13.8092 64.766 25.3565 65.1425 36.901C65.6825 36.4912 66.059 35.9891 66.2722 35.3949C70.3893 31.1494 74.4062 26.7564 78.3215 22.2159C83.5871 21.8396 88.8587 21.7141 94.1363 21.8393C94.2485 22.6316 94.1235 23.3847 93.7598 24.0986C88.7246 29.5093 83.8296 35.032 79.0746 40.6665C84.9524 49.4309 90.9771 58.0913 97.1486 66.6479C92.2566 67.8694 87.2358 68.1209 82.0869 67.401C77.7206 62.0428 73.4528 56.6462 69.2845 51.2096C68.0427 52.8288 66.6623 54.335 65.1425 55.7282C64.7667 59.7368 64.641 63.753 64.766 67.7775C59.8032 68.0117 54.9081 67.7609 50.0808 67.0244C49.5785 45.4357 49.5785 23.8476 50.0808 2.25913C55.0504 1.26047 59.9455 1.26047 64.766 2.25913Z" fill="#96A9B3"/>
<path fill-rule="evenodd" clip-rule="evenodd" d="M152.123 24.8519C152.169 25.2609 152.419 25.5119 152.877 25.605C153.629 17.8392 153.88 10.0574 153.63 2.25934C158.257 1.51363 163.027 1.26263 167.938 1.50625C168.064 23.3471 167.938 45.1867 167.562 67.0246C163.483 67.8824 159.341 68.0082 155.136 67.4012C154.572 66.0953 154.195 64.7149 154.006 63.2592C148.254 68.5692 141.602 69.9496 134.049 67.4012C123.462 61.0346 119.069 51.621 120.87 39.1605C124.36 26.1183 132.769 20.2191 146.099 21.463C148.497 22.031 150.505 23.1606 152.123 24.8519Z" fill="#96A9B3"/>
<path fill-rule="evenodd" clip-rule="evenodd" d="M230.444 1.50623C243.246 1.50623 256.049 1.50623 268.851 1.50623C268.851 7.2799 268.851 13.0535 268.851 18.8272C265.386 17.762 262.374 15.8793 259.814 13.179C250.024 12.928 240.234 12.677 230.444 12.426C229.459 8.78645 229.459 5.14649 230.444 1.50623Z" fill="#96A9B3"/>
<path fill-rule="evenodd" clip-rule="evenodd" d="M64.7659 2.25928C65.2682 13.3045 65.7698 24.3497 66.2721 35.395C66.059 35.9893 65.6824 36.4914 65.1425 36.9012C64.7659 25.3566 64.6402 13.8093 64.7659 2.25928Z" fill="#96A9B3"/>
<path fill-rule="evenodd" clip-rule="evenodd" d="M153.629 2.25928C153.879 10.0573 153.628 17.8392 152.876 25.6049C152.419 25.5118 152.168 25.2608 152.123 24.8518C152.625 17.321 153.127 9.79013 153.629 2.25928Z" fill="#96A9B3"/>
<path fill-rule="evenodd" clip-rule="evenodd" d="M224.42 47.4444C211.739 46.445 198.937 46.445 186.013 47.4444C186.106 47.9015 186.357 48.1523 186.766 48.1974C189.689 55.0528 194.71 57.1863 201.827 54.5987C203.22 53.7755 204.475 52.7717 205.593 51.5863C210.104 51.2105 214.623 51.0848 219.148 51.2098C217.116 60.6482 211.343 66.5479 201.827 68.9073C184.266 69.9285 174.476 61.6445 172.457 44.0555C174.796 26.9033 184.586 18.8704 201.827 19.9568C210.89 22.3675 216.915 28.0157 219.901 36.9012C221.658 37.9052 223.416 37.9052 225.173 36.9012C232.061 21.0896 243.609 16.1946 259.815 22.216C268.624 27.659 272.766 35.5664 272.241 45.9382C260.867 46.4345 249.445 46.9368 237.975 47.4444C240.334 53.7703 244.853 56.4061 251.531 55.3517C253.686 54.6514 255.443 53.396 256.803 51.5863C261.321 51.084 265.84 51.084 270.358 51.5863C270.751 52.0088 271.002 52.5111 271.111 53.0925C265.092 66.1434 255.051 71.1635 240.988 68.1542C231.672 64.2404 226.149 57.3369 224.42 47.4444Z" fill="#96A9B3"/>
<path fill-rule="evenodd" clip-rule="evenodd" d="M100.913 21.8395C105.876 21.6053 110.771 21.8563 115.599 22.5926C116.221 37.5839 116.095 52.5202 115.222 67.4012C110.516 68.0104 105.872 67.8847 101.29 67.0246C100.913 51.9652 100.788 36.9034 100.913 21.8395Z" fill="#96A9B3"/>
<path fill-rule="evenodd" clip-rule="evenodd" d="M193.542 33.1356C198.293 32.5013 202.309 33.8819 205.591 37.2776C199.818 37.7797 194.044 37.7797 188.271 37.2776C189.807 35.5185 191.564 34.1378 193.542 33.1356Z" fill="#FBFBFB"/>
<path fill-rule="evenodd" clip-rule="evenodd" d="M245.505 33.1356C249.968 32.4475 253.733 33.7026 256.801 36.901C251.295 37.7781 245.773 37.9036 240.233 37.2776C241.716 35.4032 243.473 34.0226 245.505 33.1356Z" fill="#FBFBFB"/>
<path fill-rule="evenodd" clip-rule="evenodd" d="M141.58 34.642C149.542 34.7545 153.182 38.7709 152.5 46.6913C150.29 54.2613 145.646 56.3956 138.568 53.0925C132.872 45.7191 133.877 39.5689 141.58 34.642Z" fill="#FBFBFB"/>
<path fill-rule="evenodd" clip-rule="evenodd" d="M224.419 47.4443C211.736 47.1958 199.185 47.4466 186.765 48.1974C186.356 48.1522 186.105 47.9015 186.012 47.4443C198.936 46.445 211.739 46.445 224.419 47.4443Z" fill="#96A9B3"/>
</svg>
