<svg width="62" height="63" viewBox="0 0 62 63" fill="none" xmlns="http://www.w3.org/2000/svg">
<path d="M39.5974 20.3055C39.5738 20.3265 39.5619 20.3533 39.5619 20.3857C39.5619 34.087 39.5619 47.7901 39.5619 61.495C39.5619 62.1181 39.1294 62.5993 38.5089 62.5441C38.3441 62.5292 38.1092 62.4249 37.8042 62.2312C36.5229 61.4179 35.2372 60.612 33.947 59.8135C33.9094 59.7899 33.8712 59.7899 33.8327 59.8135C32.4856 60.6584 31.1424 61.4994 29.8032 62.3364C29.2761 62.665 28.9606 62.5809 28.4334 62.2496C27.1275 61.4292 25.8225 60.612 24.5183 59.7978C24.5077 59.7911 24.4954 59.7876 24.4828 59.7876C24.4703 59.7876 24.458 59.7911 24.4473 59.7978C23.0678 60.6672 21.6835 61.5344 20.2943 62.3995C19.9289 62.6273 19.5489 62.6142 19.1545 62.36C17.8136 61.4976 16.4722 60.6453 15.1304 59.803C15.1159 59.794 15.0992 59.7892 15.0822 59.7892C15.0652 59.7892 15.0486 59.794 15.0344 59.803C13.6575 60.6698 12.2767 61.5344 10.8919 62.3968C10.42 62.6913 10.044 62.5217 9.57858 62.2259C8.29811 61.4126 7.01237 60.608 5.72138 59.8122C5.6837 59.7894 5.64601 59.7899 5.60832 59.8135C4.18674 60.7101 2.76823 61.5988 1.35278 62.4797C1.12315 62.6225 0.854088 62.6142 0.545582 62.4547C0.0907112 62.2207 0 61.8999 0 61.3806C0 43.397 0 25.4134 0 7.42977C0 4.18389 2.30591 1.26404 5.53076 0.659298C5.99965 0.571654 6.87302 0.527832 8.15087 0.527832C19.5901 0.527832 31.0289 0.527832 42.4673 0.527832C43.3122 0.527832 43.9616 0.586992 44.4156 0.705311C46.1037 1.14441 47.3469 2.21147 48.1453 3.9065C48.1535 3.92377 48.1665 3.93837 48.1828 3.94861C48.1991 3.95885 48.218 3.9643 48.2373 3.96434C52.382 3.96434 56.5355 3.96434 60.6977 3.96434C61.0903 3.96434 61.3725 4.00992 61.5443 4.10107C62.22 4.45997 62.1214 5.55639 61.3997 5.83378C61.0631 5.96262 60.653 5.89294 60.2862 5.98891C58.9496 6.34036 58.0841 7.12959 57.6897 8.35661C57.5732 8.7177 57.5153 9.22253 57.5162 9.87109C57.5171 11.5346 57.5171 13.1967 57.5162 14.8576C57.5136 17.6262 55.3996 19.9151 52.6835 20.2608C52.4513 20.2906 51.5757 20.3051 50.0568 20.3042C46.5835 20.3024 43.1106 20.3007 39.6382 20.2989C39.6171 20.2989 39.6036 20.3011 39.5974 20.3055ZM15.4078 57.7587C16.853 58.6255 18.2807 59.5147 19.6909 60.4262C19.7126 60.44 19.7377 60.4474 19.7632 60.4476C19.7888 60.4479 19.8139 60.4409 19.8355 60.4275C21.1178 59.6273 22.3987 58.8249 23.6783 58.0203C24.1831 57.7035 24.5367 57.551 25.0481 57.8718C26.4154 58.7307 27.7765 59.5861 29.1315 60.438C29.1457 60.447 29.1623 60.4518 29.1792 60.4518C29.1962 60.4518 29.2129 60.447 29.2274 60.438C30.5421 59.6159 31.8532 58.7947 33.1609 57.9743C33.6289 57.6812 33.9799 57.576 34.4479 57.8705C35.49 58.5243 36.5281 59.1786 37.5623 59.8333C37.5668 59.8359 37.5718 59.8373 37.577 59.8374C37.5821 59.8375 37.5872 59.8363 37.5916 59.8339C37.596 59.8315 37.5997 59.8279 37.6022 59.8237C37.6046 59.8194 37.6059 59.8145 37.6057 59.8096C37.6057 41.9237 37.6149 24.0352 37.6005 6.14798C37.5996 4.79389 38.0124 3.59142 38.8389 2.54057C38.8696 2.50025 38.8599 2.4801 38.81 2.4801C28.5907 2.4801 18.3714 2.4801 8.15218 2.4801C6.87433 2.4801 6.00316 2.54188 5.53864 2.66546C3.86114 3.11244 2.47944 4.53622 2.06927 6.25053C1.98075 6.62126 1.93649 7.19226 1.93649 7.96352C1.93561 25.2372 1.93561 42.514 1.93649 59.7938C1.9364 59.8004 1.93811 59.807 1.94143 59.8127C1.94475 59.8185 1.94956 59.8232 1.95536 59.8264C1.96115 59.8297 1.9677 59.8313 1.97433 59.8311C1.98096 59.8309 1.98742 59.8289 1.99302 59.8254C2.95272 59.225 3.91636 58.6198 4.88395 58.0098C5.37037 57.7022 5.70561 57.5576 6.19992 57.8639C7.57066 58.7149 8.93791 59.569 10.3016 60.4262C10.3213 60.4387 10.3441 60.4453 10.3674 60.4453C10.3907 60.4453 10.4135 60.4387 10.4331 60.4262C11.7776 59.583 13.1268 58.7386 14.4809 57.8928C14.7504 57.7246 15.1527 57.6075 15.4078 57.7587ZM45.4463 3.39641C43.1746 1.33109 39.5488 2.97704 39.5527 6.04939C39.5597 10.1362 39.5628 14.2165 39.5619 18.2901C39.5619 18.3104 39.57 18.3298 39.5843 18.3441C39.5986 18.3584 39.618 18.3664 39.6382 18.3664H47.8206C47.8714 18.3664 47.8811 18.3467 47.8495 18.3072C46.828 17.0399 46.6019 15.8975 46.6006 14.1674C46.5988 11.4943 46.601 8.82112 46.6072 6.14798C46.6089 5.02001 46.222 4.10282 45.4463 3.39641ZM55.5705 9.63971C55.5758 8.20411 55.907 7.12083 56.7971 5.98234C56.8339 5.93589 56.8225 5.91266 56.7629 5.91266H48.7093C48.5919 5.91266 48.5331 5.97138 48.5331 6.08882C48.5331 9.07485 48.5305 11.9653 48.5253 14.7603C48.5226 16.7467 50.02 18.2612 51.9644 18.3335C53.9929 18.4085 55.5692 16.7573 55.5652 14.759C55.5626 13.0526 55.5644 11.3461 55.5705 9.63971Z" fill="#006350"/>
<path d="M20.8176 8.38347C22.4623 8.62011 23.9005 9.46017 24.4605 11.0733C24.5789 11.4159 24.5977 11.7056 24.5171 11.9422C24.3186 12.5194 23.4482 12.7389 22.9881 12.3169C22.8891 12.2266 22.7756 12.0176 22.6476 11.6898C22.0205 10.0754 20.3509 9.88481 18.8325 10.0886C18.2251 10.171 17.7383 10.3537 17.3719 10.6368C16.4503 11.3506 16.5042 12.7678 17.5665 13.2635C17.9495 13.4423 18.4267 13.6009 18.9981 13.7394C21.6367 14.3796 25.5832 14.9567 25.0942 18.718C24.8168 20.8517 22.7909 22.0598 20.8163 22.257C20.7734 22.2614 20.7506 22.2851 20.7479 22.328C20.7295 22.6146 20.7252 22.7969 20.7348 22.8749C20.9425 24.4617 18.5985 24.4854 18.8023 22.8434C18.8145 22.7452 18.8097 22.5515 18.7878 22.2623C18.7843 22.2185 18.7606 22.1948 18.7168 22.1913C17.2904 22.0572 15.9731 21.3972 15.1238 20.243C14.7461 19.7285 14.513 19.1934 14.4245 18.6378C14.3101 17.9292 14.899 17.3823 15.5827 17.5085C16.3189 17.6465 16.2913 18.4169 16.6265 18.9638C17.4718 20.3442 19.2637 20.5887 20.8032 20.4468C21.6086 20.3714 22.2291 20.115 22.6647 19.6777C23.4298 18.9086 23.4522 17.6268 22.5503 16.9839C22.283 16.7938 21.9618 16.6417 21.5867 16.5278C20.9329 16.3306 19.8719 16.0475 18.4039 15.6785C17.9105 15.554 17.3864 15.3621 16.8316 15.1027C13.9972 13.7814 14.2535 10.0715 16.942 8.82256C17.4477 8.58768 18.0406 8.42861 18.7207 8.34534C18.7681 8.33921 18.7926 8.31248 18.7944 8.26515C18.8036 7.86681 18.7392 7.36461 18.8798 7.03069C19.1086 6.48511 19.7343 6.28659 20.2471 6.57056C20.9044 6.93472 20.7125 7.65909 20.7453 8.30459C20.7479 8.35104 20.772 8.37733 20.8176 8.38347Z" fill="#006350"/>
<path d="M12.1015 28.0649L5.77535 28.0539C5.25113 28.053 4.82543 28.4772 4.82452 29.0014L4.82443 29.0514C4.82351 29.5756 5.24773 30.0013 5.77195 30.0022L12.0981 30.0133C12.6223 30.0142 13.048 29.59 13.0489 29.0657L13.049 29.0158C13.0499 28.4916 12.6257 28.0659 12.1015 28.0649Z" fill="#006350"/>
<path d="M33.7636 28.064H16.0131C15.4816 28.064 15.0508 28.4948 15.0508 29.0263V29.05C15.0508 29.5814 15.4816 30.0123 16.0131 30.0123H33.7636C34.2951 30.0123 34.7259 29.5814 34.7259 29.05V29.0263C34.7259 28.4948 34.2951 28.064 33.7636 28.064Z" fill="#006350"/>
<path d="M33.7822 34.0171H5.78264C5.25116 34.0171 4.82031 34.4479 4.82031 34.9794V34.9978C4.82031 35.5293 5.25116 35.9602 5.78264 35.9602H33.7822C34.3137 35.9602 34.7445 35.5293 34.7445 34.9978V34.9794C34.7445 34.4479 34.3137 34.0171 33.7822 34.0171Z" fill="#006350"/>
<path d="M19.4564 39.9554L5.78132 39.9793C5.25057 39.9802 4.82106 40.4112 4.82199 40.942L4.82204 40.9735C4.82297 41.5043 5.25398 41.9338 5.78473 41.9329L19.4598 41.909C19.9905 41.9081 20.42 41.4771 20.4191 40.9463L20.419 40.9147C20.4181 40.384 19.9871 39.9545 19.4564 39.9554Z" fill="#006350"/>
<path d="M33.783 39.9695H23.5471C23.0185 39.9695 22.59 40.398 22.59 40.9266V40.9634C22.59 41.4919 23.0185 41.9204 23.5471 41.9204H33.783C34.3116 41.9204 34.7401 41.4919 34.7401 40.9634V40.9266C34.7401 40.398 34.3116 39.9695 33.783 39.9695Z" fill="#006350"/>
<path d="M33.7717 45.9263H5.79053C5.25469 45.9263 4.82031 46.3607 4.82031 46.8965V46.9149C4.82031 47.4507 5.25469 47.8851 5.79053 47.8851H33.7717C34.3075 47.8851 34.7419 47.4507 34.7419 46.9149V46.8965C34.7419 46.3607 34.3075 45.9263 33.7717 45.9263Z" fill="#006350"/>
<path d="M19.5813 51.8901H5.77738C5.24881 51.8901 4.82031 52.3186 4.82031 52.8472V52.8761C4.82031 53.4047 5.24881 53.8332 5.77738 53.8332H19.5813C20.1098 53.8332 20.5383 53.4047 20.5383 52.8761V52.8472C20.5383 52.3186 20.1098 51.8901 19.5813 51.8901Z" fill="#006350"/>
<path d="M33.7854 51.8958L25.0404 51.8805C24.5154 51.8796 24.0891 52.3044 24.0882 52.8293L24.0881 52.8714C24.0872 53.3964 24.512 53.8226 25.037 53.8236L33.7821 53.8388C34.307 53.8397 34.7333 53.4149 34.7342 52.89L34.7343 52.8479C34.7352 52.323 34.3104 51.8967 33.7854 51.8958Z" fill="#006350"/>
</svg>
