<svg width="81" height="83" viewBox="0 0 81 83" fill="none" xmlns="http://www.w3.org/2000/svg">
<path d="M51.7309 26.8282C51.7 26.8557 51.6845 26.8906 51.6845 26.933C51.6845 44.8354 51.6845 62.7401 51.6845 80.647C51.6845 81.4613 51.1194 82.09 50.3086 82.0178C50.0933 81.9984 49.7864 81.8621 49.3879 81.609C47.7136 80.5463 46.0337 79.4933 44.348 78.4501C44.2987 78.4191 44.2489 78.4191 44.1985 78.4501C42.4384 79.554 40.6834 80.6528 38.9336 81.7464C38.2448 82.1758 37.8325 82.0659 37.1437 81.633C35.4374 80.5612 33.7323 79.4933 32.0283 78.4294C32.0143 78.4208 31.9983 78.4162 31.9819 78.4162C31.9655 78.4162 31.9494 78.4208 31.9355 78.4294C30.133 79.5654 28.3242 80.6986 26.5091 81.8289C26.0316 82.1266 25.5352 82.1094 25.0198 81.7773C23.2677 80.6505 21.515 79.5368 19.7618 78.4363C19.7428 78.4245 19.721 78.4182 19.6988 78.4182C19.6766 78.4182 19.655 78.4245 19.6364 78.4363C17.8373 79.5689 16.0331 80.6986 14.2238 81.8254C13.6071 82.2102 13.1158 81.9886 12.5077 81.6021C10.8346 80.5394 9.15468 79.4881 7.46784 78.4483C7.4186 78.4186 7.36936 78.4191 7.32012 78.4501C5.46266 79.6216 3.6092 80.7828 1.75975 81.9336C1.45972 82.1203 1.10815 82.1094 0.705054 81.901C0.110712 81.5953 -0.0078125 81.1761 -0.0078125 80.4976C-0.0078125 56.9999 -0.0078125 33.5022 -0.0078125 10.0045C-0.0078125 5.76339 3.00512 1.94827 7.21877 1.1581C7.83143 1.04359 8.97259 0.986328 10.6422 0.986328C25.589 0.986328 40.5351 0.986328 55.4807 0.986328C56.5847 0.986328 57.4332 1.06363 58.0264 1.21822C60.232 1.79195 61.8564 3.1862 62.8997 5.40095C62.9104 5.42352 62.9274 5.4426 62.9487 5.45597C62.9699 5.46935 62.9947 5.47648 63.0199 5.47653C68.4354 5.47653 73.8624 5.47653 79.3008 5.47653C79.8138 5.47653 80.1826 5.53608 80.407 5.65518C81.2899 6.12412 81.1611 7.55673 80.2181 7.91917C79.7783 8.08751 79.2424 7.99647 78.7631 8.12187C77.0168 8.58108 75.8859 9.6123 75.3706 11.2155C75.2183 11.6873 75.1427 12.347 75.1438 13.1944C75.145 15.3679 75.145 17.5397 75.1438 19.7098C75.1404 23.3274 72.3783 26.318 68.8294 26.7698C68.5259 26.8087 67.3819 26.8276 65.3973 26.8265C60.859 26.8242 56.3213 26.8219 51.7841 26.8196C51.7566 26.8196 51.7389 26.8225 51.7309 26.8282ZM20.1242 75.7652C22.0126 76.8978 23.8781 78.0595 25.7207 79.2505C25.749 79.2685 25.7817 79.2783 25.8152 79.2786C25.8486 79.2789 25.8813 79.2697 25.9096 79.2522C27.585 78.2067 29.2587 77.1583 30.9306 76.107C31.5902 75.6931 32.0523 75.4938 32.7205 75.9129C34.507 77.0352 36.2854 78.1529 38.0558 79.266C38.0745 79.2778 38.0961 79.2841 38.1183 79.2841C38.1405 79.2841 38.1623 79.2778 38.1812 79.266C39.899 78.1918 41.6122 77.1188 43.3208 76.0469C43.9323 75.6639 44.3909 75.5264 45.0024 75.9112C46.364 76.7655 47.7205 77.6204 49.0718 78.4758C49.0776 78.4792 49.0842 78.4811 49.0909 78.4812C49.0976 78.4814 49.1042 78.4798 49.11 78.4766C49.1158 78.4735 49.1206 78.4689 49.1238 78.4633C49.1271 78.4577 49.1287 78.4514 49.1285 78.4449C49.1285 55.0749 49.1405 31.7014 49.1216 8.32972C49.1205 6.56043 49.6598 4.98926 50.7397 3.61621C50.7798 3.56353 50.7672 3.53719 50.7019 3.53719C37.3493 3.53719 23.9966 3.53719 10.644 3.53719C8.97431 3.53719 7.83601 3.61792 7.22908 3.77939C5.03722 4.36343 3.23187 6.22375 2.69593 8.4637C2.58027 8.94811 2.52244 9.69418 2.52244 10.7019C2.52129 33.272 2.52129 55.8462 2.52244 78.4243C2.52233 78.4329 2.52456 78.4415 2.5289 78.449C2.53324 78.4565 2.53952 78.4627 2.54709 78.4669C2.55465 78.4711 2.56322 78.4732 2.57188 78.473C2.58055 78.4727 2.58898 78.4701 2.5963 78.4655C3.85026 77.6811 5.10937 76.8903 6.37364 76.0933C7.0092 75.6913 7.44723 75.5024 8.09311 75.9026C9.88415 77.0146 11.6706 78.1305 13.4525 79.2505C13.4781 79.2669 13.5079 79.2756 13.5384 79.2756C13.5688 79.2756 13.5986 79.2669 13.6243 79.2505C15.381 78.1489 17.1439 77.0455 18.9132 75.9404C19.2654 75.7205 19.791 75.5677 20.1242 75.7652ZM59.3731 4.73446C56.4049 2.03587 51.6673 4.1865 51.6725 8.20088C51.6816 13.5408 51.6856 18.8721 51.6845 24.1949C51.6845 24.2213 51.695 24.2466 51.7137 24.2653C51.7324 24.284 51.7577 24.2945 51.7841 24.2945H62.4754C62.5418 24.2945 62.5544 24.2687 62.5132 24.2172C61.1785 22.5613 60.8831 21.0686 60.8813 18.808C60.879 15.3152 60.8819 11.8225 60.8899 8.32972C60.8922 6.85589 60.3866 5.65747 59.3731 4.73446ZM72.6016 12.8921C72.6084 11.0163 73.0413 9.60085 74.2042 8.11328C74.2523 8.05259 74.2374 8.02224 74.1596 8.02224H63.6366C63.4832 8.02224 63.4064 8.09896 63.4064 8.25242C63.4064 12.154 63.403 15.9308 63.3961 19.5827C63.3927 22.1782 65.3492 24.1571 67.8898 24.2516C70.5403 24.3495 72.5998 22.192 72.5947 19.581C72.5912 17.3513 72.5935 15.1217 72.6016 12.8921Z" fill="#909090"/>
<path d="M27.1924 11.2522C29.3413 11.5614 31.2205 12.6591 31.9523 14.7667C32.1069 15.2145 32.1315 15.593 32.0262 15.9022C31.7668 16.6563 30.6296 16.9431 30.0284 16.3917C29.899 16.2738 29.7507 16.0007 29.5835 15.5724C28.7642 13.463 26.5826 13.2139 24.5986 13.4801C23.805 13.5878 23.1689 13.8266 22.6902 14.1964C21.486 15.1292 21.5565 16.9809 22.9444 17.6285C23.4449 17.8621 24.0684 18.0694 24.8151 18.2503C28.2626 19.0869 33.4193 19.841 32.7803 24.7555C32.4178 27.5434 29.7708 29.122 27.1907 29.3797C27.1346 29.3854 27.1048 29.4163 27.1014 29.4724C27.0773 29.8469 27.0716 30.0851 27.0842 30.187C27.3556 32.2603 24.2929 32.2912 24.5591 30.1458C24.5751 30.0175 24.5688 29.7644 24.5402 29.3865C24.5356 29.3293 24.5047 29.2983 24.4475 29.2938C22.5837 29.1186 20.8625 28.2562 19.7528 26.7481C19.2593 26.0758 18.9547 25.3767 18.839 24.6507C18.6895 23.7248 19.4591 23.0102 20.3523 23.1751C21.3143 23.3555 21.2782 24.3621 21.7162 25.0767C22.8207 26.8803 25.162 27.1998 27.1735 27.0143C28.2259 26.9158 29.0367 26.5809 29.6059 26.0094C30.6056 25.0045 30.6348 23.3297 29.4564 22.4897C29.1071 22.2412 28.6874 22.0426 28.1973 21.8937C27.343 21.636 25.9568 21.2661 24.0386 20.784C23.3939 20.6214 22.7091 20.3706 21.9842 20.0316C18.2807 18.3053 18.6157 13.4578 22.1285 11.8259C22.7892 11.519 23.564 11.3112 24.4526 11.2024C24.5144 11.1944 24.5465 11.1595 24.5488 11.0976C24.5608 10.5771 24.4767 9.92096 24.6605 9.48465C24.9593 8.77178 25.777 8.5124 26.4469 8.88344C27.3058 9.35926 27.055 10.3057 27.0979 11.1492C27.1014 11.2098 27.1329 11.2442 27.1924 11.2522Z" fill="#B6FD85"/>
<path d="M15.8029 36.9668L7.53709 36.9524C6.85214 36.9512 6.29591 37.5055 6.29471 38.1904L6.2946 38.2557C6.2934 38.9406 6.8477 39.4969 7.53265 39.4981L15.7985 39.5125C16.4834 39.5137 17.0396 38.9594 17.0408 38.2744L17.0409 38.2092C17.0421 37.5242 16.4878 36.968 15.8029 36.9668Z" fill="#B6FD85"/>
<path d="M44.1067 36.9609H20.9136C20.2192 36.9609 19.6562 37.5239 19.6562 38.2183V38.2493C19.6562 38.9437 20.2192 39.5066 20.9136 39.5066H44.1067C44.8012 39.5066 45.3641 38.9437 45.3641 38.2493V38.2183C45.3641 37.5239 44.8012 36.9609 44.1067 36.9609Z" fill="#B6FD85"/>
<path d="M44.1311 44.7441H7.54646C6.85202 44.7441 6.28906 45.3071 6.28906 46.0015V46.0256C6.28906 46.72 6.85202 47.283 7.54646 47.283H44.1311C44.8256 47.283 45.3885 46.72 45.3885 46.0256V46.0015C45.3885 45.3071 44.8256 44.7441 44.1311 44.7441Z" fill="#B6FD85"/>
<path d="M25.4128 52.5037L7.54474 52.5349C6.85125 52.5361 6.29004 53.0993 6.29125 53.7928L6.29133 53.834C6.29254 54.5275 6.8557 55.0887 7.54919 55.0875L25.4172 55.0563C26.1107 55.0551 26.6719 54.4919 26.6707 53.7984L26.6706 53.7572C26.6694 53.0637 26.1063 52.5025 25.4128 52.5037Z" fill="#B6FD85"/>
<path d="M44.1328 52.5205H30.7583C30.0677 52.5205 29.5078 53.0804 29.5078 53.771V53.8191C29.5078 54.5098 30.0677 55.0697 30.7583 55.0697H44.1328C44.8234 55.0697 45.3833 54.5098 45.3833 53.8191V53.771C45.3833 53.0804 44.8234 52.5205 44.1328 52.5205Z" fill="#B6FD85"/>
<path d="M44.1174 60.3018H7.55676C6.85663 60.3018 6.28906 60.8693 6.28906 61.5695V61.5935C6.28906 62.2936 6.85663 62.8612 7.55676 62.8612H44.1174C44.8175 62.8612 45.3851 62.2936 45.3851 61.5935V61.5695C45.3851 60.8693 44.8175 60.3018 44.1174 60.3018Z" fill="#B6FD85"/>
<path d="M25.576 68.0977H7.53959C6.84894 68.0977 6.28906 68.6575 6.28906 69.3482V69.386C6.28906 70.0766 6.84894 70.6365 7.53959 70.6365H25.576C26.2666 70.6365 26.8265 70.0766 26.8265 69.386V69.3482C26.8265 68.6575 26.2666 68.0977 25.576 68.0977Z" fill="#B6FD85"/>
<path d="M44.1371 68.1071L32.7107 68.0871C32.0248 68.0859 31.4678 68.641 31.4666 69.3269L31.4665 69.3819C31.4653 70.0678 32.0204 70.6248 32.7063 70.626L44.1327 70.6459C44.8186 70.6471 45.3756 70.092 45.3768 69.4061L45.3769 69.3512C45.3781 68.6653 44.823 68.1083 44.1371 68.1071Z" fill="#B6FD85"/>
</svg>
