<svg width="62" height="50" viewBox="0 0 62 50" fill="none" xmlns="http://www.w3.org/2000/svg">
<path d="M6.27701 48.6828H6.27723C22.3213 48.6866 38.3649 48.689 54.408 48.69C55.8029 48.69 56.6678 48.6232 57.0883 48.5231L6.27701 48.6828ZM6.27701 48.6828C5.00346 48.6828 3.88799 48.2985 2.89783 47.5224M6.27701 48.6828L2.89783 47.5224M1.05427 5.04825L1.05426 5.04831C0.967483 5.45608 0.910006 6.32943 0.91 7.75307L1.05427 5.04825ZM1.05427 5.04825C1.56065 2.66788 3.70513 0.930368 6.20436 0.930368H6.20447M1.05427 5.04825L6.20447 0.930368M6.20447 0.930368C22.7089 0.928431 39.2128 0.922619 55.7163 0.912932L55.7165 0.912932M6.20447 0.930368L55.7165 0.912932M55.7165 0.912932C58.6139 0.910465 60.7843 2.96841 61.09 5.91579M55.7165 0.912932L61.09 5.91579M2.46426 4.75784L2.46475 4.75657C3.10857 3.0792 4.6722 2.19366 6.35838 2.19366M2.46426 4.75784L58.9356 6.37293L59.8456 6.37512C59.8456 6.37492 59.8456 6.37473 59.8456 6.37453C59.8479 5.37086 59.5452 4.46385 58.9263 3.69644C58.4168 3.06433 57.8414 2.66524 57.1622 2.4419C56.5167 2.22959 55.8255 2.19366 55.1273 2.19366C38.871 2.19269 22.6147 2.19269 6.35838 2.19366M2.46426 4.75784C2.26598 5.27676 2.19944 5.96872 2.19944 6.74467M2.46426 4.75784L25.6013 32.7137M6.35838 2.19366V3.10366V2.19366ZM25.6013 32.7137C25.5986 32.7168 25.596 32.72 25.5933 32.7232L25.6963 32.8091C25.8625 32.9761 26.0288 33.1432 26.1949 33.3103L25.5446 33.9468C25.5458 33.9481 25.547 33.9493 25.5482 33.9505M25.6013 32.7137C24.5173 31.6252 23.4302 30.5391 22.3401 29.4555C21.723 28.8413 21.2106 28.4277 20.8028 28.2146C19.0214 27.2832 16.7416 27.584 15.2842 29.0385L25.6013 32.7137ZM25.5482 33.9505C24.2693 32.6639 22.9861 31.3807 21.6985 30.1009L21.6981 30.1005C21.099 29.5042 20.6649 29.1693 20.3813 29.0211L20.3811 29.021C18.9411 28.2681 17.0945 28.5174 15.9271 29.6826L15.9269 29.6827C11.8821 33.7179 7.84013 37.7564 3.80109 41.7984L3.80087 41.7986C3.76515 41.8343 3.68355 41.912 3.56156 41.9766C3.45234 42.0344 3.14212 42.1679 2.77382 42.0162C2.40469 41.8642 2.27846 41.55 2.24166 41.4309C2.20073 41.2985 2.19799 41.1854 2.19799 41.1348C2.19605 29.6733 2.19654 18.21 2.19944 6.74467M25.5482 33.9505C25.6441 34.0475 25.7591 34.123 25.8854 34.1725L25.8855 34.1725C26.0137 34.2227 26.1498 34.2447 26.2846 34.2387L26.285 34.2386C26.4198 34.2326 26.5512 34.1986 26.671 34.1399M25.5482 33.9505L26.671 34.1399M2.19944 6.74467L3.10944 6.7449L2.19944 6.74467ZM26.671 34.1399C26.6709 34.1399 26.6709 34.14 26.6708 34.14L26.2705 33.3228L26.671 34.1399ZM26.671 34.1399C26.791 34.0811 26.8969 33.9987 26.9828 33.8986L26.9829 33.8986L26.9912 33.8887C30.6781 29.4665 34.3664 25.0401 38.0562 20.6092L38.0564 20.609C38.9793 19.5001 39.5718 18.9129 39.8742 18.7124C40.5976 18.2341 41.4108 18.0452 42.3606 18.1634L42.3609 18.1634C43.4696 18.301 44.1923 18.7949 45.0059 19.7454L45.0059 19.7454C49.3846 24.8603 53.7676 29.9733 58.155 35.0843L58.1596 35.0896C58.1903 35.1249 58.2626 35.2045 58.3728 35.2758C58.4566 35.33 58.7769 35.5179 59.1854 35.3737C59.6035 35.2262 59.7327 34.8677 59.7639 34.7632C59.8025 34.6336 59.8049 34.5229 59.8049 34.4752L26.671 34.1399ZM26.1697 36.2673L26.171 36.2677C26.3715 36.3362 26.6653 36.2788 26.9118 35.9845C31.1175 30.938 35.3227 25.8916 39.5275 20.8451L39.5276 20.8449C39.9934 20.2862 40.495 19.7823 41.0113 19.5702C41.6932 19.2893 42.3348 19.339 42.8977 19.6231C43.4006 19.8769 43.7931 20.2957 44.0926 20.6453C49.2371 26.65 54.3735 32.6436 59.5015 38.626L59.5032 38.628C59.7039 38.8634 59.8118 39.1613 59.8122 39.4668C59.8122 39.4672 59.8122 39.4677 59.8122 39.4681L26.1697 36.2673ZM26.1697 36.2673C26.1735 36.2686 26.1243 36.2507 26.0153 36.17C25.9113 36.0929 25.7788 35.9779 25.6164 35.8155L25.616 35.8151M26.1697 36.2673L25.616 35.8151M25.616 35.8151C23.9762 34.1773 22.3364 32.538 20.6967 30.8973L20.6965 30.8971M25.616 35.8151L20.6965 30.8971M20.6965 30.8971C20.4001 30.6007 20.0318 30.2581 19.577 30.047C19.0745 29.8137 18.5217 29.7632 17.9183 29.9435C17.4115 30.0948 16.9342 30.4795 16.505 30.9086C12.0006 35.4121 7.5035 39.9092 3.01362 44.4C2.84384 44.5679 2.74184 44.79 2.72283 45.0245C2.70349 45.2631 2.77108 45.4983 2.90941 45.6887L2.91298 45.6936M20.6965 30.8971L2.91298 45.6936M2.91298 45.6936C3.46376 46.4411 4.08079 46.9067 4.84009 47.1573C5.55018 47.3917 6.32683 47.4151 7.12238 47.4151M2.91298 45.6936L54.6166 47.4166M54.6166 47.4166H54.616C38.7838 47.4204 22.9526 47.4199 7.12238 47.4151M54.6166 47.4166C55.7451 47.4156 56.679 47.3465 57.2576 47.1258L54.6166 47.4166ZM7.12238 47.4151L7.12266 46.5051L7.12238 47.4151ZM61.09 5.91579V43.7221C60.8856 46.0613 59.2907 47.9973 57.0886 48.523L61.09 5.91579ZM2.89783 47.5224C1.60168 46.5055 0.945427 45.1367 0.941964 43.3143L2.89783 47.5224ZM0.941964 43.314C0.92356 31.46 0.912906 19.6064 0.91 7.75329L0.941964 43.314ZM57.2578 47.1257C58.8345 46.5244 59.807 45.0158 59.8107 43.3178L57.2578 47.1257Z" stroke="#006350" stroke-width="1.82"/>
<path d="M20.786 15.5008C20.786 16.1948 20.6493 16.8819 20.3838 17.523C20.1182 18.1641 19.729 18.7466 19.2383 19.2373C18.7476 19.728 18.1651 20.1172 17.524 20.3828C16.8829 20.6483 16.1957 20.785 15.5018 20.785C14.1004 20.785 12.7563 20.2283 11.7653 19.2373C10.7743 18.2463 10.2176 16.9023 10.2176 15.5008C10.2176 14.0994 10.7743 12.7553 11.7653 11.7643C12.7563 10.7734 14.1004 10.2166 15.5018 10.2166C16.9033 10.2166 18.2473 10.7734 19.2383 11.7643C20.2293 12.7553 20.786 14.0994 20.786 15.5008ZM19.5082 15.5008C19.5082 14.4383 19.0861 13.4192 18.3347 12.6679C17.5834 11.9166 16.5644 11.4945 15.5018 11.4945C14.4393 11.4945 13.4202 11.9166 12.6689 12.6679C11.9175 13.4192 11.4954 14.4383 11.4954 15.5008C11.4954 16.5634 11.9175 17.5824 12.6689 18.3338C13.4202 19.0851 14.4393 19.5072 15.5018 19.5072C16.5644 19.5072 17.5834 19.0851 18.3347 18.3338C19.0861 17.5824 19.5082 16.5634 19.5082 15.5008Z" stroke="#006350" stroke-width="1.82"/>
</svg>
