<svg width="489" height="69" viewBox="0 0 489 69" fill="none" xmlns="http://www.w3.org/2000/svg">
<path d="M270.101 0.595829C265.91 1.49707 262.351 3.43473 259.286 6.45389C255.051 10.6447 253.248 15.1058 253.248 21.3243C253.293 27.3627 255.096 31.9139 259.106 35.9695C263.567 40.4306 268.479 42.3232 275.869 42.3232C281.096 42.3232 285.152 41.422 289.658 39.259L292.903 37.6819V29.1651V20.6484H287.946H282.989V26.1009V31.5084L281.322 32.2294C279.159 33.1757 273.886 33.1757 271.678 32.2744C267.398 30.4269 264.829 26.2361 264.874 21.054C264.874 17.6293 265.775 15.1959 267.803 13.078C270.327 10.4644 272.399 9.60823 276.455 9.60823C280.33 9.60823 282.809 10.5095 285.332 12.8527L286.549 14.0243L290.199 10.7348L293.849 7.44525L292.182 5.73289C287.63 1.09151 278.077 -1.16159 270.101 0.595829Z" fill="#96A9B3"/>
<path d="M0 21.3244V41.8276H15.5464H31.0928V37.0961V32.3646H21.4045H11.7161V16.5929V0.821217H5.85806H0V21.3244Z" fill="#96A9B3"/>
<path d="M41.0963 14.8806C41.2314 28.3541 41.3216 29.1201 42.3129 31.5986C45.287 39.0788 50.8747 42.4585 60.3828 42.4585C69.8909 42.4585 75.4786 39.0788 78.4527 31.5986C79.444 29.1201 79.5342 28.3541 79.6693 14.8806L79.8496 0.821205H73.9465H68.0433V13.5287C68.0433 20.5584 67.818 27.0022 67.5927 27.8584C67.3674 28.7596 66.4211 30.1566 65.5649 31.0127C64.1229 32.4097 63.6723 32.5899 60.9235 32.7251C58.355 32.8603 57.6791 32.7251 56.3272 31.8239C55.471 31.2381 54.3445 29.9763 53.8488 28.985C53.0377 27.3177 52.9476 26.1461 52.8124 13.9793L52.6772 0.821205H46.8191H40.916L41.0963 14.8806Z" fill="#96A9B3"/>
<path d="M99.2258 10.8249C102.2 16.3675 106.976 24.6589 109.815 29.3003L114.998 37.772H117.611H120.225L125.632 28.6244C129.958 21.3243 136.087 10.3292 140.548 1.81249L141.088 0.821129H136.402H131.761L125.136 11.9514C121.486 18.1249 118.332 23.3972 118.107 23.7126C117.836 24.1632 115.583 20.7836 110.581 12.5823L103.462 0.821129H98.64H93.8184L99.2258 10.8249Z" fill="#96A9B3"/>
<path d="M155.915 5.3273V9.8335H172.137H188.36V5.3273V0.821095H172.137H155.915V5.3273Z" fill="#96A9B3"/>
<path d="M201.878 3.61506V6.45396L216.568 24.1183L231.213 41.8276H235.945H240.631V39.3492C240.631 36.8708 240.631 36.8708 235.584 30.427C232.79 26.9121 226.166 18.801 220.894 12.4021L211.296 0.821217H206.564H201.878V3.61506Z" fill="#96A9B3"/>
<path d="M229.365 4.47132V8.12134L234.457 14.2498C237.206 17.6294 239.729 20.6936 240.045 21.0541C240.496 21.6399 240.586 19.6122 240.631 11.2757V0.821301H234.998H229.365V4.47132Z" fill="#96A9B3"/>
<path d="M306.872 5.32742V9.83362H317.146C325.978 9.83362 327.601 9.92374 328.952 10.6447C333.233 12.7626 332.918 19.8374 328.457 21.4146C327.465 21.775 323.455 21.9553 316.921 21.9553L306.872 22.0004V31.914V41.8276H312.505H318.138V36.1949V30.5621H321.427L324.672 30.6072L328.457 36.1949L332.242 41.8276H338.28H344.319L339.948 35.4288C335.667 29.1652 335.577 29.03 336.478 28.3541C337.019 27.9485 338.145 27.0924 339.001 26.4164C339.903 25.7405 341.209 23.938 341.975 22.4059C343.192 19.9726 343.372 19.1164 343.372 15.962C343.372 12.8978 343.147 11.9065 342.111 9.60831C340.038 5.28235 335.892 2.30826 330.304 1.27184C328.998 1.04652 323.185 0.821217 317.417 0.821217H306.872V5.32742Z" fill="#96A9B3"/>
<path d="M135.997 26.101L130.68 35.6091V38.7184V41.8276H136.087H141.495V29.2103C141.495 22.2707 141.45 16.5929 141.404 16.5929C141.314 16.5929 138.881 20.8738 135.997 26.101Z" fill="#96A9B3"/>
<path d="M155.915 20.8737V25.1545H172.137H188.36V20.8737V16.5928H172.137H155.915V20.8737Z" fill="#96A9B3"/>
<path d="M93.7285 29.3004V41.8276H99.136H104.543V39.0789C104.543 36.0146 104.724 36.3751 97.1532 22.9016L93.7285 16.8182V29.3004Z" fill="#96A9B3"/>
<path d="M201.878 31.4634V41.8276H207.285H212.693V38.1776V34.5276L207.466 27.8134C204.537 24.1183 202.103 21.0991 202.058 21.0991C201.968 21.0991 201.878 25.7405 201.878 31.4634Z" fill="#96A9B3"/>
<path d="M155.915 37.3214V41.8276H172.137H188.36V37.3214V32.8152H172.137H155.915V37.3214Z" fill="#96A9B3"/>
<path d="M1.08143 54.1295C0.991311 54.4449 0.946249 57.8245 0.991311 61.6548L1.1265 68.6394L6.2185 68.7746L11.2654 68.9098V67.7382C11.2654 66.6116 11.2654 66.6116 7.20987 66.6116H3.15429V60.0776C3.15429 53.814 3.10923 53.5436 2.25305 53.5436C1.75736 53.5436 1.21662 53.814 1.08143 54.1295Z" fill="#96A9B3"/>
<path d="M30.6869 54.535C30.4616 55.1208 29.1548 58.3653 27.7578 61.7449C26.3609 65.1246 25.2344 68.1438 25.2344 68.3691C25.2344 68.6394 25.6399 68.8647 26.1807 68.8647C26.8566 68.8647 27.3523 68.2789 28.0733 66.6116L29.0196 64.3585H31.9937H34.9678L35.5536 66.0258C35.9141 66.9721 36.3647 68.0086 36.59 68.2789C37.0857 68.9098 38.753 69.0901 38.753 68.5043C38.753 68.2339 34.6974 58.0048 33.0301 54.0844C32.6245 53.1832 31.0924 53.4535 30.6869 54.535ZM33.1653 59.4918C33.6159 60.7986 34.1116 62.0153 34.1567 62.1956C34.2468 62.3758 33.3005 62.5561 32.0387 62.5561C30.777 62.5561 29.7406 62.4659 29.7406 62.3758C29.7406 61.79 31.7233 57.1486 31.9486 57.1486C32.1289 57.1486 32.6696 58.1851 33.1653 59.4918Z" fill="#96A9B3"/>
<path d="M55.8771 54.3548C53.9845 55.3011 52.9931 57.1036 53.3987 58.9962C53.7592 60.4832 54.8407 61.2042 58.716 62.3307C60.2031 62.7363 61.4648 63.4122 61.7352 63.9079C62.321 64.9894 62.321 65.0795 61.4648 65.8906C60.4734 66.9271 56.9135 66.8369 55.1111 65.7104C53.6691 64.8542 53.624 64.8542 53.1734 65.6653C52.6777 66.6567 53.1283 67.1524 55.5617 68.1888C61.1043 70.487 66.4216 66.5215 63.5827 62.1505C63.3574 61.8351 61.6 60.9789 59.6623 60.348C56.4179 59.2665 56.1024 59.0412 55.9672 57.8696C55.8771 57.1486 56.0574 56.3826 56.4179 56.2023C57.4092 55.5714 60.5636 55.7517 61.6901 56.5177C62.5463 57.1486 62.8167 57.1486 63.1321 56.6529C63.8531 55.5264 63.5377 54.9856 61.7352 54.2646C59.3919 53.3183 57.8598 53.3634 55.8771 54.3548Z" fill="#96A9B3"/>
<path d="M80.21 61.2043V68.9099L85.302 68.7747C89.9884 68.6395 90.3489 68.5945 90.3489 67.7383C90.3489 66.9272 89.9884 66.8371 86.4285 66.7019L82.4631 66.5667V64.3586V62.1055H85.8878C89.1322 62.1055 89.2674 62.0605 89.1322 61.0691C88.9971 60.1679 88.7267 60.0778 85.7526 59.9426L82.4631 59.8074V57.8247V55.7969H86.2933C90.0785 55.7969 90.1236 55.7969 90.1236 54.6703V53.5438H85.1668H80.21V61.2043Z" fill="#96A9B3"/>
<path d="M106.076 54.1295C105.985 54.4449 105.94 57.8246 105.985 61.6548L106.121 68.6394H107.247C108.284 68.6394 108.374 68.4592 108.509 66.0258L108.644 63.4573H110.311C111.844 63.4573 112.114 63.6376 113.691 66.161C114.998 68.2789 115.584 68.8647 116.485 68.8647C117.116 68.8647 117.611 68.7296 117.611 68.5043C117.611 68.324 116.89 67.1073 115.989 65.8005L114.412 63.4122L115.764 61.8351C117.927 59.3567 117.521 56.1122 114.818 54.4449C113.015 53.3634 106.481 53.1381 106.076 54.1295ZM114.412 57.2387C114.953 58.14 114.998 58.7709 114.637 59.7172C114.232 60.8888 114.052 60.9789 111.393 61.1141L108.599 61.2493V58.5005V55.7517L111.168 55.8869C113.421 56.0221 113.826 56.1573 114.412 57.2387Z" fill="#96A9B3"/>
<path d="M138.566 54.1296C138.431 54.445 138.386 57.8247 138.431 61.6549L138.566 68.6395L143.658 68.7747L148.705 68.9099V67.7383C148.705 66.6118 148.705 66.6118 144.65 66.6118H140.594V64.3586V62.1506L144.109 62.0154C147.218 61.8802 147.579 61.7901 147.579 60.979C147.579 60.1679 147.218 60.0778 144.109 59.9426L140.594 59.8074V57.8247V55.7969H144.695C148.66 55.7969 148.75 55.7518 148.615 54.7604C148.48 53.8141 148.254 53.7691 143.613 53.6339C139.918 53.5438 138.701 53.6339 138.566 54.1296Z" fill="#96A9B3"/>
<path d="M164.657 54.1295C164.567 54.4449 164.521 57.8246 164.567 61.6548C164.702 68.4592 164.747 68.6394 165.693 68.7746C166.684 68.9098 166.684 68.8197 166.82 63.5024L166.955 58.0499L171.236 63.4573C173.759 66.6567 175.832 68.8647 176.328 68.8647C177.004 68.8647 177.094 68.1888 177.094 61.1591V53.4986L176.102 53.6338C175.111 53.769 175.066 53.9492 174.931 59.0863L174.796 64.4487L170.47 58.9962C166.324 53.769 165.152 52.8227 164.657 54.1295Z" fill="#96A9B3"/>
<path d="M196.875 54.445C195.028 55.4364 194.081 56.6981 193.315 59.2216C191.648 64.7642 197.686 70.6673 202.508 68.1889C203.68 67.5581 203.86 67.5581 204.356 68.279C204.671 68.6846 205.212 68.9099 205.662 68.7297C206.248 68.5044 206.383 67.7834 206.383 64.8093V61.2043H203.635C201.291 61.2043 200.931 61.2944 201.066 61.9704C201.156 62.5111 201.697 62.8265 202.688 62.9167C205.662 63.2321 203.409 66.6117 200.21 66.6117C198.137 66.6117 196.695 65.5753 195.839 63.3673C194.892 61.0691 195.253 58.9061 196.92 57.1487C198.588 55.3462 201.381 55.2561 203.049 56.9234C203.95 57.8247 204.356 57.9598 205.076 57.5993C205.888 57.1487 205.888 57.0586 205.212 56.0672C203.68 53.6339 199.804 52.9129 196.875 54.445Z" fill="#96A9B3"/>
<path d="M222.335 54.1295C222.245 54.445 222.2 57.8246 222.245 61.6549C222.38 68.5043 222.38 68.6395 223.417 68.7747C224.363 68.9099 224.408 68.7747 224.408 66.2061V63.4574H226.211C227.878 63.4574 228.103 63.6376 229.816 66.1611C231.483 68.6395 232.7 69.4055 233.556 68.5944C233.691 68.4592 233.105 67.1975 232.204 65.8456L230.627 63.3672L231.798 62.1506C234.187 59.6271 233.556 55.4814 230.537 54.2197C228.509 53.3635 222.651 53.3184 222.335 54.1295ZM230.717 57.2388C231.303 58.3654 231.303 58.6357 230.717 59.7172C230.086 60.8438 229.726 60.979 227.202 61.1141L224.408 61.2493V58.5005V55.7518L227.202 55.8869C229.726 56.0221 230.086 56.1573 230.717 57.2388Z" fill="#96A9B3"/>
<path d="M253.789 54.3099C253.203 55.3914 247.841 68.3692 247.841 68.6846C247.841 68.8198 248.382 68.8649 249.012 68.7748C249.959 68.6846 250.364 68.234 250.995 66.6118L251.806 64.584H254.825H257.845L258.656 66.6118C259.287 68.234 259.692 68.6846 260.638 68.7748C261.269 68.8649 261.81 68.7748 261.765 68.5495C261.765 68.3692 260.413 64.9445 258.746 60.979C255.727 53.7691 254.735 52.4623 253.789 54.3099ZM256.673 61.4747C256.943 62.5111 256.853 62.5562 254.69 62.5562H252.437L253.609 59.5821L254.78 56.608L255.591 58.5006C256.042 59.5371 256.538 60.8889 256.673 61.4747Z" fill="#96A9B3"/>
<path d="M274.428 53.9493C274.428 54.2197 275.735 57.6444 277.312 61.5197C281.187 71.0278 281.187 71.0278 285.062 61.5197C286.64 57.6444 287.946 54.2197 287.946 53.9493C287.946 53.6789 287.496 53.5437 286.955 53.6338C286.099 53.724 285.558 54.7153 283.665 59.4919C282.449 62.6462 281.322 65.2148 281.187 65.2148C281.052 65.2148 279.97 62.6462 278.709 59.4919C276.816 54.7153 276.275 53.724 275.464 53.6338C274.878 53.5437 274.428 53.6789 274.428 53.9493Z" fill="#96A9B3"/>
<path d="M303.493 54.1295C303.358 54.4449 303.313 57.8245 303.358 61.6548L303.493 68.6394L308.585 68.7746L313.632 68.9098V67.7382C313.632 66.6116 313.632 66.6116 309.576 66.6116H305.521V64.3585V62.1054H308.9C312.19 62.1054 312.28 62.0604 312.28 60.9789C312.28 59.8974 312.19 59.8523 308.9 59.8523H305.521V57.8245V55.8418L309.486 55.7066C313.046 55.5714 313.407 55.4813 313.407 54.6702C313.407 53.814 313.046 53.769 308.54 53.6338C304.845 53.5436 303.628 53.6338 303.493 54.1295Z" fill="#96A9B3"/>
<path d="M329.403 61.2493V69L333.143 68.7747C335.802 68.6395 337.379 68.3241 338.461 67.6932C340.308 66.6568 342.021 63.5024 342.021 61.2043C342.021 60.303 341.57 58.6808 341.029 57.5993C339.587 54.7604 337.064 53.5437 332.693 53.5437H329.403V61.2493ZM337.65 56.7431C339.317 58.0499 340.083 60.7086 339.362 62.9617C338.596 65.5302 337.019 66.6117 334.09 66.6117H331.656V61.2043V55.7968H334.09C335.847 55.7968 336.793 56.0672 337.65 56.7431Z" fill="#96A9B3"/>
<path d="M366.534 54.1746C361.938 56.2024 360.631 62.2407 363.966 66.2062C366.083 68.6846 369.012 69.4507 371.491 68.1889C372.663 67.5581 372.843 67.5581 373.338 68.279C373.654 68.6846 374.195 68.9099 374.645 68.7297C375.231 68.5044 375.366 67.7834 375.366 64.8093V61.2043H372.617C370.274 61.2043 369.914 61.2944 370.049 61.9704C370.139 62.5111 370.68 62.8265 371.671 62.9167C373.474 63.0969 373.609 64.3586 371.942 65.6654C369.779 67.3327 366.174 66.5216 365.092 64.1333C363.92 61.5197 364.822 57.329 366.759 56.2475C368.382 55.3913 370.815 55.7067 372.032 56.9234C372.978 57.8697 373.338 57.9598 374.059 57.5543C374.871 57.1487 374.916 56.9685 374.375 56.1574C372.843 53.8592 369.283 53.003 366.534 54.1746Z" fill="#96A9B3"/>
<path d="M394.518 54.445C390.011 56.6981 388.975 63.0519 392.535 66.6118C395.329 69.3606 399.024 69.4507 401.908 66.792C405.242 63.8179 405.378 58.8611 402.223 55.887C399.7 53.4086 397.447 53.0031 394.518 54.445ZM400.601 57.1488C402.358 58.9963 402.674 61.1593 401.547 63.6377C400.556 65.9358 399.565 66.6118 397.221 66.6118C394.067 66.6118 391.949 63.0068 392.941 59.3568C393.932 55.7518 398.168 54.5352 400.601 57.1488Z" fill="#96A9B3"/>
<path d="M423.809 54.1745C421.916 54.9856 420.068 57.2838 419.708 59.2214C418.717 64.4486 421.736 68.6394 426.467 68.6394C429.396 68.5943 431.424 67.2425 432.641 64.6289C434.849 59.7171 432.01 54.1745 427.053 53.7239C426.017 53.5887 424.53 53.814 423.809 54.1745ZM428.901 56.5177C433.046 59.4017 431.244 66.6116 426.377 66.6116C425.251 66.6116 424.439 66.2061 423.313 65.0795C422.006 63.7727 421.781 63.232 421.781 61.3394C421.781 59.1764 422.502 57.5542 424.034 56.3825C424.98 55.6165 427.684 55.6615 428.901 56.5177Z" fill="#96A9B3"/>
<path d="M449.449 54.1294C449.358 54.4449 449.313 57.8245 449.358 61.6548L449.494 68.6394H453.099C455.892 68.5943 457.109 68.4141 458.281 67.6931C460.173 66.6567 461.886 63.5023 461.886 61.2042C461.886 58.5455 460.173 55.7066 457.83 54.535C455.487 53.3634 449.854 53.093 449.449 54.1294ZM457.515 56.743C459.182 58.0498 459.948 60.7085 459.227 62.9616C458.461 65.5301 456.884 66.6116 453.955 66.6116H451.521V61.2042V55.7967H453.955C455.712 55.7967 456.659 56.0671 457.515 56.743Z" fill="#96A9B3"/>
<path d="M479.595 54.1746C477.882 54.9406 477.206 56.1123 477.206 58.1851C477.206 60.1678 478.153 60.979 481.938 62.2407C483.65 62.7814 485.228 63.5926 485.498 64.0432C486.895 66.2963 482.208 67.5129 479.144 65.7105C477.477 64.7642 476.801 64.9895 476.756 66.4765C476.756 67.2876 479.099 68.3691 481.442 68.6846C485.228 69.2253 488.021 67.4679 488.021 64.5839C488.021 62.4209 486.895 61.2944 484.056 60.5283C480.045 59.4018 479.46 59.0864 479.46 57.9147C479.46 57.3289 479.685 56.653 480 56.3376C480.766 55.5715 483.74 55.6616 485.318 56.4728C486.534 57.1036 486.67 57.1036 487.12 56.2474C487.526 55.5265 487.39 55.2561 486.444 54.6252C484.867 53.5888 481.397 53.3635 479.595 54.1746Z" fill="#96A9B3"/>
<path d="M366.715 0.926868C366.715 1.06919 366.638 1.14583 366.496 1.14583C366.31 1.14583 366.277 1.22247 366.277 1.58376C366.277 1.94505 366.244 2.02168 366.058 2.02168C365.872 2.02168 365.839 2.09832 365.839 2.51435C365.839 2.96323 365.817 3.00702 365.566 3.00702C365.325 3.00702 365.292 3.05081 365.292 3.44494C365.292 3.80623 365.259 3.88287 365.073 3.88287C364.876 3.88287 364.854 3.95951 364.854 4.5945C364.854 5.22949 364.832 5.30613 364.635 5.30613C364.449 5.30613 364.416 5.38277 364.416 5.74406C364.416 6.10535 364.383 6.18198 364.197 6.18198C364.011 6.18198 363.978 6.25862 363.978 6.61991C363.978 6.9812 363.945 7.05783 363.759 7.05783C363.573 7.05783 363.54 7.13447 363.54 7.5505C363.54 7.96653 363.507 8.04317 363.321 8.04317C363.124 8.04317 363.102 8.11981 363.102 8.70006C363.102 9.3241 363.091 9.35695 362.828 9.35695C362.588 9.35695 362.555 9.40074 362.555 9.79488C362.555 10.1562 362.522 10.2328 362.336 10.2328C362.15 10.2328 362.117 10.3094 362.117 10.7255C362.117 11.1415 362.084 11.2181 361.898 11.2181C361.701 11.2181 361.679 11.2948 361.679 11.875C361.679 12.4553 361.657 12.5319 361.46 12.5319C361.274 12.5319 361.241 12.6086 361.241 13.0246C361.241 13.4406 361.208 13.5172 361.022 13.5172C360.836 13.5172 360.803 13.5939 360.803 13.9552C360.803 14.3165 360.77 14.3931 360.584 14.3931C360.398 14.3931 360.365 14.4697 360.365 14.831C360.365 15.2252 360.343 15.269 360.091 15.269C359.829 15.269 359.818 15.2908 359.818 15.9806C359.818 16.6156 359.796 16.6922 359.599 16.6922C359.413 16.6922 359.38 16.7689 359.38 17.1301C359.38 17.4914 359.347 17.5681 359.161 17.5681C358.975 17.5681 358.942 17.6447 358.942 18.006C358.942 18.3673 358.909 18.4439 358.723 18.4439C358.537 18.4439 358.504 18.5206 358.504 18.9366C358.504 19.3526 358.471 19.4293 358.285 19.4293C358.088 19.4293 358.066 19.5059 358.066 20.0861C358.066 20.6664 358.044 20.743 357.847 20.743C357.661 20.743 357.628 20.8197 357.628 21.2357C357.628 21.6846 357.606 21.7284 357.354 21.7284C357.114 21.7284 357.081 21.7722 357.081 22.1663C357.081 22.5276 357.048 22.6042 356.862 22.6042C356.676 22.6042 356.643 22.6809 356.643 23.0421C356.643 23.4034 356.61 23.4801 356.424 23.4801C356.227 23.4801 356.205 23.5567 356.205 24.1917C356.205 24.8267 356.183 24.9033 355.986 24.9033C355.8 24.9033 355.767 24.98 355.767 25.3413C355.767 25.7025 355.734 25.7792 355.548 25.7792C355.362 25.7792 355.329 25.8558 355.329 26.2171C355.329 26.5784 355.296 26.655 355.11 26.655C354.913 26.655 354.891 26.7317 354.891 27.3667C354.891 28.0564 354.88 28.0783 354.617 28.0783C354.376 28.0783 354.344 28.1221 354.344 28.5162C354.344 28.8775 354.311 28.9541 354.125 28.9541C353.939 28.9541 353.906 29.0308 353.906 29.4468C353.906 29.8628 353.873 29.9395 353.687 29.9395C353.501 29.9395 353.468 30.0161 353.468 30.3774C353.468 30.7387 353.435 30.8153 353.249 30.8153C353.052 30.8153 353.03 30.892 353.03 31.4722C353.03 32.0525 353.008 32.1291 352.811 32.1291C352.625 32.1291 352.592 32.2057 352.592 32.6218C352.592 33.0378 352.559 33.1144 352.373 33.1144C352.187 33.1144 352.154 33.1911 352.154 33.5524C352.154 33.9465 352.132 33.9903 351.88 33.9903C351.639 33.9903 351.607 34.0341 351.607 34.4282C351.607 34.7895 351.574 34.8662 351.388 34.8662C351.191 34.8662 351.169 34.9428 351.169 35.5778C351.169 36.2128 351.147 36.2894 350.95 36.2894C350.764 36.2894 350.731 36.366 350.731 36.7273C350.731 37.0886 350.698 37.1653 350.512 37.1653C350.326 37.1653 350.293 37.2419 350.293 37.6579C350.293 38.074 350.26 38.1506 350.074 38.1506C349.888 38.1506 349.855 38.2272 349.855 38.5885C349.855 38.9498 349.822 39.0265 349.636 39.0265C349.439 39.0265 349.417 39.1031 349.417 39.6833C349.417 40.3074 349.406 40.3402 349.143 40.3402C348.891 40.3402 348.87 40.384 348.87 40.8329C348.87 41.2489 348.837 41.3256 348.651 41.3256C348.464 41.3256 348.432 41.4022 348.432 41.7635V42.2014H354.398H360.365V41.7635C360.365 41.4022 360.398 41.3256 360.584 41.3256C360.77 41.3256 360.803 41.2489 360.803 40.8329C360.803 40.4169 360.836 40.3402 361.022 40.3402C361.208 40.3402 361.241 40.2636 361.241 39.9023C361.241 39.541 361.274 39.4644 361.46 39.4644C361.657 39.4644 361.679 39.3877 361.679 38.8075C361.679 38.2272 361.701 38.1506 361.898 38.1506C362.084 38.1506 362.117 38.074 362.117 37.6579C362.117 37.2419 362.15 37.1653 362.336 37.1653C362.533 37.1653 362.555 37.0886 362.555 36.5084C362.555 35.8843 362.566 35.8515 362.828 35.8515C363.08 35.8515 363.102 35.8077 363.102 35.3588C363.102 34.9428 363.135 34.8662 363.321 34.8662C363.518 34.8662 363.54 34.7895 363.54 34.2093C363.54 33.629 363.562 33.5524 363.759 33.5524C363.945 33.5524 363.978 33.4757 363.978 33.1144C363.978 32.7532 364.011 32.6765 364.197 32.6765C364.394 32.6765 364.416 32.5999 364.416 31.9649C364.416 31.3299 364.438 31.2533 364.635 31.2533C364.821 31.2533 364.854 31.1766 364.854 30.8153C364.854 30.454 364.887 30.3774 365.073 30.3774C365.27 30.3774 365.292 30.3008 365.292 29.6658C365.292 28.976 365.303 28.9541 365.566 28.9541C365.817 28.9541 365.839 28.9104 365.839 28.5162C365.839 28.1549 365.872 28.0783 366.058 28.0783C366.255 28.0783 366.277 28.0017 366.277 27.3667C366.277 26.7317 366.299 26.655 366.496 26.655C366.682 26.655 366.715 26.5784 366.715 26.2171C366.715 25.8558 366.748 25.7792 366.934 25.7792C367.131 25.7792 367.153 25.7025 367.153 25.1223C367.153 24.542 367.175 24.4654 367.372 24.4654C367.558 24.4654 367.591 24.3888 367.591 23.9727C367.591 23.5567 367.624 23.4801 367.81 23.4801C368.007 23.4801 368.029 23.4034 368.029 22.8232C368.029 22.1991 368.04 22.1663 368.303 22.1663C368.554 22.1663 368.576 22.1225 368.576 21.6736C368.576 21.2576 368.609 21.181 368.795 21.181C368.992 21.181 369.014 21.1043 369.014 20.5241C369.014 19.9438 369.036 19.8672 369.233 19.8672C369.419 19.8672 369.452 19.7905 369.452 19.4293C369.452 19.068 369.485 18.9913 369.671 18.9913C369.868 18.9913 369.89 18.9147 369.89 18.2797C369.89 17.6447 369.912 17.5681 370.109 17.5681C370.295 17.5681 370.328 17.4914 370.328 17.1301C370.328 16.7689 370.361 16.6922 370.547 16.6922C370.744 16.6922 370.766 16.6156 370.766 15.9806C370.766 15.2908 370.777 15.269 371.04 15.269C371.291 15.269 371.313 15.2252 371.313 14.831C371.313 14.4697 371.346 14.3931 371.532 14.3931C371.729 14.3931 371.751 14.3165 371.751 13.6815C371.751 13.0465 371.773 12.9698 371.97 12.9698C372.113 12.9698 372.189 12.8932 372.189 12.7509C372.189 12.6086 372.266 12.5319 372.408 12.5319C372.594 12.5319 372.627 12.6086 372.627 13.0246C372.627 13.4406 372.66 13.5172 372.846 13.5172C373.032 13.5172 373.065 13.5939 373.065 13.9552C373.065 14.3165 373.098 14.3931 373.284 14.3931C373.481 14.3931 373.503 14.4697 373.503 15.05C373.503 15.674 373.514 15.7069 373.777 15.7069C374.028 15.7069 374.05 15.7507 374.05 16.1995C374.05 16.6156 374.083 16.6922 374.269 16.6922C374.455 16.6922 374.488 16.7689 374.488 17.1301C374.488 17.4914 374.521 17.5681 374.707 17.5681C374.904 17.5681 374.926 17.6447 374.926 18.2797C374.926 18.9147 374.948 18.9913 375.145 18.9913C375.331 18.9913 375.364 19.068 375.364 19.4293C375.364 19.7905 375.397 19.8672 375.583 19.8672C375.78 19.8672 375.802 19.9438 375.802 20.5241C375.802 21.1043 375.824 21.181 376.021 21.181C376.207 21.181 376.24 21.2576 376.24 21.6736C376.24 22.1225 376.262 22.1663 376.514 22.1663C376.776 22.1663 376.787 22.1991 376.787 22.8232C376.787 23.4034 376.809 23.4801 377.006 23.4801C377.192 23.4801 377.225 23.5567 377.225 23.9727C377.225 24.3888 377.258 24.4654 377.444 24.4654C377.641 24.4654 377.663 24.542 377.663 25.1223C377.663 25.7025 377.685 25.7792 377.882 25.7792C378.068 25.7792 378.101 25.8558 378.101 26.2171C378.101 26.5784 378.134 26.655 378.32 26.655C378.517 26.655 378.539 26.7317 378.539 27.3667C378.539 28.0017 378.561 28.0783 378.758 28.0783C378.944 28.0783 378.977 28.1549 378.977 28.5162C378.977 28.9104 379.01 28.9541 379.251 28.9541C379.513 28.9541 379.524 28.976 379.524 29.6658C379.524 30.3008 379.546 30.3774 379.743 30.3774C379.94 30.3774 379.962 30.454 379.962 31.0343C379.962 31.6145 379.984 31.6912 380.181 31.6912C380.367 31.6912 380.4 31.7678 380.4 32.1839C380.4 32.5999 380.433 32.6765 380.619 32.6765C380.816 32.6765 380.838 32.7532 380.838 33.3334C380.838 33.9137 380.86 33.9903 381.057 33.9903C381.243 33.9903 381.276 34.0669 381.276 34.4282C381.276 34.7895 381.309 34.8662 381.495 34.8662C381.692 34.8662 381.714 34.9428 381.714 35.5778C381.714 36.2675 381.725 36.2894 381.988 36.2894C382.24 36.2894 382.261 36.3332 382.261 36.7273C382.261 37.0886 382.294 37.1653 382.48 37.1653C382.667 37.1653 382.699 37.2419 382.699 37.6579C382.699 38.074 382.732 38.1506 382.918 38.1506C383.115 38.1506 383.137 38.2272 383.137 38.8075C383.137 39.3877 383.159 39.4644 383.356 39.4644C383.542 39.4644 383.575 39.541 383.575 39.9023C383.575 40.2636 383.608 40.3402 383.794 40.3402C383.991 40.3402 384.013 40.4169 384.013 41.0519C384.013 41.6869 384.035 41.7635 384.232 41.7635C384.374 41.7635 384.451 41.8401 384.451 41.9825C384.451 42.2014 384.528 42.2014 390.418 42.2014H396.385V41.5445C396.385 40.9643 396.363 40.8876 396.166 40.8876C395.979 40.8876 395.947 40.811 395.947 40.395C395.947 39.9461 395.925 39.9023 395.673 39.9023C395.432 39.9023 395.399 39.8585 395.399 39.4644C395.399 39.1031 395.366 39.0265 395.18 39.0265C394.983 39.0265 394.961 38.9498 394.961 38.3148C394.961 37.6798 394.939 37.6032 394.742 37.6032C394.556 37.6032 394.523 37.5266 394.523 37.1653C394.523 36.804 394.491 36.7273 394.304 36.7273C394.118 36.7273 394.085 36.6507 394.085 36.2894C394.085 35.9281 394.053 35.8515 393.866 35.8515C393.68 35.8515 393.648 35.7748 393.648 35.3588C393.648 34.9428 393.615 34.8662 393.429 34.8662C393.231 34.8662 393.21 34.7895 393.21 34.2093C393.21 33.5852 393.199 33.5524 392.936 33.5524C392.695 33.5524 392.662 33.5086 392.662 33.1144C392.662 32.7532 392.629 32.6765 392.443 32.6765C392.257 32.6765 392.224 32.5999 392.224 32.1839C392.224 31.7678 392.191 31.6912 392.005 31.6912C391.819 31.6912 391.786 31.6145 391.786 31.2533C391.786 30.892 391.753 30.8153 391.567 30.8153C391.37 30.8153 391.348 30.7387 391.348 30.1037C391.348 29.4687 391.327 29.3921 391.129 29.3921C390.943 29.3921 390.91 29.3154 390.91 28.9541C390.91 28.5929 390.878 28.5162 390.692 28.5162C390.505 28.5162 390.473 28.4396 390.473 28.0783C390.473 27.6842 390.451 27.6404 390.199 27.6404C389.947 27.6404 389.925 27.5966 389.925 27.1477C389.925 26.7317 389.892 26.655 389.706 26.655C389.509 26.655 389.487 26.5784 389.487 25.9981C389.487 25.4179 389.465 25.3413 389.268 25.3413C389.082 25.3413 389.049 25.2646 389.049 24.9033C389.049 24.542 389.016 24.4654 388.83 24.4654C388.644 24.4654 388.611 24.3888 388.611 23.9727C388.611 23.5567 388.579 23.4801 388.392 23.4801C388.206 23.4801 388.173 23.4034 388.173 23.0421C388.173 22.6809 388.141 22.6042 387.954 22.6042C387.757 22.6042 387.736 22.5276 387.736 21.8926C387.736 21.2029 387.725 21.181 387.462 21.181C387.221 21.181 387.188 21.1372 387.188 20.743C387.188 20.3817 387.155 20.3051 386.969 20.3051C386.783 20.3051 386.75 20.2285 386.75 19.8672C386.75 19.5059 386.717 19.4293 386.531 19.4293C386.345 19.4293 386.312 19.3526 386.312 18.9366C386.312 18.5206 386.279 18.4439 386.093 18.4439C385.896 18.4439 385.874 18.3673 385.874 17.787C385.874 17.2068 385.852 17.1301 385.655 17.1301C385.469 17.1301 385.436 17.0535 385.436 16.6922C385.436 16.3309 385.404 16.2543 385.217 16.2543C385.031 16.2543 384.998 16.1776 384.998 15.7616C384.998 15.3127 384.977 15.269 384.725 15.269C384.462 15.269 384.451 15.2361 384.451 14.6121C384.451 14.0318 384.429 13.9552 384.232 13.9552C384.046 13.9552 384.013 13.8785 384.013 13.4625C384.013 13.0465 383.98 12.9698 383.794 12.9698C383.608 12.9698 383.575 12.8932 383.575 12.5319C383.575 12.1706 383.542 12.094 383.356 12.094C383.17 12.094 383.137 12.0173 383.137 11.6561C383.137 11.2948 383.104 11.2181 382.918 11.2181C382.721 11.2181 382.699 11.1415 382.699 10.5065C382.699 9.87151 382.677 9.79488 382.48 9.79488C382.294 9.79488 382.261 9.71824 382.261 9.35695C382.261 8.96281 382.24 8.91902 381.988 8.91902C381.747 8.91902 381.714 8.87523 381.714 8.48109C381.714 8.11981 381.681 8.04317 381.495 8.04317C381.309 8.04317 381.276 7.96653 381.276 7.5505C381.276 7.13447 381.243 7.05783 381.057 7.05783C380.86 7.05783 380.838 6.9812 380.838 6.40095C380.838 5.82069 380.816 5.74406 380.619 5.74406C380.433 5.74406 380.4 5.66742 380.4 5.25139C380.4 4.83536 380.367 4.75872 380.181 4.75872C379.995 4.75872 379.962 4.68209 379.962 4.3208C379.962 3.95951 379.929 3.88287 379.743 3.88287C379.557 3.88287 379.524 3.80623 379.524 3.44494C379.524 3.05081 379.503 3.00702 379.251 3.00702C378.988 3.00702 378.977 2.98512 378.977 2.29539C378.977 1.66039 378.955 1.58376 378.758 1.58376C378.572 1.58376 378.539 1.50712 378.539 1.14583V0.707905H372.627C366.792 0.707905 366.715 0.707905 366.715 0.926868Z" fill="#96A9B3"/>
<path d="M399.56 1.36486C399.56 1.94512 399.581 2.02175 399.779 2.02175C399.965 2.02175 399.997 2.09839 399.997 2.51442C399.997 2.93045 400.03 3.00709 400.216 3.00709C400.403 3.00709 400.435 3.08372 400.435 3.44501C400.435 3.8063 400.468 3.88294 400.654 3.88294C400.851 3.88294 400.873 3.95958 400.873 4.59457C400.873 5.2843 400.884 5.3062 401.147 5.3062C401.399 5.3062 401.421 5.34999 401.421 5.74413C401.421 6.10542 401.454 6.18205 401.64 6.18205C401.826 6.18205 401.859 6.25869 401.859 6.61998C401.859 6.98127 401.892 7.05791 402.078 7.05791C402.275 7.05791 402.297 7.13454 402.297 7.76954C402.297 8.40453 402.319 8.48117 402.516 8.48117C402.702 8.48117 402.735 8.5578 402.735 8.91909C402.735 9.28038 402.767 9.35702 402.953 9.35702C403.151 9.35702 403.172 9.43366 403.172 10.0686C403.172 10.7036 403.194 10.7803 403.391 10.7803C403.578 10.7803 403.61 10.8569 403.61 11.2182C403.61 11.6123 403.643 11.6561 403.884 11.6561C404.136 11.6561 404.158 11.6999 404.158 12.0941C404.158 12.4553 404.191 12.532 404.377 12.532C404.574 12.532 404.596 12.6086 404.596 13.2436C404.596 13.8786 404.618 13.9552 404.815 13.9552C405.001 13.9552 405.034 14.0319 405.034 14.3932C405.034 14.7545 405.066 14.8311 405.253 14.8311C405.439 14.8311 405.472 14.9077 405.472 15.269C405.472 15.6303 405.504 15.707 405.691 15.707C405.888 15.707 405.91 15.7836 405.91 16.4186C405.91 17.0536 405.931 17.1302 406.128 17.1302C406.315 17.1302 406.347 17.2068 406.347 17.5681C406.347 17.9623 406.38 18.0061 406.621 18.0061C406.873 18.0061 406.895 18.0499 406.895 18.4987C406.895 18.9148 406.928 18.9914 407.114 18.9914C407.311 18.9914 407.333 19.068 407.333 19.6483C407.333 20.2285 407.355 20.3052 407.552 20.3052C407.738 20.3052 407.771 20.3818 407.771 20.7431C407.771 21.1044 407.804 21.181 407.99 21.181C408.176 21.181 408.209 21.2577 408.209 21.6737C408.209 22.0897 408.241 22.1664 408.428 22.1664C408.625 22.1664 408.647 22.243 408.647 22.8233C408.647 23.4035 408.668 23.4801 408.866 23.4801C409.052 23.4801 409.084 23.5568 409.084 23.9728C409.084 24.4217 409.106 24.4655 409.358 24.4655C409.61 24.4655 409.632 24.5093 409.632 24.9034C409.632 25.2647 409.665 25.3413 409.851 25.3413C410.048 25.3413 410.07 25.418 410.07 25.9982C410.07 26.5785 410.092 26.6551 410.289 26.6551C410.475 26.6551 410.508 26.7317 410.508 27.1478C410.508 27.5638 410.541 27.6404 410.727 27.6404C410.869 27.6404 410.946 27.7171 410.946 27.8594C410.946 28.0017 411.022 28.0784 411.165 28.0784C411.362 28.0784 411.384 28.0017 411.384 27.3667C411.384 26.7317 411.405 26.6551 411.603 26.6551C411.789 26.6551 411.822 26.5785 411.822 26.2172C411.822 25.823 411.854 25.7793 412.095 25.7793C412.347 25.7793 412.369 25.7355 412.369 25.3413C412.369 24.98 412.402 24.9034 412.588 24.9034C412.774 24.9034 412.807 24.8268 412.807 24.4107C412.807 23.9947 412.84 23.9181 413.026 23.9181C413.223 23.9181 413.245 23.8414 413.245 23.2612C413.245 22.6809 413.267 22.6043 413.464 22.6043C413.65 22.6043 413.683 22.5277 413.683 22.1664C413.683 21.8051 413.716 21.7284 413.902 21.7284C414.088 21.7284 414.121 21.6518 414.121 21.2358C414.121 20.8197 414.153 20.7431 414.34 20.7431C414.537 20.7431 414.559 20.6665 414.559 20.0862C414.559 19.4622 414.569 19.4293 414.832 19.4293C415.084 19.4293 415.106 19.3855 415.106 18.9367C415.106 18.5206 415.139 18.444 415.325 18.444C415.511 18.444 415.544 18.3674 415.544 18.0061C415.544 17.6448 415.577 17.5681 415.763 17.5681C415.949 17.5681 415.982 17.4915 415.982 17.1302C415.982 16.7689 416.015 16.6923 416.201 16.6923C416.398 16.6923 416.42 16.6156 416.42 15.9807C416.42 15.3457 416.442 15.269 416.639 15.269C416.825 15.269 416.858 15.1924 416.858 14.8311C416.858 14.4698 416.891 14.3932 417.077 14.3932C417.263 14.3932 417.296 14.3165 417.296 13.9552C417.296 13.594 417.263 13.5173 417.077 13.5173C416.88 13.5173 416.858 13.4407 416.858 12.8057C416.858 12.1707 416.836 12.0941 416.639 12.0941C416.453 12.0941 416.42 12.0174 416.42 11.6561C416.42 11.2948 416.387 11.2182 416.201 11.2182C416.004 11.2182 415.982 11.1416 415.982 10.5066C415.982 9.87158 415.96 9.79494 415.763 9.79494C415.577 9.79494 415.544 9.71831 415.544 9.35702C415.544 8.99573 415.511 8.91909 415.325 8.91909C415.128 8.91909 415.106 8.84245 415.106 8.20746C415.106 7.51773 415.095 7.49583 414.832 7.49583C414.591 7.49583 414.559 7.45204 414.559 7.05791C414.559 6.69662 414.526 6.61998 414.34 6.61998C414.153 6.61998 414.121 6.54334 414.121 6.18205C414.121 5.82076 414.088 5.74413 413.902 5.74413C413.705 5.74413 413.683 5.66749 413.683 5.0325C413.683 4.3975 413.661 4.32087 413.464 4.32087C413.278 4.32087 413.245 4.24423 413.245 3.88294C413.245 3.52165 413.212 3.44501 413.026 3.44501C412.829 3.44501 412.807 3.36838 412.807 2.73338C412.807 2.09839 412.785 2.02175 412.588 2.02175C412.402 2.02175 412.369 1.94512 412.369 1.58383C412.369 1.18969 412.347 1.1459 412.095 1.1459C411.898 1.1459 411.822 1.09116 411.822 0.926937C411.822 0.707975 411.745 0.707975 405.691 0.707975H399.56V1.36486Z" fill="#96A9B3"/>
<path d="M434.703 0.926868C434.703 1.06919 434.626 1.14583 434.484 1.14583C434.287 1.14583 434.265 1.22247 434.265 1.85746C434.265 2.5472 434.254 2.56909 433.991 2.56909C433.75 2.56909 433.718 2.61288 433.718 3.00702C433.718 3.36831 433.685 3.44494 433.499 3.44494C433.313 3.44494 433.28 3.52158 433.28 3.88287C433.28 4.24416 433.247 4.3208 433.061 4.3208C432.864 4.3208 432.842 4.39743 432.842 5.03242C432.842 5.66742 432.82 5.74406 432.623 5.74406C432.437 5.74406 432.404 5.82069 432.404 6.18198C432.404 6.54327 432.371 6.61991 432.185 6.61991C431.999 6.61991 431.966 6.69654 431.966 7.05783C431.966 7.41912 431.933 7.49576 431.747 7.49576C431.55 7.49576 431.528 7.5724 431.528 8.20739C431.528 8.89713 431.517 8.91902 431.254 8.91902C431.013 8.91902 430.981 8.96281 430.981 9.35695C430.981 9.71824 430.948 9.79488 430.762 9.79488C430.575 9.79488 430.543 9.87151 430.543 10.2875C430.543 10.7036 430.51 10.7802 430.324 10.7802C430.127 10.7802 430.105 10.8568 430.105 11.4371C430.105 12.0173 430.083 12.094 429.886 12.094C429.7 12.094 429.667 12.1706 429.667 12.5319C429.667 12.8932 429.634 12.9698 429.448 12.9698C429.262 12.9698 429.229 13.0465 429.229 13.4625C429.229 13.8785 429.196 13.9552 429.01 13.9552C428.813 13.9552 428.791 14.0318 428.791 14.6121C428.791 15.2361 428.78 15.269 428.517 15.269C428.265 15.269 428.244 15.3127 428.244 15.7616C428.244 16.1776 428.211 16.2543 428.025 16.2543C427.838 16.2543 427.806 16.3309 427.806 16.6922C427.806 17.0535 427.773 17.1301 427.587 17.1301C427.39 17.1301 427.368 17.2068 427.368 17.787C427.368 18.3673 427.346 18.4439 427.149 18.4439C426.963 18.4439 426.93 18.5206 426.93 18.9366C426.93 19.3526 426.897 19.4293 426.711 19.4293C426.514 19.4293 426.492 19.5059 426.492 20.0861C426.492 20.6664 426.47 20.743 426.273 20.743C426.087 20.743 426.054 20.8197 426.054 21.2357C426.054 21.6846 426.032 21.7284 425.78 21.7284C425.539 21.7284 425.506 21.7722 425.506 22.1663C425.506 22.5276 425.474 22.6042 425.288 22.6042C425.09 22.6042 425.069 22.6809 425.069 23.2611C425.069 23.8414 425.047 23.918 424.85 23.918C424.663 23.918 424.631 23.9946 424.631 24.4107C424.631 24.8267 424.598 24.9033 424.412 24.9033C424.226 24.9033 424.193 24.98 424.193 25.3413C424.193 25.7025 424.16 25.7792 423.974 25.7792C423.777 25.7792 423.755 25.8558 423.755 26.4908C423.755 27.1258 423.733 27.2024 423.536 27.2024C423.35 27.2024 423.317 27.2791 423.317 27.6404C423.317 28.0345 423.295 28.0783 423.043 28.0783C422.802 28.0783 422.769 28.1221 422.769 28.5162C422.769 28.8775 422.737 28.9541 422.55 28.9541C422.353 28.9541 422.332 29.0308 422.332 29.6658C422.332 30.3008 422.31 30.3774 422.113 30.3774C421.926 30.3774 421.894 30.454 421.894 30.8153C421.894 31.1766 421.861 31.2533 421.675 31.2533C421.488 31.2533 421.456 31.3299 421.456 31.6912C421.456 32.0525 421.423 32.1291 421.237 32.1291C421.04 32.1291 421.018 32.2057 421.018 32.8407C421.018 33.4757 420.996 33.5524 420.799 33.5524C420.613 33.5524 420.58 33.629 420.58 33.9903C420.58 34.3844 420.558 34.4282 420.306 34.4282C420.054 34.4282 420.032 34.472 420.032 34.9209C420.032 35.3369 420 35.4136 419.813 35.4136C419.616 35.4136 419.594 35.4902 419.594 36.0704C419.594 36.6507 419.573 36.7273 419.375 36.7273C419.189 36.7273 419.157 36.804 419.157 37.1653C419.157 37.5266 419.124 37.6032 418.938 37.6032C418.751 37.6032 418.719 37.6798 418.719 38.0959C418.719 38.5119 418.686 38.5885 418.5 38.5885C418.303 38.5885 418.281 38.6652 418.281 39.2454C418.281 39.8257 418.259 39.9023 418.062 39.9023C417.876 39.9023 417.843 39.9789 417.843 40.395C417.843 40.8438 417.821 40.8876 417.569 40.8876C417.328 40.8876 417.295 40.9314 417.295 41.3256C417.295 41.6869 417.263 41.7635 417.076 41.7635C416.934 41.7635 416.857 41.8401 416.857 41.9825C416.857 42.2014 416.934 42.2014 422.824 42.2014H428.791V41.7635C428.791 41.4022 428.824 41.3256 429.01 41.3256C429.207 41.3256 429.229 41.2489 429.229 40.6139C429.229 39.9789 429.251 39.9023 429.448 39.9023C429.634 39.9023 429.667 39.8257 429.667 39.4644C429.667 39.1031 429.7 39.0265 429.886 39.0265C430.072 39.0265 430.105 38.9498 430.105 38.5885C430.105 38.2272 430.138 38.1506 430.324 38.1506C430.521 38.1506 430.543 38.074 430.543 37.439C430.543 36.804 430.565 36.7273 430.762 36.7273C430.948 36.7273 430.981 36.6507 430.981 36.2894C430.981 35.8953 431.013 35.8515 431.254 35.8515C431.506 35.8515 431.528 35.8077 431.528 35.3588C431.528 34.9428 431.561 34.8662 431.747 34.8662C431.944 34.8662 431.966 34.7895 431.966 34.2093C431.966 33.629 431.988 33.5524 432.185 33.5524C432.371 33.5524 432.404 33.4757 432.404 33.1144C432.404 32.7532 432.437 32.6765 432.623 32.6765C432.809 32.6765 432.842 32.5999 432.842 32.1839C432.842 31.7678 432.875 31.6912 433.061 31.6912C433.258 31.6912 433.28 31.6145 433.28 31.0343C433.28 30.454 433.302 30.3774 433.499 30.3774C433.685 30.3774 433.718 30.3008 433.718 29.8847C433.718 29.4359 433.739 29.3921 433.991 29.3921C434.243 29.3921 434.265 29.3483 434.265 28.9541C434.265 28.5929 434.298 28.5162 434.484 28.5162C434.681 28.5162 434.703 28.4396 434.703 27.8593C434.703 27.2791 434.725 27.2024 434.922 27.2024C435.108 27.2024 435.141 27.1258 435.141 26.7098C435.141 26.2937 435.174 26.2171 435.36 26.2171C435.546 26.2171 435.579 26.1405 435.579 25.7792C435.579 25.4179 435.612 25.3413 435.798 25.3413C435.995 25.3413 436.017 25.2646 436.017 24.6296C436.017 23.9946 436.039 23.918 436.236 23.918C436.422 23.918 436.455 23.8414 436.455 23.4801C436.455 23.0859 436.487 23.0421 436.728 23.0421C436.98 23.0421 437.002 22.9984 437.002 22.6042C437.002 22.2429 437.035 22.1663 437.221 22.1663C437.418 22.1663 437.44 22.0897 437.44 21.4547C437.44 20.8197 437.462 20.743 437.659 20.743C437.845 20.743 437.878 20.6664 437.878 20.3051C437.878 19.9438 437.911 19.8672 438.097 19.8672C438.283 19.8672 438.316 19.7905 438.316 19.4293C438.316 19.068 438.349 18.9913 438.535 18.9913C438.732 18.9913 438.754 18.9147 438.754 18.2797C438.754 17.6447 438.776 17.5681 438.973 17.5681C439.159 17.5681 439.192 17.4914 439.192 17.1301C439.192 16.736 439.225 16.6922 439.465 16.6922C439.717 16.6922 439.739 16.6484 439.739 16.1995C439.739 15.7835 439.772 15.7069 439.958 15.7069C440.155 15.7069 440.177 15.6302 440.177 15.05C440.177 14.4697 440.199 14.3931 440.396 14.3931C440.582 14.3931 440.615 14.3165 440.615 13.9552C440.615 13.5939 440.648 13.5172 440.834 13.5172C441.02 13.5172 441.053 13.4406 441.053 13.0246C441.053 12.6086 441.086 12.5319 441.272 12.5319C441.469 12.5319 441.491 12.4553 441.491 11.875C441.491 11.2948 441.513 11.2181 441.71 11.2181C441.896 11.2181 441.929 11.1415 441.929 10.7255C441.929 10.2766 441.951 10.2328 442.202 10.2328C442.454 10.2328 442.476 10.189 442.476 9.79488C442.476 9.43359 442.509 9.35695 442.695 9.35695C442.892 9.35695 442.914 9.28031 442.914 8.70006C442.914 8.11981 442.936 8.04317 443.133 8.04317C443.319 8.04317 443.352 7.96653 443.352 7.5505C443.352 7.13447 443.385 7.05783 443.571 7.05783C443.757 7.05783 443.79 6.9812 443.79 6.61991C443.79 6.25862 443.823 6.18198 444.009 6.18198C444.206 6.18198 444.228 6.10535 444.228 5.47035C444.228 4.83536 444.25 4.75872 444.447 4.75872C444.633 4.75872 444.666 4.68209 444.666 4.3208C444.666 3.92666 444.699 3.88287 444.939 3.88287C445.191 3.88287 445.213 3.83908 445.213 3.44494C445.213 3.08366 445.246 3.00702 445.432 3.00702C445.629 3.00702 445.651 2.93038 445.651 2.29539C445.651 1.66039 445.673 1.58376 445.87 1.58376C446.056 1.58376 446.089 1.50712 446.089 1.14583V0.707905H440.396C434.78 0.707905 434.703 0.707905 434.703 0.926868Z" fill="#96A9B3"/>
<path d="M454.738 5.03247C454.738 9.28036 454.738 9.357 454.957 9.357C455.1 9.357 455.176 9.43363 455.176 9.57596C455.176 9.79492 455.253 9.79492 471.379 9.79492C487.506 9.79492 487.583 9.79492 487.583 9.57596C487.583 9.43363 487.659 9.357 487.802 9.357C488.021 9.357 488.021 9.28036 488.021 5.03247V0.707952H471.379H454.738V5.03247Z" fill="#96A9B3"/>
<path d="M454.738 21.0168V25.3413H471.379H488.021V21.0168V16.6923H471.379H454.738V21.0168Z" fill="#96A9B3"/>
<path d="M454.738 37.6579V42.2014H471.379H488.021V37.6579V33.1144H471.379H454.738V37.6579Z" fill="#96A9B3"/>
</svg>
