<svg width="87" height="91" viewBox="0 0 87 91" fill="none" xmlns="http://www.w3.org/2000/svg">
<path d="M61.3202 25.0228C61.3502 25.1064 61.3814 25.1064 61.4138 25.0228C61.8979 23.7827 62.493 22.585 63.1992 21.4297C63.274 21.3061 63.3526 21.0292 63.3601 20.8851C63.6071 15.4954 65.5104 9.77255 69.693 6.22246C70.9481 5.15699 72.5837 4.16264 74.5999 3.2394C77.5405 1.89198 80.7194 0.854583 84.1367 0.127222C84.627 0.0224223 84.9825 -0.0823775 85.4485 0.0972794C86.4104 0.471565 86.4947 1.25569 86.3 2.21386C85.6138 5.57993 84.5715 8.78756 83.1729 11.8367C82.1286 14.1143 80.6614 16.4498 78.8461 18.1172C75.4364 21.2444 70.464 22.7153 65.9277 23.0017C65.8711 23.0057 65.8163 23.0233 65.7681 23.0529C65.7199 23.0826 65.6796 23.1234 65.6507 23.172C64.09 25.7895 63.1917 28.6222 62.9559 31.6701C62.9521 31.7238 62.9771 31.7506 63.0307 31.7506C64.473 31.7556 65.9246 31.7549 67.3855 31.7487C68.5776 31.745 68.8827 32.7181 68.8827 33.7829C68.8827 52.0543 68.8827 70.3257 68.8827 88.597C68.8827 89.8378 67.9526 90.1409 66.8391 90.1409C63.2297 90.1409 59.6204 90.1409 56.011 90.1409C54.6449 90.1409 53.9113 89.8059 53.9113 88.3631C53.9113 69.9919 53.9113 51.6208 53.9113 33.2496C53.9113 32.0837 54.8283 31.7581 55.8837 31.7543C57.1825 31.7518 58.4701 31.7512 59.7464 31.7524C59.759 31.7525 59.7715 31.7499 59.7831 31.7449C59.7946 31.7399 59.805 31.7326 59.8134 31.7234C59.8219 31.7142 59.8283 31.7034 59.8323 31.6916C59.8362 31.6799 59.8375 31.6674 59.8362 31.6551C59.3646 26.9317 57.2817 22.5937 54.3136 18.9482C54.2537 18.8733 54.1889 18.8028 54.119 18.7367C54.0728 18.693 54.0179 18.6712 53.9543 18.6712C50.0617 18.6038 45.9745 17.3799 43.4182 14.307C41.1968 11.6365 39.9336 7.1694 39.3665 3.63802C39.0896 1.92192 39.8831 1.14902 41.6123 1.45781C45.2297 2.10532 49.2196 3.26935 52.1166 5.47389C55.4982 8.04523 56.5331 12.8136 56.5874 16.8091C56.5886 16.8727 56.6086 16.9295 56.6473 16.9794C58.5711 19.4216 60.2404 22.1165 61.3202 25.0228ZM76.1251 5.82384C74.2125 6.67347 72.2419 7.81691 70.7354 9.34212C68.8546 11.2435 67.6288 13.9309 67.0524 16.5434C67.0374 16.6107 67.0549 16.6207 67.1048 16.5733C68.5508 15.1897 70.2806 13.8866 72.2943 12.6639C73.0329 12.216 73.6866 12.1936 74.2555 12.5965C74.8619 13.0251 75.0603 13.8541 74.6916 14.4942C74.5506 14.7374 74.1913 15.0288 73.6136 15.3681C71.6212 16.5371 69.8415 17.975 68.2745 19.6818C68.2721 19.6843 68.2706 19.6876 68.2701 19.691C68.2697 19.6945 68.2703 19.698 68.272 19.7011C68.2736 19.7042 68.2762 19.7067 68.2793 19.7083C68.2824 19.7098 68.286 19.7104 68.2894 19.7098C71.7422 19.139 75.5842 17.6232 77.8356 14.8722C80.3639 11.7825 81.9377 7.45573 82.9146 3.54632C82.9165 3.53927 82.9165 3.53184 82.9147 3.52477C82.9129 3.51771 82.9094 3.51128 82.9044 3.50613C82.8995 3.50099 82.8933 3.49732 82.8865 3.4955C82.8798 3.49368 82.8727 3.49378 82.866 3.49579C80.5541 4.07843 78.3072 4.85444 76.1251 5.82384ZM48.0107 9.31592C48.6264 9.37581 49.1635 9.80249 49.6594 10.1843C50.882 11.1262 52.0536 12.1324 53.1739 13.2029C53.2288 13.254 53.2475 13.2434 53.2301 13.1711C52.8994 11.7101 52.3112 10.3621 51.4653 9.12691C49.781 6.66973 45.5647 5.34663 42.7407 4.77397C42.6758 4.7615 42.6496 4.7877 42.6621 4.85257C43.115 7.21244 43.9815 9.84554 45.3158 11.8573C46.5247 13.6782 48.8678 14.8142 50.9301 15.3344C51.0187 15.3556 51.0305 15.3351 50.9656 15.2727C49.8153 14.1623 48.5808 13.1212 47.2621 12.1493C46.9115 11.8923 46.6813 11.6602 46.5715 11.4531C46.0344 10.4481 46.9196 9.21112 48.0107 9.31592ZM65.8884 34.8815C65.8884 34.8457 65.8742 34.8115 65.8489 34.7862C65.8237 34.7609 65.7894 34.7467 65.7536 34.7467H57.0403C57.0226 34.7467 57.0051 34.7502 56.9887 34.757C56.9724 34.7638 56.9575 34.7737 56.945 34.7862C56.9325 34.7987 56.9226 34.8136 56.9158 34.8299C56.909 34.8463 56.9055 34.8638 56.9055 34.8815V87.0119C56.9055 87.0296 56.909 87.0471 56.9158 87.0635C56.9226 87.0798 56.9325 87.0947 56.945 87.1072C56.9575 87.1197 56.9724 87.1296 56.9887 87.1364C57.0051 87.1432 57.0226 87.1467 57.0403 87.1467H65.7536C65.7894 87.1467 65.8237 87.1325 65.8489 87.1072C65.8742 87.0819 65.8884 87.0476 65.8884 87.0119V34.8815Z" fill="#B6FD85"/>
<path d="M50.9167 88.6267C50.9167 89.0283 50.7572 89.4133 50.4733 89.6973C50.1894 89.9812 49.8043 90.1407 49.4027 90.1407H37.4593C37.0578 90.1407 36.6727 89.9812 36.3887 89.6973C36.1048 89.4133 35.9453 89.0283 35.9453 88.6267V48.2376C35.9453 47.8361 36.1048 47.451 36.3887 47.1671C36.6727 46.8831 37.0578 46.7236 37.4593 46.7236H49.4027C49.8043 46.7236 50.1894 46.8831 50.4733 47.1671C50.7572 47.451 50.9167 47.8361 50.9167 48.2376V88.6267ZM47.9224 49.8433C47.9224 49.81 47.9092 49.7782 47.8857 49.7546C47.8622 49.7311 47.8303 49.7179 47.797 49.7179H39.065C39.0317 49.7179 38.9998 49.7311 38.9763 49.7546C38.9528 49.7782 38.9396 49.81 38.9396 49.8433V87.021C38.9396 87.0375 38.9428 87.0538 38.9491 87.069C38.9554 87.0842 38.9647 87.0981 38.9763 87.1097C38.988 87.1213 39.0018 87.1306 39.017 87.1369C39.0322 87.1432 39.0485 87.1464 39.065 87.1464H47.797C47.8135 87.1464 47.8298 87.1432 47.845 87.1369C47.8602 87.1306 47.8741 87.1213 47.8857 87.1097C47.8974 87.0981 47.9066 87.0842 47.9129 87.069C47.9192 87.0538 47.9224 87.0375 47.9224 87.021V49.8433Z" fill="#909090"/>
<path d="M32.948 88.6307C32.948 89.0313 32.7889 89.4154 32.5056 89.6986C32.2224 89.9819 31.8383 90.141 31.4377 90.141H19.4868C19.0863 90.141 18.7021 89.9819 18.4189 89.6986C18.1357 89.4154 17.9766 89.0313 17.9766 88.6307V63.2056C17.9766 62.805 18.1357 62.4209 18.4189 62.1377C18.7021 61.8544 19.0863 61.6953 19.4868 61.6953H31.4377C31.8383 61.6953 32.2224 61.8544 32.5056 62.1377C32.7889 62.4209 32.948 62.805 32.948 63.2056V88.6307ZM29.9537 64.8337C29.9537 64.7955 29.9385 64.7588 29.9115 64.7318C29.8845 64.7048 29.8478 64.6896 29.8096 64.6896H21.1149C21.0767 64.6896 21.0401 64.7048 21.013 64.7318C20.986 64.7588 20.9708 64.7955 20.9708 64.8337V87.0026C20.9708 87.0408 20.986 87.0775 21.013 87.1045C21.0401 87.1315 21.0767 87.1467 21.1149 87.1467H29.8096C29.8478 87.1467 29.8845 87.1315 29.9115 87.1045C29.9385 87.0775 29.9537 87.0408 29.9537 87.0026V64.8337Z" fill="#909090"/>
<path d="M14.9714 88.6419C14.9707 89.0429 14.8107 89.4273 14.5266 89.7103C14.2426 89.9934 13.8577 90.1521 13.4566 90.1514L1.50948 90.1305C1.3109 90.1302 1.11434 90.0907 0.931016 90.0144C0.74769 89.9381 0.58119 89.8264 0.441023 89.6858C0.300855 89.5451 0.189765 89.3782 0.114094 89.1946C0.0384239 89.011 -0.000344516 88.8143 2.30657e-06 88.6158L0.0234697 75.1715C0.0241739 74.7704 0.184156 74.3861 0.468222 74.103C0.752289 73.8199 1.13717 73.6613 1.5382 73.662L13.4854 73.6828C13.6839 73.6832 13.8805 73.7226 14.0638 73.799C14.2471 73.8753 14.4136 73.9869 14.5538 74.1276C14.694 74.2683 14.8051 74.4351 14.8807 74.6187C14.9564 74.8023 14.9952 74.999 14.9948 75.1976L14.9714 88.6419ZM11.9888 76.8145C11.9888 76.7753 11.9733 76.7377 11.9455 76.71C11.9178 76.6823 11.8802 76.6667 11.841 76.6667H3.15384C3.11463 76.6667 3.07703 76.6823 3.0493 76.71C3.02157 76.7377 3.006 76.7753 3.006 76.8145V86.9988C3.006 87.038 3.02157 87.0756 3.0493 87.1034C3.07703 87.1311 3.11463 87.1467 3.15384 87.1467H11.841C11.8802 87.1467 11.9178 87.1311 11.9455 87.1034C11.9733 87.0756 11.9888 87.038 11.9888 86.9988V76.8145Z" fill="#909090"/>
</svg>
