<svg width="62" height="62" viewBox="0 0 62 62" fill="none" xmlns="http://www.w3.org/2000/svg">
<path d="M31.974 14.8572L30.03 14.8625L31.974 14.8572Z" fill="#006350"/>
<path d="M47.163 30.0369L47.1678 31.9823L47.163 30.0369Z" fill="#006350"/>
<path d="M43.1092 41.783L41.747 43.1465L43.1092 41.783Z" fill="#006350"/>
<path d="M31.9754 47.1893L30.03 47.1919L31.9754 47.1893Z" fill="#006350"/>
<path d="M20.2391 43.1313L18.8796 41.7679L20.2391 43.1313Z" fill="#006350"/>
<path d="M14.8384 31.9812L14.8348 30.0359L14.8384 31.9812Z" fill="#006350"/>
<path d="M20.2523 18.9139L18.8954 20.276L20.2523 18.9139Z" fill="#006350"/>
<path d="M43.102 20.2592L41.7372 18.9036L43.102 20.2592Z" fill="#006350"/>
<path d="M31.972 14.8563L30.0279 14.8615L30.0266 6.82516C30.0266 6.77962 30.0052 6.74897 29.9623 6.73321C27.808 5.96609 26.92 3.64896 28.0313 1.69044C28.7117 0.492469 30.2499 -0.214228 31.6384 0.0603069C35.1784 0.763063 35.3899 5.50897 32.0298 6.74503C32.0128 6.75162 31.9983 6.76317 31.988 6.77816C31.9776 6.79315 31.9721 6.8109 31.972 6.8291V14.8563ZM32.4869 3.45061C32.4869 3.05555 32.33 2.67667 32.0506 2.39732C31.7713 2.11797 31.3924 1.96103 30.9973 1.96103C30.6023 1.96103 30.2234 2.11797 29.944 2.39732C29.6647 2.67667 29.5078 3.05555 29.5078 3.45061C29.5078 3.84567 29.6647 4.22456 29.944 4.50391C30.2234 4.78326 30.6023 4.94019 30.9973 4.94019C31.3924 4.94019 31.7713 4.78326 32.0506 4.50391C32.33 4.22456 32.4869 3.84567 32.4869 3.45061Z" fill="#006350"/>
<path d="M20.2519 18.9126L18.895 20.2747L13.2401 14.6212C13.2197 14.6005 13.1934 14.5867 13.1646 14.5817C13.1359 14.5768 13.1062 14.5809 13.0798 14.5936C10.785 15.6852 8.08304 14.1535 8.0791 11.5487C8.07516 7.79064 13.1731 6.75162 14.6837 10.1551C15.1119 11.1183 15.0703 12.1096 14.5589 13.129C14.5501 13.1465 14.5469 13.1664 14.55 13.186C14.5531 13.2055 14.5621 13.2237 14.576 13.238L20.2519 18.9126ZM13.0063 11.5212C13.0063 11.1258 12.8492 10.7465 12.5696 10.4669C12.29 10.1873 11.9108 10.0303 11.5154 10.0303C11.12 10.0303 10.7408 10.1873 10.4612 10.4669C10.1816 10.7465 10.0245 11.1258 10.0245 11.5212C10.0245 11.9166 10.1816 12.2958 10.4612 12.5754C10.7408 12.855 11.12 13.0121 11.5154 13.0121C11.9108 13.0121 12.29 12.855 12.5696 12.5754C12.8492 12.2958 13.0063 11.9166 13.0063 11.5212Z" fill="#006350"/>
<path d="M43.1022 20.2576L41.7374 18.902L47.408 13.2313C47.4221 13.2173 47.4313 13.1992 47.4344 13.1796C47.4375 13.16 47.4342 13.1399 47.4251 13.1223C46.4596 11.2242 47.362 8.90709 49.4125 8.24899C51.5365 7.56725 53.8182 9.06866 53.918 11.3411C54.0363 14.0221 51.2423 15.798 48.8792 14.5712C48.8617 14.5624 48.8419 14.5593 48.8226 14.5623C48.8033 14.5654 48.7854 14.5745 48.7715 14.5882L43.1022 20.2576ZM51.9687 11.5184C51.9687 11.1227 51.8115 10.7431 51.5317 10.4633C51.2518 10.1835 50.8723 10.0262 50.4765 10.0262C50.0807 10.0262 49.7012 10.1835 49.4214 10.4633C49.1415 10.7431 48.9843 11.1227 48.9843 11.5184C48.9843 11.9142 49.1415 12.2938 49.4214 12.5736C49.7012 12.8534 50.0807 13.0107 50.4765 13.0107C50.8723 13.0107 51.2518 12.8534 51.5317 12.5736C51.8115 12.2938 51.9687 11.9142 51.9687 11.5184Z" fill="#006350"/>
<path d="M31.9768 14.8566C35.6898 15.1228 38.9431 16.4714 41.7366 18.9023L43.1014 20.2579C45.5403 23.0497 46.895 26.3091 47.1656 30.0361L47.1708 31.9815C46.9186 35.684 45.5648 38.9508 43.1093 41.782L41.7471 43.1455C38.9554 45.5755 35.6982 46.9233 31.9755 47.1886L30.0301 47.1912C26.2431 46.9298 23.1352 45.5348 20.2415 43.1297L18.8819 41.7662C16.4475 38.9631 15.0997 35.7011 14.8388 31.9802L14.8348 30.0348C15.1089 26.3174 16.4628 23.0641 18.8964 20.275L20.2533 18.9128C23.0459 16.4801 26.3057 15.1298 30.0328 14.8618L31.9768 14.8566ZM45.257 31.0068C45.257 27.2266 43.7553 23.6011 41.0822 20.9281C38.4092 18.2551 34.7837 16.7534 31.0035 16.7534C27.2232 16.7534 23.5978 18.2551 20.9248 20.9281C18.2517 23.6011 16.75 27.2266 16.75 31.0068C16.75 34.7871 18.2517 38.4125 20.9248 41.0855C23.5978 43.7586 27.2232 45.2603 31.0035 45.2603C34.7837 45.2603 38.4092 43.7586 41.0822 41.0855C43.7553 38.4125 45.257 34.7871 45.257 31.0068Z" fill="#006350"/>
<path d="M14.8329 30.0349L14.8368 31.9803L6.82934 31.9816C6.81196 31.9815 6.79497 31.9868 6.78065 31.9967C6.76633 32.0065 6.75536 32.0205 6.74921 32.0368C6.08455 33.7588 4.52141 34.7558 2.70607 34.3802C0.239196 33.8679 -0.839239 30.7954 0.743604 28.8632C2.39738 26.8416 5.54993 27.2449 6.57582 29.6382C6.62661 29.7555 6.68354 29.869 6.74659 29.9784C6.76936 30.0161 6.80263 30.0349 6.84642 30.0349H14.8329ZM4.93518 31.0082C4.93518 30.6128 4.77811 30.2336 4.49851 29.954C4.21891 29.6744 3.8397 29.5174 3.44429 29.5174C3.04888 29.5174 2.66967 29.6744 2.39007 29.954C2.11047 30.2336 1.9534 30.6128 1.9534 31.0082C1.9534 31.204 1.99196 31.3979 2.06688 31.5788C2.14181 31.7597 2.25163 31.924 2.39007 32.0625C2.52851 32.2009 2.69287 32.3107 2.87375 32.3857C3.05463 32.4606 3.2485 32.4991 3.44429 32.4991C3.64008 32.4991 3.83395 32.4606 4.01483 32.3857C4.19571 32.3107 4.36007 32.2009 4.49851 32.0625C4.63695 31.924 4.74677 31.7597 4.8217 31.5788C4.89662 31.3979 4.93518 31.204 4.93518 31.0082Z" fill="#006350"/>
<path d="M47.1684 31.9818L47.1631 30.0365H55.1746C55.1922 30.0364 55.2094 30.0307 55.2237 30.0201C55.2381 30.0095 55.2489 29.9945 55.2547 29.9773C55.8852 28.0569 57.9488 27.0534 59.8627 27.8349C61.4455 28.4825 62.4084 30.3451 61.8317 32.0502C60.7309 35.3052 56.4264 35.1974 55.2389 32.0331C55.2258 31.9989 55.2013 31.9818 55.1654 31.9818H47.1684ZM60.0361 31.0085C60.0361 30.6127 59.8788 30.2332 59.599 29.9533C59.3192 29.6735 58.9396 29.5163 58.5439 29.5163C58.1481 29.5163 57.7685 29.6735 57.4887 29.9533C57.2089 30.2332 57.0516 30.6127 57.0516 31.0085C57.0516 31.4043 57.2089 31.7838 57.4887 32.0636C57.7685 32.3435 58.1481 32.5007 58.5439 32.5007C58.9396 32.5007 59.3192 32.3435 59.599 32.0636C59.8788 31.7838 60.0361 31.4043 60.0361 31.0085Z" fill="#006350"/>
<path d="M18.8821 41.767L20.2416 43.1305L14.5814 48.7906C14.5681 48.8039 14.5594 48.821 14.5566 48.8397C14.5538 48.8584 14.5569 48.8775 14.5657 48.8944C16.1209 51.9498 12.8738 55.0971 9.86839 53.526C7.40808 52.2388 7.52893 48.7092 9.96033 47.4285C10.935 46.9144 11.988 46.9179 13.1195 47.439C13.1615 47.4583 13.1987 47.4517 13.2311 47.4193L18.8821 41.767ZM13.0065 50.497C13.0065 50.1016 12.8494 49.7223 12.5698 49.4427C12.2902 49.1631 11.911 49.0061 11.5156 49.0061C11.1202 49.0061 10.741 49.1631 10.4614 49.4427C10.1818 49.7223 10.0247 50.1016 10.0247 50.497C10.0247 50.8924 10.1818 51.2716 10.4614 51.5512C10.741 51.8308 11.1202 51.9879 11.5156 51.9879C11.911 51.9879 12.2902 51.8308 12.5698 51.5512C12.8494 51.2716 13.0065 50.8924 13.0065 50.497Z" fill="#006350"/>
<path d="M43.1092 41.7822L48.7549 47.4265C48.7873 47.4598 48.824 47.4659 48.8652 47.4449C52.4263 45.6769 55.7391 50.206 52.819 53.0197C52.3908 53.433 51.8833 53.7089 51.2966 53.8472C48.4028 54.5316 46.0844 51.5341 47.4137 48.9148C47.4374 48.8693 47.4312 48.8286 47.3953 48.7926L41.747 43.1456L43.1092 41.7822ZM51.9692 50.495C51.9692 50.0993 51.8119 49.7197 51.5321 49.4399C51.2522 49.16 50.8727 49.0028 50.4769 49.0028C50.0812 49.0028 49.7016 49.16 49.4218 49.4399C49.142 49.7197 48.9847 50.0993 48.9847 50.495C48.9847 50.8908 49.142 51.2703 49.4218 51.5502C49.7016 51.83 50.0812 51.9872 50.4769 51.9872C50.8727 51.9872 51.2522 51.83 51.5321 51.5502C51.8119 51.2703 51.9692 50.8908 51.9692 50.495Z" fill="#006350"/>
<path d="M30.03 47.1909L31.9753 47.1883L31.9767 55.1931C31.9766 55.2124 31.9825 55.2312 31.9936 55.2469C32.0046 55.2627 32.0203 55.2746 32.0384 55.2812C33.8537 55.9392 34.9532 57.8255 34.2544 59.7C33.0459 62.9379 28.5049 62.6936 27.6432 59.3558C27.1979 57.6285 28.2488 55.8762 29.9656 55.2877C29.9843 55.2812 30.0006 55.2691 30.0121 55.2531C30.0237 55.2371 30.0299 55.218 30.03 55.1984V47.1909ZM32.4942 58.5664C32.4942 58.171 32.3371 57.7917 32.0575 57.5122C31.7779 57.2326 31.3987 57.0755 31.0033 57.0755C30.6079 57.0755 30.2287 57.2326 29.9491 57.5122C29.6695 57.7917 29.5124 58.171 29.5124 58.5664C29.5124 58.9618 29.6695 59.341 29.9491 59.6206C30.2287 59.9002 30.6079 60.0573 31.0033 60.0573C31.3987 60.0573 31.7779 59.9002 32.0575 59.6206C32.3371 59.341 32.4942 58.9618 32.4942 58.5664Z" fill="#006350"/>
</svg>
