<svg width="392" height="349" viewBox="0 0 392 349" fill="none" xmlns="http://www.w3.org/2000/svg">
<rect x="24.8157" y="0.784499" width="105.143" height="96.9513" rx="10.1985" fill="white" stroke="#636363" stroke-width="1.569"/>
<g filter="url(#filter0_d_1408_186)">
<rect x="19.75" y="119.746" width="121.021" height="113.377" rx="10.983" fill="url(#paint0_linear_1408_186)"/>
</g>
<rect x="24.6204" y="250.468" width="105.143" height="96.9513" rx="10.1985" fill="white" stroke="#636363" stroke-width="1.569"/>
<path d="M77.3782 42.0135C77.3782 43.3079 76.8491 44.5493 75.9073 45.4646C74.9654 46.3799 73.688 46.8941 72.3561 46.8941C71.0241 46.8941 69.7468 46.3799 68.8049 45.4646C67.8631 44.5493 67.334 43.3079 67.334 42.0135C67.334 40.719 67.8631 39.4776 68.8049 38.5623C69.7468 37.647 71.0241 37.1328 72.3561 37.1328C73.688 37.1328 74.9654 37.647 75.9073 38.5623C76.8491 39.4776 77.3782 40.719 77.3782 42.0135ZM85.8656 49.9259C85.6772 49.8342 85.4639 49.8024 85.2559 49.835C85.0479 49.8676 84.8557 49.9629 84.7065 50.1075L77.2537 59.3026L71.9101 53.891C71.7172 53.7661 71.4858 53.71 71.2551 53.7321C71.0245 53.7541 70.8087 53.853 70.6446 54.012L63.3203 62.5121V66.4166C63.3203 66.9344 63.532 67.431 63.9087 67.7971C64.2854 68.1632 64.7964 68.3689 65.3292 68.3689H93.453C93.7168 68.3689 93.978 68.3184 94.2217 68.2203C94.4655 68.1222 94.6869 67.9784 94.8734 67.7971C95.06 67.6158 95.208 67.4006 95.3089 67.1637C95.4099 66.9269 95.4618 66.673 95.4618 66.4166V57.6315L85.8656 49.9259Z" fill="#6A6A6A"/>
<path d="M79.8576 163.857C79.8576 165.758 79.0816 167.58 77.7005 168.924C76.3193 170.268 74.4461 171.023 72.4928 171.023C70.5396 171.023 68.6663 170.268 67.2852 168.924C65.904 167.58 65.1281 165.758 65.1281 163.857C65.1281 161.957 65.904 160.134 67.2852 158.79C68.6663 157.446 70.5396 156.691 72.4928 156.691C74.4461 156.691 76.3193 157.446 77.7005 158.79C79.0816 160.134 79.8576 161.957 79.8576 163.857ZM92.304 175.474C92.0277 175.339 91.7149 175.293 91.4099 175.341C91.1048 175.388 90.823 175.528 90.6042 175.741L79.6749 189.241L71.8388 181.296C71.5559 181.112 71.2166 181.03 70.8783 181.062C70.54 181.095 70.2237 181.24 69.9829 181.473L59.2422 193.953V199.686C59.2422 200.446 59.5526 201.175 60.105 201.712C60.6575 202.25 61.4068 202.552 62.1881 202.552H103.431C103.817 202.552 104.201 202.478 104.558 202.334C104.915 202.19 105.24 201.978 105.514 201.712C105.787 201.446 106.004 201.13 106.152 200.782C106.3 200.435 106.377 200.062 106.377 199.686V186.787L92.304 175.474Z" fill="white"/>
<path d="M77.1673 289.631C77.1673 290.925 76.6382 292.166 75.6963 293.082C74.7545 293.997 73.4771 294.511 72.1452 294.511C70.8132 294.511 69.5358 293.997 68.594 293.082C67.6522 292.166 67.123 290.925 67.123 289.631C67.123 288.336 67.6522 287.095 68.594 286.18C69.5358 285.264 70.8132 284.75 72.1452 284.75C73.4771 284.75 74.7545 285.264 75.6963 286.18C76.6382 287.095 77.1673 288.336 77.1673 289.631ZM85.6546 297.543C85.4663 297.451 85.253 297.42 85.0449 297.452C84.8369 297.485 84.6447 297.58 84.4955 297.725L77.0427 306.92L71.6992 301.508C71.5063 301.383 71.2748 301.327 71.0442 301.349C70.8135 301.371 70.5978 301.47 70.4336 301.629L63.1094 310.129V314.034C63.1094 314.552 63.321 315.048 63.6978 315.414C64.0745 315.78 64.5854 315.986 65.1182 315.986H93.242C93.5058 315.986 93.7671 315.936 94.0108 315.837C94.2545 315.739 94.476 315.596 94.6625 315.414C94.8491 315.233 94.997 315.018 95.098 314.781C95.1989 314.544 95.2509 314.29 95.2509 314.034V305.249L85.6546 297.543Z" fill="#6A6A6A"/>
<rect x="141.414" y="33.7051" width="98.7082" height="15.5558" rx="7.77792" fill="url(#paint1_linear_1408_186)" fill-opacity="0.2"/>
<rect x="159.883" y="155.816" width="98.7082" height="15.5558" rx="7.77792" fill="url(#paint2_linear_1408_186)" fill-opacity="0.2"/>
<rect x="141.219" y="278.203" width="98.7082" height="15.5558" rx="7.77792" fill="url(#paint3_linear_1408_186)" fill-opacity="0.2"/>
<rect x="141.414" y="5.18555" width="232.098" height="20.7411" rx="10.3706" fill="url(#paint4_linear_1408_186)" fill-opacity="0.2"/>
<rect x="159.883" y="132.482" width="232.098" height="15.5558" rx="7.77792" fill="url(#paint5_linear_1408_186)" fill-opacity="0.2"/>
<rect x="141.219" y="254.869" width="232.098" height="15.5558" rx="7.77792" fill="url(#paint6_linear_1408_186)" fill-opacity="0.2"/>
<rect x="141.414" y="77.7793" width="88.0371" height="18.1485" rx="9.07423" fill="url(#paint7_linear_1408_186)" fill-opacity="0.2"/>
<rect x="159.883" y="205.076" width="88.0371" height="18.1485" rx="9.07423" fill="url(#paint8_linear_1408_186)" fill-opacity="0.2"/>
<rect x="141.219" y="327.463" width="88.0371" height="18.1485" rx="9.07423" fill="url(#paint9_linear_1408_186)" fill-opacity="0.2"/>
<g filter="url(#filter1_d_1408_186)">
<mask id="mask0_1408_186" style="mask-type:luminance" maskUnits="userSpaceOnUse" x="67" y="155" width="118" height="117">
<path d="M159.538 155.001L67.5 179.662L92.1615 271.7L184.199 247.039L159.538 155.001Z" fill="white"/>
</mask>
<g mask="url(#mask0_1408_186)">
<path d="M115.736 229.626C114.564 228.707 113.162 226.925 110.743 224.798C109.495 223.592 106.135 221.409 104.964 220.49C104.081 219.493 103.927 218.918 103.906 217.691C103.731 215.888 105.072 213.987 107.085 213.448C108.523 213.062 110.269 213.828 111.651 214.382C112.38 214.803 113.552 215.723 114.281 216.144C115.01 216.565 115.087 216.852 115.817 217.273C116.623 217.982 117.065 218.48 116.469 217.407C115.796 216.046 114.892 213.822 113.7 211.675C112.95 210.027 112.585 209.816 111.99 208.743C111.317 207.382 110.798 206.596 110.125 205.235C109.606 204.449 108.702 202.225 108.106 201.152C107.433 199.791 106.739 197.202 107.582 195.743C108.213 194.649 109.862 193.899 111.167 194.166C112.836 194.644 114.238 196.426 114.757 197.212C115.718 198.496 116.832 200.355 117.736 202.579C119.082 205.301 121.101 209.384 121.332 210.247C121.024 209.096 120.197 207.16 120.176 205.932C120.233 204.993 120.5 203.688 121.573 203.092C122.359 202.573 123.222 202.342 124.085 202.111C125.025 202.167 126.042 202.511 126.771 202.932C128.384 204.35 129.386 208.089 129.309 207.801C129.288 206.574 128.671 204.273 128.938 202.968C129.072 202.316 130.068 201.432 130.566 200.991C131.352 200.472 132.503 200.163 133.443 200.22C134.018 200.066 135.4 200.62 135.841 201.119C136.648 201.827 137.706 204.626 138.302 205.7C138.379 205.987 138.281 204.472 138.625 203.455C139.313 201.421 143.186 199.767 144.552 203.717C145.092 205.73 145.015 205.442 145.4 206.88C145.785 208.319 146.017 209.181 146.325 210.332C146.633 211.482 147.039 214.148 147.06 215.376C147.003 216.315 146.68 218.56 146.125 219.942C146.125 219.942 143.886 224.241 144.061 226.044C144.236 227.846 144.236 227.846 144.544 228.997C144.853 230.147 145.526 231.508 145.526 231.508C145.526 231.508 143.302 232.413 142.074 232.433C140.847 232.454 138.869 230.826 138.35 230.04C137.544 229.331 136.681 229.563 136.337 230.58C136.07 231.884 135.171 234.283 134.021 234.591C132.085 235.418 127.981 236.209 125.105 236.98C125.105 236.98 124.909 233.95 123.45 233.108C122.356 232.476 120.533 231.423 119.439 230.792L115.736 229.626Z" fill="white"/>
</g>
<mask id="mask1_1408_186" style="mask-type:luminance" maskUnits="userSpaceOnUse" x="67" y="155" width="118" height="117">
<path d="M159.538 155.001L67.5 179.662L92.1615 271.7L184.199 247.039L159.538 155.001Z" fill="white"/>
</mask>
<g mask="url(#mask1_1408_186)">
<path d="M115.736 229.626C114.564 228.707 113.162 226.925 110.743 224.798C109.495 223.592 106.135 221.409 104.964 220.49C104.081 219.493 103.927 218.918 103.906 217.691C103.731 215.888 105.072 213.987 107.085 213.448C108.523 213.062 110.269 213.828 111.651 214.382C112.38 214.803 113.552 215.723 114.281 216.144C115.01 216.565 115.087 216.852 115.817 217.273C116.623 217.982 117.065 218.48 116.469 217.407C115.796 216.046 114.892 213.822 113.7 211.675C112.95 210.027 112.585 209.816 111.99 208.743C111.317 207.382 110.798 206.596 110.125 205.235C109.606 204.449 108.702 202.225 108.106 201.152C107.433 199.791 106.739 197.202 107.582 195.743C108.213 194.649 109.862 193.899 111.167 194.166C112.836 194.644 114.238 196.426 114.757 197.212C115.718 198.496 116.832 200.355 117.736 202.579C119.082 205.301 121.101 209.384 121.332 210.247C121.024 209.096 120.197 207.16 120.176 205.932C120.233 204.993 120.5 203.688 121.573 203.092C122.359 202.573 123.222 202.342 124.085 202.111C125.025 202.167 126.042 202.511 126.771 202.932C128.384 204.35 129.386 208.089 129.309 207.801C129.288 206.574 128.671 204.273 128.938 202.968C129.072 202.316 130.068 201.432 130.566 200.991C131.352 200.472 132.503 200.163 133.443 200.22C134.018 200.066 135.4 200.62 135.841 201.119C136.648 201.827 137.706 204.626 138.302 205.7C138.379 205.987 138.281 204.472 138.625 203.455C139.313 201.421 143.186 199.767 144.552 203.717C145.092 205.73 145.015 205.442 145.4 206.88C145.785 208.319 146.017 209.181 146.325 210.332C146.633 211.482 147.039 214.148 147.06 215.376C147.003 216.315 146.68 218.56 146.125 219.942C146.125 219.942 143.886 224.241 144.061 226.044C144.236 227.846 144.236 227.846 144.544 228.997C144.853 230.147 145.526 231.508 145.526 231.508C145.526 231.508 143.302 232.413 142.074 232.433C140.847 232.454 138.869 230.826 138.35 230.04C137.544 229.331 136.681 229.563 136.337 230.58C136.07 231.884 135.171 234.283 134.021 234.591C132.085 235.418 127.981 236.209 125.105 236.98C125.105 236.98 124.909 233.95 123.45 233.108C122.356 232.476 120.533 231.423 119.439 230.792L115.736 229.626Z" stroke="black" stroke-width="2.74243" stroke-linecap="round" stroke-linejoin="round"/>
</g>
<mask id="mask2_1408_186" style="mask-type:luminance" maskUnits="userSpaceOnUse" x="67" y="155" width="118" height="117">
<path d="M159.538 155.001L67.5 179.662L92.1615 271.7L184.199 247.039L159.538 155.001Z" fill="white"/>
</mask>
<g mask="url(#mask2_1408_186)">
<path d="M139.831 224.093L137.211 214.314" stroke="black" stroke-width="2.74243" stroke-linecap="round"/>
</g>
<mask id="mask3_1408_186" style="mask-type:luminance" maskUnits="userSpaceOnUse" x="67" y="155" width="118" height="117">
<path d="M159.538 155.001L67.5 179.662L92.1615 271.7L184.199 247.039L159.538 155.001Z" fill="white"/>
</mask>
<g mask="url(#mask3_1408_186)">
<path d="M134.08 225.636L131.172 215.934" stroke="black" stroke-width="2.74243" stroke-linecap="round"/>
</g>
<mask id="mask4_1408_186" style="mask-type:luminance" maskUnits="userSpaceOnUse" x="67" y="155" width="118" height="117">
<path d="M159.538 155.001L67.5 179.662L92.1615 271.7L184.199 247.039L159.538 155.001Z" fill="white"/>
</mask>
<g mask="url(#mask4_1408_186)">
<path d="M125.711 217.398L128.331 227.177" stroke="black" stroke-width="2.74243" stroke-linecap="round"/>
</g>
</g>
<defs>
<filter id="filter0_d_1408_186" x="0.922035" y="100.918" width="190.056" height="182.413" filterUnits="userSpaceOnUse" color-interpolation-filters="sRGB">
<feFlood flood-opacity="0" result="BackgroundImageFix"/>
<feColorMatrix in="SourceAlpha" type="matrix" values="0 0 0 0 0 0 0 0 0 0 0 0 0 0 0 0 0 0 127 0" result="hardAlpha"/>
<feMorphology radius="3.13799" operator="dilate" in="SourceAlpha" result="effect1_dropShadow_1408_186"/>
<feOffset dx="15.69" dy="15.69"/>
<feGaussianBlur stdDeviation="15.69"/>
<feComposite in2="hardAlpha" operator="out"/>
<feColorMatrix type="matrix" values="0 0 0 0 0 0 0 0 0 0 0 0 0 0 0 0 0 0 0.57 0"/>
<feBlend mode="normal" in2="BackgroundImageFix" result="effect1_dropShadow_1408_186"/>
<feBlend mode="normal" in="SourceGraphic" in2="effect1_dropShadow_1408_186" result="shape"/>
</filter>
<filter id="filter1_d_1408_186" x="93.9564" y="192.741" width="54.4748" height="54.1732" filterUnits="userSpaceOnUse" color-interpolation-filters="sRGB">
<feFlood flood-opacity="0" result="BackgroundImageFix"/>
<feColorMatrix in="SourceAlpha" type="matrix" values="0 0 0 0 0 0 0 0 0 0 0 0 0 0 0 0 0 0 127 0" result="hardAlpha"/>
<feOffset dx="-4.28133" dy="4.28133"/>
<feGaussianBlur stdDeviation="2.14066"/>
<feComposite in2="hardAlpha" operator="out"/>
<feColorMatrix type="matrix" values="0 0 0 0 0 0 0 0 0 0 0 0 0 0 0 0 0 0 0.25 0"/>
<feBlend mode="normal" in2="BackgroundImageFix" result="effect1_dropShadow_1408_186"/>
<feBlend mode="normal" in="SourceGraphic" in2="effect1_dropShadow_1408_186" result="shape"/>
</filter>
<linearGradient id="paint0_linear_1408_186" x1="6.51338" y1="114.26" x2="136.659" y2="237.466" gradientUnits="userSpaceOnUse">
<stop stop-color="#B6FD85"/>
<stop offset="1" stop-color="#35A635"/>
</linearGradient>
<linearGradient id="paint1_linear_1408_186" x1="141.414" y1="38.3718" x2="240.122" y2="38.3718" gradientUnits="userSpaceOnUse">
<stop stop-color="white"/>
<stop offset="1" stop-color="white" stop-opacity="0.3"/>
</linearGradient>
<linearGradient id="paint2_linear_1408_186" x1="159.883" y1="160.483" x2="258.591" y2="160.483" gradientUnits="userSpaceOnUse">
<stop stop-color="white"/>
<stop offset="1" stop-color="white" stop-opacity="0.3"/>
</linearGradient>
<linearGradient id="paint3_linear_1408_186" x1="141.219" y1="282.87" x2="239.927" y2="282.87" gradientUnits="userSpaceOnUse">
<stop stop-color="white"/>
<stop offset="1" stop-color="white" stop-opacity="0.3"/>
</linearGradient>
<linearGradient id="paint4_linear_1408_186" x1="141.414" y1="11.4079" x2="373.512" y2="11.4079" gradientUnits="userSpaceOnUse">
<stop stop-color="white"/>
<stop offset="1" stop-color="white" stop-opacity="0.3"/>
</linearGradient>
<linearGradient id="paint5_linear_1408_186" x1="159.883" y1="137.149" x2="391.981" y2="137.149" gradientUnits="userSpaceOnUse">
<stop stop-color="white"/>
<stop offset="1" stop-color="white" stop-opacity="0.3"/>
</linearGradient>
<linearGradient id="paint6_linear_1408_186" x1="141.219" y1="259.536" x2="373.316" y2="259.536" gradientUnits="userSpaceOnUse">
<stop stop-color="white"/>
<stop offset="1" stop-color="white" stop-opacity="0.3"/>
</linearGradient>
<linearGradient id="paint7_linear_1408_186" x1="141.414" y1="83.2238" x2="229.451" y2="83.2238" gradientUnits="userSpaceOnUse">
<stop stop-color="white"/>
<stop offset="1" stop-color="white" stop-opacity="0.3"/>
</linearGradient>
<linearGradient id="paint8_linear_1408_186" x1="159.883" y1="210.521" x2="247.92" y2="210.521" gradientUnits="userSpaceOnUse">
<stop stop-color="white"/>
<stop offset="1" stop-color="white" stop-opacity="0.3"/>
</linearGradient>
<linearGradient id="paint9_linear_1408_186" x1="141.219" y1="332.907" x2="229.256" y2="332.907" gradientUnits="userSpaceOnUse">
<stop stop-color="white"/>
<stop offset="1" stop-color="white" stop-opacity="0.3"/>
</linearGradient>
</defs>
</svg>
