<svg width="71" height="88" viewBox="0 0 71 88" fill="none" xmlns="http://www.w3.org/2000/svg">
<path d="M34.6151 10.3857L58.5515 10.4372C58.8891 10.4371 59.2133 10.5716 59.4527 10.811C63.1258 14.5079 66.8449 18.2262 70.6102 21.9658C70.8338 22.1877 70.9456 22.46 70.9456 22.7825C70.9763 43.8822 70.9933 64.9827 70.9968 86.084C70.9968 87.2361 70.4053 87.813 69.2225 87.8147C50.3827 87.8301 31.5437 87.8335 12.7056 87.825C11.405 87.8224 11.0312 87.0415 11.0312 85.828C11.0312 66.7219 11.0312 54.3187 11.0312 35.2007L14.101 35.1956V84.6861C14.101 84.7065 14.109 84.726 14.1235 84.7404C14.1379 84.7549 14.1574 84.7629 14.1778 84.7629H67.8272C67.8537 84.7629 67.8791 84.7524 67.8978 84.7337C67.9165 84.715 67.9271 84.6896 67.9271 84.6631V24.6413C67.9271 24.61 67.9146 24.5801 67.8926 24.558C67.8705 24.5359 67.8405 24.5235 67.8093 24.5235C64.7592 24.5269 61.704 24.5269 58.6437 24.5235C57.3866 24.5209 56.9181 23.8681 56.9181 22.6238C56.913 19.613 56.9121 16.609 56.9155 13.6118C56.9155 13.5881 56.9061 13.5653 56.8893 13.5485C56.8725 13.5317 56.8497 13.5222 56.8259 13.5222H35.8611L34.6151 10.3857ZM65.5537 21.4564C65.5695 21.4564 65.5849 21.4518 65.598 21.4431C65.6112 21.4344 65.6214 21.422 65.6274 21.4074C65.6335 21.3929 65.635 21.3768 65.632 21.3614C65.6289 21.3459 65.6212 21.3318 65.6101 21.3207L60.1158 15.8264C60.1047 15.8152 60.0905 15.8076 60.0751 15.8045C60.0596 15.8014 60.0436 15.803 60.0291 15.809C60.0145 15.8151 60.0021 15.8253 59.9934 15.8384C59.9846 15.8516 59.98 15.867 59.9801 15.8827L59.9827 21.3744C59.9827 21.3955 59.991 21.4157 60.0059 21.4305C60.0208 21.4454 60.041 21.4538 60.062 21.4538L65.5537 21.4564Z" fill="#909090"/>
<path d="M38.906 20.8278L38.463 23.9078C36.315 32.2259 29.5996 38.1682 21.0279 38.8723L17.9582 38.8774C3.5877 37.6536 -4.61269 21.9339 2.75563 9.51166C6.79054 2.70915 14.6863 -1.01341 22.5154 0.241098C32.5694 1.84892 39.5076 10.697 38.906 20.8278ZM35.8823 19.4684C35.8823 15.12 34.1549 10.9497 31.0802 7.87488C28.0054 4.8001 23.8351 3.0727 19.4867 3.0727C15.1383 3.0727 10.968 4.8001 7.89319 7.87488C4.81841 10.9497 3.09102 15.12 3.09102 19.4684C3.09102 23.8168 4.81841 27.9871 7.89319 31.0618C10.968 34.1366 15.1383 35.864 19.4867 35.864C23.8351 35.864 28.0054 34.1366 31.0802 31.0618C34.1549 27.9871 35.8823 23.8168 35.8823 19.4684Z" fill="#B6FD85"/>
<path d="M21.1049 18.9566C23.1445 21.114 25.1936 23.2808 27.252 25.457C27.7555 25.9895 28.0482 26.4495 28.1301 26.8369C28.4169 28.2067 26.5223 29.1411 25.4445 27.9993C23.0396 25.4544 20.6739 22.9514 18.3475 20.4902C18.1041 20.2319 17.9677 19.8906 17.9661 19.5352C17.9592 17.2583 17.9592 14.9294 17.9661 12.5483C17.9678 11.8861 18.0727 11.4039 18.281 11.1018C18.8647 10.2595 20.4674 10.3952 20.877 11.4014C20.9692 11.6301 21.0161 12.0235 21.0178 12.5816C21.0213 14.6418 21.0213 16.6942 21.0178 18.739C21.0178 18.8226 21.0469 18.8951 21.1049 18.9566Z" fill="#B6FD85"/>
</svg>
