<svg width="62" height="77" viewBox="0 0 62 77" fill="none" xmlns="http://www.w3.org/2000/svg">
<path d="M33.2324 54.4901C32.3806 55.7878 31.6989 57.1439 31.1874 58.5582C31.157 58.6397 31.1272 58.6397 31.098 58.5582C30.578 57.088 29.8702 55.6936 28.9747 54.3752" stroke="#006350" stroke-width="1.82"/>
<mask id="path-2-inside-1_994_690" fill="white">
<path d="M33.2357 54.4908C32.3839 55.7885 31.7022 57.1446 31.1906 58.559C31.1603 58.6404 31.1305 58.6404 31.1013 58.559C30.5813 57.0887 29.8735 55.6944 28.978 54.376C27.8899 50.0672 26.3497 45.7402 23.8327 42.0494C23.8136 42.0213 23.7855 42.0004 23.7531 41.9901C23.7207 41.9799 23.6858 41.9809 23.654 41.9929C20.4936 43.1904 16.4583 44.1381 13.2486 42.6199C9.52857 40.861 7.37968 36.3809 5.7065 32.8705C4.95678 31.2994 4.40574 30.2477 4.05336 29.7155C3.07886 28.2391 1.87348 26.9165 0.437244 25.7476C0.120105 25.49 -0.0244911 25.1339 0.00345603 24.6795C0.0338334 24.1546 0.332746 23.8119 0.900195 23.6515C4.29152 22.6867 7.71383 22.3477 11.1671 22.6345C21.0987 23.4583 26.3315 30.3115 25.5314 39.957C25.5255 40.0372 25.5473 40.1175 25.5933 40.1848C27.4038 42.7718 28.8121 45.5641 29.8182 48.5617C29.8692 48.7136 29.8948 48.71 29.8948 48.5508V30.5101C29.8948 30.4786 29.8859 30.4476 29.8692 30.4208C29.8524 30.3941 29.8284 30.3726 29.8 30.3589C27.5928 29.2762 25.4384 27.6996 24.035 25.7366C20.7834 21.1818 22.1941 15.7995 25.3673 11.5381C26.196 10.4239 26.7677 9.63104 27.0824 9.15958C28.4603 7.09086 29.6159 4.47353 29.8638 1.94369C29.9197 1.36165 30.0059 0.97768 30.1226 0.79177C30.3765 0.389571 30.7872 0.223101 31.3547 0.292362C32.585 0.439997 32.3262 1.77236 32.5121 2.68733C32.9422 4.79189 33.7077 6.75246 34.8086 8.56904C34.9058 8.72943 35.5127 9.57636 36.6294 11.1098C38.6507 13.8875 40.344 17.1647 40.1198 20.7097C39.8354 25.1862 36.3487 28.5472 32.5066 30.3461C32.4751 30.3607 32.4484 30.3839 32.4296 30.4129C32.4109 30.442 32.4009 30.4757 32.4009 30.5101L32.4027 48.0058C32.4027 48.3995 32.4641 48.4098 32.5868 48.0368C33.4641 45.3952 34.7181 42.8295 36.3487 40.3397C36.4265 40.2219 36.4593 40.09 36.4471 39.9442C35.9569 33.9258 37.8378 28.0004 43.3003 24.8709C48.4164 21.9382 55.6432 22.0804 61.1075 23.626C61.8948 23.8483 62.2867 24.9274 61.7581 25.5744C61.7496 25.5866 61.4969 25.8083 60.9999 26.2397C59.3353 27.6832 58.012 29.3995 57.0302 31.3887C54.3582 36.7983 51.4803 44.1381 44.022 43.3672C42.0925 43.1667 40.2115 42.725 38.3791 42.0421C38.3411 42.0278 38.2993 42.0271 38.2608 42.0401C38.2223 42.053 38.1894 42.0788 38.1677 42.1132C35.7965 45.8934 34.3001 50.1675 33.2357 54.4908ZM31.105 6.92318C30.6396 8.00948 30.1129 9.03685 29.5248 10.0053C28.8431 11.128 27.7987 12.4367 26.9548 13.6652C25.3017 16.0729 24.0477 19.3355 24.9846 22.2025C25.7318 24.4917 27.724 26.3108 29.789 27.5101C29.8571 27.5502 29.8911 27.5307 29.8911 27.4517C29.896 25.3715 29.8972 23.2918 29.8948 21.2128C29.8948 20.8118 29.9391 20.5153 30.0278 20.3233C30.3978 19.5232 31.6846 19.4485 32.1421 20.1283C32.3122 20.3823 32.3978 20.7918 32.3991 21.3568C32.4027 23.3265 32.4033 25.3496 32.4009 27.4262C32.4009 27.5125 32.4379 27.5344 32.5121 27.4918C37.4332 24.6321 39.09 20.2322 36.2011 15.0577C35.5899 13.9629 35.0972 13.1901 34.7229 12.7393C33.2478 10.9604 32.0673 9.02227 31.1815 6.925C31.156 6.86425 31.1305 6.86364 31.105 6.92318ZM15.1952 32.5461C15.5573 32.3735 15.8422 32.3346 16.05 32.4294C18.6321 33.6081 20.9419 35.1889 22.9797 37.172C23.027 37.2193 23.0501 37.209 23.0489 37.141C22.7755 26.3691 12.6708 23.8374 3.9677 25.4906C3.95949 25.4922 3.95187 25.4961 3.94563 25.5016C3.93938 25.5072 3.93472 25.5144 3.93213 25.5223C3.92953 25.5303 3.9291 25.5388 3.93086 25.547C3.93263 25.5552 3.93653 25.5627 3.94218 25.5689C5.75571 27.47 6.75816 29.2489 7.99027 31.8243C9.83478 35.681 12.4083 41.3914 17.499 40.8956C19.0652 40.7425 20.5792 40.4108 22.041 39.9005C22.0847 39.8859 22.0908 39.8616 22.0592 39.8276C20.171 37.7801 17.985 36.1488 15.5014 34.9337C15.1065 34.7405 14.8501 34.5613 14.7322 34.396C14.2747 33.7618 14.4698 32.8942 15.1952 32.5461ZM54.2361 31.2811C55.1766 29.1669 56.4427 27.267 58.0345 25.5817C58.0697 25.544 58.0624 25.5203 58.0126 25.5106C49.4189 23.8338 39.2613 26.4019 38.9533 36.9897C38.9521 37.0334 38.9666 37.0395 38.997 37.0079C41.0129 34.8827 43.3343 33.1682 45.9613 31.8644C47.1205 31.2902 48.3125 32.4677 47.7038 33.5139C47.414 34.0133 46.6594 34.3323 46.1254 34.6293C43.6988 35.9733 41.6058 37.7072 39.8464 39.8312C39.8172 39.8664 39.8245 39.8913 39.8682 39.9059C41.649 40.4928 43.6119 40.9922 45.4783 40.9139C50.0404 40.7207 52.6796 34.7825 54.2361 31.2811Z"/>
</mask>
<path d="M33.2357 54.4908L34.7572 55.4895L34.9283 55.2288L35.0029 54.9259L33.2357 54.4908ZM31.1906 58.559L32.8958 59.1952L32.899 59.1866L32.9021 59.178L31.1906 58.559ZM31.1013 58.559L29.3855 59.1659L29.3879 59.1727L31.1013 58.559ZM28.978 54.376L27.2134 54.8216L27.292 55.133L27.4724 55.3986L28.978 54.376ZM23.8327 42.0494L22.3272 43.0721L22.329 43.0748L23.8327 42.0494ZM23.654 41.9929L23.0106 40.2904L23.0092 40.2909L23.654 41.9929ZM13.2486 42.6199L14.0268 40.9746L14.0265 40.9745L13.2486 42.6199ZM5.7065 32.8705L7.34942 32.0874L7.34907 32.0867L5.7065 32.8705ZM4.05336 29.7155L2.53443 30.7181L2.53584 30.7202L4.05336 29.7155ZM0.437244 25.7476L1.5861 24.336L1.58472 24.3349L0.437244 25.7476ZM0.00345603 24.6795L1.82004 24.7912L1.82042 24.7846L0.00345603 24.6795ZM0.900195 23.6515L1.39524 25.4029L1.3982 25.402L0.900195 23.6515ZM11.1671 22.6345L11.0165 24.4482L11.0167 24.4482L11.1671 22.6345ZM25.5314 39.957L23.7176 39.8065L23.7169 39.815L23.7162 39.8236L25.5314 39.957ZM25.5933 40.1848L24.0913 41.2125L24.0967 41.2205L24.1022 41.2284L25.5933 40.1848ZM29.8182 48.5617L28.0928 49.1408L28.093 49.1414L29.8182 48.5617ZM29.8948 30.5101L28.0748 30.5072V30.5101H29.8948ZM29.8 30.3589L28.9985 31.9929L29.0087 31.9978L29.8 30.3589ZM24.035 25.7366L22.5537 26.7941L22.5544 26.7951L24.035 25.7366ZM25.3673 11.5381L26.8271 12.6251L26.8277 12.6243L25.3673 11.5381ZM27.0824 9.15958L28.5962 10.17L28.5972 10.1685L27.0824 9.15958ZM29.8638 1.94369L31.6751 2.12116L31.6754 2.11767L29.8638 1.94369ZM30.1226 0.79177L28.5837 -0.179921L28.5809 -0.175539L30.1226 0.79177ZM31.3547 0.292362L31.1342 2.09896L31.1378 2.0994L31.3547 0.292362ZM32.5121 2.68733L30.7285 3.04972L30.7289 3.05178L32.5121 2.68733ZM34.8086 8.56904L33.2521 9.51229L33.2521 9.51234L34.8086 8.56904ZM36.6294 11.1098L38.101 10.0389L38.1007 10.0384L36.6294 11.1098ZM40.1198 20.7097L41.9361 20.8251L41.9361 20.8246L40.1198 20.7097ZM32.5066 30.3461L33.2706 31.998L33.2784 31.9944L32.5066 30.3461ZM32.4009 30.5101L30.5809 30.5074V30.5103L32.4009 30.5101ZM32.4027 48.0058H34.2227V48.0056L32.4027 48.0058ZM32.5868 48.0368L30.8595 47.4632L30.8579 47.468L32.5868 48.0368ZM36.3487 40.3397L34.8296 39.3374L34.8262 39.3426L36.3487 40.3397ZM36.4471 39.9442L34.6332 40.092L34.6334 40.0954L36.4471 39.9442ZM43.3003 24.8709L44.205 26.4501L44.2054 26.4498L43.3003 24.8709ZM61.1075 23.626L60.6121 25.3773L60.6128 25.3775L61.1075 23.626ZM61.7581 25.5744L60.3487 24.423L60.3059 24.4753L60.2671 24.5307L61.7581 25.5744ZM60.9999 26.2397L62.1923 27.6147L62.1929 27.6141L60.9999 26.2397ZM57.0302 31.3887L58.662 32.1947L58.6622 32.1942L57.0302 31.3887ZM44.022 43.3672L43.8339 45.1774L43.8349 45.1775L44.022 43.3672ZM38.3791 42.0421L37.7409 43.7465L37.7436 43.7475L38.3791 42.0421ZM38.1677 42.1132L36.6294 41.1405L36.6259 41.146L38.1677 42.1132ZM31.105 6.92318L29.4321 6.20625L29.432 6.20648L31.105 6.92318ZM29.5248 10.0053L27.9691 9.0606L27.969 9.06075L29.5248 10.0053ZM26.9548 13.6652L25.4547 12.6347L25.4544 12.635L26.9548 13.6652ZM24.9846 22.2025L26.7147 21.6377L26.7145 21.6372L24.9846 22.2025ZM29.789 27.5101L30.7131 25.942L30.7031 25.9362L29.789 27.5101ZM29.8911 27.4517L28.0711 27.4475V27.4517H29.8911ZM29.8948 21.2128H28.0748L28.0748 21.2149L29.8948 21.2128ZM30.0278 20.3233L28.3759 19.5595L28.3756 19.56L30.0278 20.3233ZM32.1421 20.1283L33.6542 19.1154L33.652 19.1122L32.1421 20.1283ZM32.3991 21.3568L34.2191 21.3534L34.2191 21.3529L32.3991 21.3568ZM32.4009 27.4262L30.5809 27.4241V27.4262H32.4009ZM32.5121 27.4918L33.4178 29.0705L33.4265 29.0654L32.5121 27.4918ZM36.2011 15.0577L34.612 15.9448L34.612 15.9449L36.2011 15.0577ZM34.7229 12.7393L33.3219 13.901L33.3226 13.9018L34.7229 12.7393ZM31.1815 6.925L29.5035 7.62976L29.5049 7.63313L31.1815 6.925ZM15.1952 32.5461L14.4122 30.903L14.4077 30.9052L15.1952 32.5461ZM16.05 32.4294L16.8057 30.7737L16.8053 30.7735L16.05 32.4294ZM22.9797 37.172L24.2666 35.885L24.2578 35.8763L24.249 35.8676L22.9797 37.172ZM23.0489 37.141L24.8687 37.1085L24.8683 37.0948L23.0489 37.141ZM3.9677 25.4906L3.62806 23.7025L3.61569 23.7049L3.60335 23.7074L3.9677 25.4906ZM3.94218 25.5689L2.59783 26.7958L2.6114 26.8106L2.6253 26.8252L3.94218 25.5689ZM7.99027 31.8243L9.63215 31.039L9.63206 31.0388L7.99027 31.8243ZM17.499 40.8956L17.6754 42.7071L17.676 42.707L17.499 40.8956ZM22.041 39.9005L21.4655 38.1739L21.4532 38.1779L21.4411 38.1822L22.041 39.9005ZM22.0592 39.8276L20.7213 41.0614L20.7255 41.066L22.0592 39.8276ZM15.5014 34.9337L16.3012 33.2989L16.3012 33.2989L15.5014 34.9337ZM14.7322 34.396L16.214 33.3392L16.2083 33.3314L14.7322 34.396ZM54.2361 31.2811L52.5732 30.5414L52.573 30.5418L54.2361 31.2811ZM58.0345 25.5817L59.3577 26.8314L59.3636 26.825L58.0345 25.5817ZM58.0126 25.5106L58.3612 23.7243L58.0126 25.5106ZM38.9533 36.9897L37.134 36.9368L37.134 36.9392L38.9533 36.9897ZM38.997 37.0079L40.309 38.2694L40.3175 38.2604L38.997 37.0079ZM45.9613 31.8644L45.1536 30.2335L45.1522 30.2341L45.9613 31.8644ZM47.7038 33.5139L46.1307 32.5985L46.1296 32.6004L47.7038 33.5139ZM46.1254 34.6293L47.0071 36.2215L47.0102 36.2198L46.1254 34.6293ZM39.8464 39.8312L38.4448 38.6702L38.4442 38.6708L39.8464 39.8312ZM39.8682 39.9059L39.2927 41.6325L39.2985 41.6345L39.8682 39.9059ZM45.4783 40.9139L45.5547 42.7323L45.5553 42.7322L45.4783 40.9139ZM31.7141 53.4921C30.7869 54.9048 30.0405 56.3878 29.4792 57.94L32.9021 59.178C33.3639 57.9014 33.9808 56.6723 34.7572 55.4895L31.7141 53.4921ZM29.4855 57.9227C29.5013 57.8804 29.564 57.713 29.7041 57.5233C29.8032 57.3892 30.2685 56.8 31.1455 56.8C32.0299 56.8 32.4962 57.3974 32.5976 57.5376C32.7379 57.7314 32.7994 57.9023 32.8147 57.9452L29.3879 59.1727C29.4179 59.2563 29.494 59.4578 29.649 59.672C29.7652 59.8325 30.2463 60.44 31.1455 60.44C32.0375 60.44 32.5177 59.8407 32.6318 59.6862C32.787 59.4762 32.8648 59.2782 32.8958 59.1952L29.4855 57.9227ZM32.8172 57.9521C32.244 56.3316 31.4647 54.7979 30.4835 53.3534L27.4724 55.3986C28.2823 56.5909 28.9186 57.8458 29.3855 59.1659L32.8172 57.9521ZM30.7426 53.9304C29.6299 49.5244 28.0242 44.9654 25.3363 41.0239L22.329 43.0748C24.6752 46.5151 26.1498 50.6101 27.2134 54.8216L30.7426 53.9304ZM25.3381 41.0267C25.0893 40.6603 24.7243 40.3885 24.3021 40.2549L23.2042 43.7254C22.8468 43.6123 22.5379 43.3822 22.3272 43.0721L25.3381 41.0267ZM24.3021 40.2549C23.8798 40.1213 23.4249 40.1338 23.0106 40.2904L24.2975 43.6953C23.9468 43.8279 23.5617 43.8385 23.2042 43.7254L24.3021 40.2549ZM23.0092 40.2909C19.8826 41.4756 16.4986 42.1439 14.0268 40.9746L12.4703 44.2651C16.4179 46.1324 21.1046 44.9051 24.2989 43.6948L23.0092 40.2909ZM14.0265 40.9745C12.5787 40.29 11.3352 39.0235 10.2143 37.3775C9.09382 35.7324 8.19449 33.8604 7.34942 32.0874L4.06357 33.6536C4.89169 35.391 5.9034 37.5143 7.20571 39.4265C8.50747 41.3379 10.1985 43.1909 12.4706 44.2652L14.0265 40.9745ZM7.34907 32.0867C6.60465 30.5267 6.00346 29.3641 5.57089 28.7107L2.53584 30.7202C2.80802 31.1313 3.30892 32.0721 4.06392 33.6543L7.34907 32.0867ZM5.5723 28.7129C4.49124 27.0751 3.159 25.6161 1.5861 24.336L-0.711609 27.1591C0.587965 28.2168 1.66648 29.4032 2.53443 30.7181L5.5723 28.7129ZM1.58472 24.3349C1.64864 24.3868 1.72677 24.4784 1.77718 24.6025C1.82465 24.7194 1.81971 24.7963 1.82002 24.7912L-1.81311 24.5678C-1.87233 25.5308 -1.54066 26.4857 -0.710236 27.1602L1.58472 24.3349ZM1.82042 24.7846C1.81609 24.8594 1.7782 25.046 1.62192 25.2252C1.47948 25.3885 1.35173 25.4152 1.39524 25.4029L0.405154 21.9001C-0.118794 22.0482 -0.679721 22.3264 -1.12108 22.8324C-1.57627 23.3542 -1.7788 23.9746 -1.8135 24.5743L1.82042 24.7846ZM1.3982 25.402C4.58265 24.4961 7.78533 24.1799 11.0165 24.4482L11.3177 20.8207C7.64233 20.5155 4.00039 20.8773 0.402187 21.901L1.3982 25.402ZM11.0167 24.4482C15.5828 24.827 18.8779 26.5654 20.9598 29.1337C23.0513 31.7138 24.088 35.3416 23.7176 39.8065L27.3451 40.1074C27.7749 34.9268 26.5953 30.3053 23.7875 26.8415C20.9701 23.3659 16.683 21.2658 11.3176 20.8207L11.0167 24.4482ZM23.7162 39.8236C23.6797 40.3208 23.8156 40.8096 24.0913 41.2125L27.0954 39.1571C27.279 39.4255 27.3712 39.7536 27.3465 40.0904L23.7162 39.8236ZM24.1022 41.2284C25.8126 43.6723 27.1421 46.3082 28.0928 49.1408L31.5436 47.9826C30.4821 44.82 28.995 41.8712 27.0844 39.1412L24.1022 41.2284ZM28.093 49.1414C28.1136 49.2028 28.1599 49.3369 28.2346 49.4815C28.266 49.5424 28.3554 49.7114 28.5155 49.8883C28.5957 49.9769 29.1697 50.6122 30.133 50.4746C31.1213 50.3334 31.4888 49.533 31.5437 49.4111C31.645 49.186 31.6774 48.9909 31.688 48.9228C31.7137 48.7592 31.7148 48.6151 31.7148 48.5508H28.0748C28.0748 48.5481 28.0748 48.5322 28.0761 48.5068C28.0773 48.4853 28.0806 48.4314 28.0919 48.3592C28.0994 48.3115 28.1278 48.1319 28.2243 47.9174C28.2744 47.8061 28.6363 47.0115 29.6182 46.8712C30.5751 46.7345 31.142 47.3659 31.2142 47.4456C31.3663 47.6137 31.4469 47.7691 31.4688 47.8114C31.5014 47.8745 31.5211 47.9231 31.5288 47.9425C31.5378 47.9654 31.5427 47.9799 31.5434 47.9821L28.093 49.1414ZM31.7148 48.5508V30.5101H28.0748V48.5508H31.7148ZM31.7148 30.5131C31.7154 30.1388 31.6102 29.7718 31.4115 29.4546L28.3269 31.3871C28.1616 31.1234 28.0742 30.8184 28.0748 30.5072L31.7148 30.5131ZM31.4115 29.4546C31.2127 29.1373 30.9284 28.8827 30.5913 28.7199L29.0087 31.9978C28.7284 31.8625 28.4921 31.6508 28.3269 31.3871L31.4115 29.4546ZM30.6015 28.7249C28.5705 27.7287 26.6914 26.3229 25.5155 24.6781L22.5544 26.7951C24.1854 29.0763 26.615 30.8238 28.9985 31.9929L30.6015 28.7249ZM25.5162 24.6792C22.9289 21.0548 23.8746 16.59 26.8271 12.6251L23.9076 10.4511C20.5136 15.009 18.6379 21.3088 22.5537 26.7941L25.5162 24.6792ZM26.8277 12.6243C27.6561 11.5105 28.2529 10.6842 28.5962 10.17L25.5687 8.14913C25.2825 8.57786 24.7359 9.33733 23.9069 10.452L26.8277 12.6243ZM28.5972 10.1685C30.0837 7.93674 31.3895 5.03609 31.6751 2.12116L28.0524 1.76621C27.8423 3.91097 26.837 6.24498 25.5677 8.15064L28.5972 10.1685ZM31.6754 2.11767C31.6992 1.86976 31.7255 1.70974 31.7461 1.61816C31.7561 1.5738 31.7607 1.56389 31.7553 1.57885C31.7516 1.58924 31.7263 1.66011 31.6642 1.75908L28.5809 -0.175539C28.3584 0.179176 28.2531 0.560157 28.1947 0.820208C28.129 1.1126 28.0842 1.43558 28.0521 1.76971L31.6754 2.11767ZM31.6615 1.76346C31.6361 1.80359 31.5926 1.85993 31.5256 1.91723C31.4577 1.97538 31.3814 2.0209 31.3048 2.05198C31.1525 2.11369 31.0705 2.09118 31.1342 2.09895L31.5752 -1.51423C31.0715 -1.57572 30.5004 -1.54963 29.9374 -1.32144C29.3528 -1.08448 28.8982 -0.677981 28.5837 -0.179917L31.6615 1.76346ZM31.1378 2.0994C31.0907 2.09374 30.8911 2.0459 30.7076 1.85233C30.5563 1.69272 30.5393 1.5604 30.5557 1.62863C30.5741 1.70513 30.5897 1.82698 30.612 2.09746C30.6295 2.31025 30.6556 2.69086 30.7285 3.04972L34.2956 2.32494C34.2756 2.22632 34.2643 2.09726 34.2396 1.79829C34.2197 1.557 34.1882 1.16498 34.0943 0.775563C33.9985 0.377873 33.8038 -0.172402 33.3492 -0.651947C32.8624 -1.16545 32.2338 -1.4352 31.5715 -1.51467L31.1378 2.0994ZM30.7289 3.05178C31.2004 5.35849 32.0418 7.51516 33.2521 9.51229L36.3651 7.62578C35.3736 5.98975 34.684 4.22528 34.2952 2.32288L30.7289 3.05178ZM33.2521 9.51234C33.4017 9.75909 34.0812 10.7022 35.1582 12.1812L38.1007 10.0384C37.5432 9.27296 37.1155 8.68222 36.816 8.26437C36.666 8.05505 36.5509 7.89278 36.4688 7.77532C36.3728 7.63809 36.3528 7.60554 36.3651 7.62573L33.2521 9.51234ZM35.1578 12.1807C37.1016 14.8519 38.4868 17.694 38.3034 20.5949L41.9361 20.8246C42.2011 16.6353 40.1999 12.9232 38.101 10.0389L35.1578 12.1807ZM38.3034 20.5944C38.0788 24.1302 35.2774 27.0392 31.7348 28.6978L33.2784 31.9944C37.4201 30.0552 41.592 26.2421 41.9361 20.8251L38.3034 20.5944ZM31.7426 28.6942C31.3992 28.8531 31.1063 29.1066 30.8998 29.4271L33.9595 31.3988C33.7904 31.6612 33.5509 31.8683 33.2706 31.998L31.7426 28.6942ZM30.8998 29.4271C30.6931 29.7478 30.5815 30.1225 30.5809 30.5074L34.2209 30.5129C34.2204 30.829 34.1287 31.1363 33.9595 31.3988L30.8998 29.4271ZM30.5809 30.5103L30.5827 48.006L34.2227 48.0056L34.2209 30.51L30.5809 30.5103ZM30.5827 48.0058C30.5827 48.1283 30.5861 48.3131 30.6148 48.5025C30.6272 48.5839 30.6604 48.784 30.7587 49.0108C30.8062 49.1204 31.1578 49.9371 32.1466 50.1036C33.1454 50.2717 33.7462 49.6028 33.8295 49.51C33.9965 49.3237 34.0919 49.1419 34.1292 49.0684C34.2163 48.8968 34.2774 48.7217 34.3156 48.6056L30.8579 47.468C30.8348 47.5385 30.8422 47.5019 30.8833 47.421C30.8976 47.3929 30.9719 47.2444 31.1198 47.0795C31.1839 47.008 31.7674 46.3485 32.7509 46.5141C33.7243 46.678 34.0625 47.4801 34.0985 47.5632C34.1853 47.7634 34.2089 47.925 34.2136 47.9559C34.227 48.0443 34.2227 48.0801 34.2227 48.0058H30.5827ZM34.314 48.6104C35.1384 46.1282 36.3209 43.704 37.8712 41.3369L34.8262 39.3426C33.1152 41.955 31.7898 44.6621 30.8596 47.4632L34.314 48.6104ZM37.8679 41.342C38.179 40.8705 38.3056 40.3297 38.2609 39.7931L34.6334 40.0954C34.6243 39.9854 34.6303 39.8543 34.6655 39.7129C34.7009 39.5708 34.7594 39.4439 34.8296 39.3374L37.8679 41.342ZM38.2611 39.7964C37.8055 34.204 39.5641 29.1089 44.205 26.4501L42.3955 23.2917C36.1116 26.8918 34.1082 33.6476 34.6332 40.092L38.2611 39.7964ZM44.2054 26.4498C48.7347 23.8536 55.4019 23.9035 60.6121 25.3773L61.6028 21.8747C55.8844 20.2572 48.0982 20.0228 42.3952 23.2919L44.2054 26.4498ZM60.6128 25.3775C60.3312 25.2979 60.2323 25.1114 60.2055 25.0335C60.1759 24.9477 60.1333 24.6866 60.3487 24.423L63.1676 26.7258C63.9116 25.8151 63.9373 24.6911 63.6471 23.8483C63.3597 23.0137 62.6712 22.1764 61.6021 21.8745L60.6128 25.3775ZM60.2671 24.5307C60.3177 24.4585 60.3624 24.4061 60.3797 24.3861C60.4018 24.3604 60.4204 24.3404 60.4314 24.3287C60.4534 24.3054 60.4709 24.288 60.4782 24.2809C60.4938 24.2655 60.5049 24.2553 60.5055 24.2547C60.5088 24.2517 60.5057 24.2546 60.4919 24.2669C60.4662 24.2899 60.4238 24.3274 60.3619 24.3818C60.2393 24.4894 60.0548 24.6501 59.8069 24.8652L62.1929 27.6141C62.442 27.3979 62.6324 27.2321 62.7626 27.1179C62.827 27.0614 62.8804 27.0142 62.92 26.9787C62.9389 26.9618 62.9609 26.942 62.9815 26.9229C62.9908 26.9142 63.0087 26.8975 63.0292 26.8774C63.0389 26.8679 63.0584 26.8485 63.0818 26.8236C63.0847 26.8207 63.1663 26.7365 63.2492 26.6181L60.2671 24.5307ZM59.8076 24.8647C57.9586 26.468 56.4865 28.3783 55.3982 30.5831L58.6622 32.1942C59.5376 30.4208 60.7119 28.8985 62.1923 27.6147L59.8076 24.8647ZM55.3984 30.5827C53.9969 33.4202 52.7291 36.334 50.9152 38.5397C49.1977 40.6282 47.1654 41.8624 44.2092 41.5568L43.8349 45.1775C48.3369 45.6429 51.4727 43.5926 53.7267 40.8516C55.8844 38.2278 57.3916 34.7668 58.662 32.1947L55.3984 30.5827ZM44.2101 41.5569C42.4348 41.3724 40.7041 40.9663 39.0147 40.3367L37.7436 43.7475C39.7189 44.4837 41.7502 44.9609 43.8339 45.1774L44.2101 41.5569ZM39.0174 40.3377C38.5877 40.1768 38.1157 40.1688 37.6808 40.315L38.8408 43.7652C38.483 43.8855 38.0945 43.8789 37.7409 43.7465L39.0174 40.3377ZM37.6808 40.315C37.2458 40.4612 36.8746 40.7528 36.6294 41.1405L39.706 43.0858C39.5043 43.4049 39.1988 43.6448 38.8408 43.7652L37.6808 40.315ZM36.6259 41.146C34.1136 45.1511 32.5582 49.6293 31.4684 54.0557L35.0029 54.9259C36.0419 50.7057 37.4793 46.6356 39.7095 43.0803L36.6259 41.146ZM29.432 6.20648C28.9989 7.21748 28.511 8.16836 27.9691 9.0606L31.0804 10.95C31.7148 9.90534 32.2803 8.80148 32.7779 7.63988L29.432 6.20648ZM27.969 9.06075C27.6715 9.55091 27.2801 10.1046 26.8288 10.725C26.3937 11.3231 25.8951 11.9935 25.4547 12.6347L28.455 14.6957C28.8584 14.1084 29.304 13.5102 29.7724 12.8662C30.2247 12.2444 30.6964 11.5824 31.0805 10.9498L27.969 9.06075ZM25.4544 12.635C23.6935 15.1997 22.051 19.0844 23.2546 22.7678L26.7145 21.6372C26.0445 19.5866 26.9099 16.9461 28.4552 14.6953L25.4544 12.635ZM23.2544 22.7673C24.1992 25.6615 26.6259 27.7777 28.875 29.0839L30.7031 25.9362C28.8221 24.8438 27.2645 23.322 26.7147 21.6377L23.2544 22.7673ZM28.865 29.0781C28.9758 29.1433 29.1869 29.255 29.4727 29.3128C29.7734 29.3737 30.2665 29.3927 30.7685 29.1058C31.2706 28.8189 31.5046 28.3844 31.6049 28.0944C31.7001 27.8189 31.7111 27.5803 31.7111 27.4517H28.0711C28.0711 27.3626 28.0779 27.1561 28.1646 26.9052C28.2563 26.6398 28.4776 26.2225 28.9626 25.9453C29.4477 25.6682 29.9195 25.6894 30.1947 25.7451C30.4549 25.7978 30.6363 25.8968 30.713 25.9421L28.865 29.0781ZM31.7111 27.456C31.716 25.3736 31.7172 23.2918 31.7148 21.2107L28.0748 21.2149C28.0772 23.2918 28.076 25.3694 28.0711 27.4475L31.7111 27.456ZM31.7148 21.2128C31.7148 21.1456 31.7166 21.0908 31.7194 21.0471C31.7222 21.0032 31.7257 20.9746 31.728 20.9589C31.7304 20.9429 31.7308 20.9464 31.7256 20.9652C31.7206 20.9835 31.7076 21.0269 31.68 21.0867L28.3756 19.56C28.1166 20.1207 28.0748 20.7429 28.0748 21.2128H31.7148ZM31.6797 21.0872C31.5176 21.4379 31.2379 21.4818 31.196 21.4851C31.1544 21.4884 31.0871 21.4861 30.9964 21.4499C30.9011 21.4119 30.7523 21.323 30.6321 21.1444L33.652 19.1122C32.9532 18.0737 31.7803 17.7873 30.9082 17.8565C30.0161 17.9273 28.908 18.4086 28.3759 19.5595L31.6797 21.0872ZM30.63 21.1412C30.5864 21.0761 30.5646 21.0257 30.5557 21.0026C30.5468 20.9796 30.5477 20.976 30.5525 20.9986C30.5629 21.0483 30.5786 21.1621 30.5791 21.3607L34.2191 21.3529C34.2176 20.6901 34.1322 19.829 33.6542 19.1154L30.63 21.1412ZM30.5791 21.3601C30.5827 23.3279 30.5833 25.3492 30.5809 27.4241L34.2209 27.4283C34.2233 25.35 34.2227 23.325 34.2191 21.3534L30.5791 21.3601ZM30.5809 27.4262C30.5809 27.5569 30.5922 27.7948 30.6861 28.0688C30.7847 28.3565 31.0131 28.7852 31.5036 29.0747C31.9971 29.3659 32.4878 29.3583 32.7959 29.301C33.0867 29.247 33.3029 29.1364 33.4178 29.0704L31.6063 25.9132C31.6841 25.8686 31.8679 25.7711 32.131 25.7223C32.4112 25.6702 32.8788 25.6596 33.3537 25.9399C33.8257 26.2185 34.0403 26.6283 34.1296 26.8889C34.2142 27.1359 34.2209 27.3386 34.2209 27.4262H30.5809ZM33.4265 29.0654C36.1467 27.4847 38.175 25.3546 39.02 22.6937C39.8744 20.0031 39.4186 17.0872 37.7902 14.1705L34.612 15.9449C35.8725 18.2027 36.0327 20.074 35.5507 21.5919C35.0592 23.1396 33.7986 24.6392 31.5976 25.9182L33.4265 29.0654ZM37.7902 14.1705C37.1716 13.0624 36.6113 12.1647 36.1233 11.5767L33.3226 13.9018C33.583 14.2155 34.0082 14.8634 34.612 15.9448L37.7902 14.1705ZM36.1239 11.5775C34.7606 9.93346 33.6737 8.1478 32.8581 6.21688L29.5049 7.63313C30.461 9.89673 31.735 11.9873 33.3219 13.901L36.1239 11.5775ZM32.8595 6.22024C32.8225 6.13213 32.7336 5.93361 32.5617 5.72698C32.4073 5.54128 31.9544 5.07778 31.1866 5.05949C30.402 5.04081 29.9205 5.49947 29.7483 5.6984C29.5646 5.91053 29.4704 6.11698 29.4321 6.20625L32.7778 7.64011C32.7523 7.69961 32.6709 7.8838 32.5 8.0812C32.3405 8.2654 31.8718 8.71685 31.0999 8.69846C30.3449 8.68048 29.9047 8.22481 29.7631 8.05444C29.604 7.86315 29.5278 7.6875 29.5035 7.62976L32.8595 6.22024ZM15.9781 34.1891C16.0511 34.1542 16.0275 34.177 15.9265 34.1908C15.8158 34.2059 15.5758 34.2135 15.2947 34.0853L16.8053 30.7735C15.8411 30.3337 14.9113 30.6652 14.4122 30.9031L15.9781 34.1891ZM15.2942 34.0851C17.6859 35.1768 19.8221 36.6387 21.7103 38.4763L24.249 35.8676C22.0618 33.7391 19.5782 32.0393 16.8057 30.7737L15.2942 34.0851ZM21.6927 38.4589C21.7585 38.5247 21.9194 38.6791 22.1636 38.8075C22.3807 38.9217 23.0243 39.1973 23.7757 38.8611C24.5112 38.5321 24.7376 37.8878 24.7983 37.6704C24.8696 37.415 24.8703 37.2003 24.8686 37.1085L21.2292 37.1735C21.2282 37.1157 21.2264 36.9278 21.2923 36.692C21.3474 36.4942 21.5654 35.8622 22.2893 35.5384C23.0292 35.2074 23.6582 35.4809 23.8577 35.5858C24.0842 35.7049 24.2245 35.8429 24.2666 35.885L21.6927 38.4589ZM24.8683 37.0948C24.7141 31.0167 21.7139 27.0841 17.4649 25.0194C13.3526 23.0211 8.22107 22.8301 3.62806 23.7025L4.30733 27.2786C8.41743 26.4979 12.6898 26.7461 15.874 28.2933C18.9215 29.7742 21.1104 32.4933 21.2295 37.1871L24.8683 37.0948ZM3.60335 23.7074C3.28007 23.7735 2.97991 23.924 2.73355 24.144L5.1577 26.8593C4.92384 27.0681 4.63891 27.211 4.33204 27.2737L3.60335 23.7074ZM2.73355 24.144C2.48727 24.3638 2.30372 24.645 2.20154 24.9589L5.66271 26.0858C5.56572 26.3837 5.39148 26.6506 5.1577 26.8593L2.73355 24.144ZM2.20154 24.9589C2.09936 25.2727 2.08217 25.6081 2.15179 25.9308L5.70993 25.1632C5.77602 25.4695 5.7597 25.7879 5.66271 26.0858L2.20154 24.9589ZM2.15179 25.9308C2.22139 26.2534 2.37526 26.5519 2.59783 26.7958L5.28653 24.3421C5.49781 24.5736 5.64387 24.8569 5.70993 25.1632L2.15179 25.9308ZM2.6253 26.8252C4.24353 28.5215 5.14766 30.0997 6.34848 32.6097L9.63206 31.0388C8.36867 28.398 7.26789 26.4184 5.25907 24.3127L2.6253 26.8252ZM6.34838 32.6095C7.24006 34.474 8.44009 37.091 10.1182 39.144C11.832 41.2408 14.2861 43.0371 17.6754 42.7071L17.3226 39.0842C15.6213 39.2499 14.2432 38.439 12.9365 36.8403C11.594 35.1979 10.585 33.0313 9.63215 31.039L6.34838 32.6095ZM17.676 42.707C19.3841 42.54 21.0402 42.1776 22.6409 41.6188L21.4411 38.1822C20.1183 38.644 18.7464 38.945 17.3219 39.0843L17.676 42.707ZM22.6165 41.6271C22.7457 41.584 23.5983 41.2959 23.844 40.3127C24.0875 39.3387 23.4822 38.6853 23.3929 38.5891L20.7255 41.066C20.6679 41.0039 20.0753 40.3796 20.3127 39.4299C20.5524 38.471 21.3801 38.2023 21.4655 38.1739L22.6165 41.6271ZM23.3971 38.5937C21.3571 36.3816 18.989 34.6139 16.3012 33.2989L14.7015 36.5686C16.981 37.6838 18.9849 39.1786 20.7213 41.0614L23.3971 38.5937ZM16.3012 33.2989C16.2318 33.2649 16.1769 33.2357 16.1346 33.2115C16.0919 33.1871 16.0669 33.1706 16.0557 33.1627C16.0437 33.1544 16.0544 33.1607 16.0792 33.1835C16.0921 33.1954 16.1108 33.2136 16.1332 33.2384C16.1556 33.2631 16.1836 33.2966 16.2139 33.3392L13.2505 35.4529C13.6543 36.019 14.2821 36.3634 14.7015 36.5686L16.3012 33.2989ZM16.2083 33.3314C16.2887 33.4428 16.3325 33.6123 16.289 33.792C16.2436 33.9796 16.116 34.1229 15.9826 34.1869L14.4077 30.9052C12.6205 31.7629 12.1614 33.943 13.2561 35.4607L16.2083 33.3314ZM55.899 32.0208C56.7557 30.0949 57.9069 28.3674 59.3576 26.8314L56.7114 24.332C54.9786 26.1667 53.5975 28.2388 52.5732 30.5414L55.899 32.0208ZM59.3636 26.825C59.4436 26.7395 59.5927 26.5664 59.7093 26.3103C59.8304 26.0444 59.9685 25.5643 59.7949 25.0003C59.6194 24.4298 59.2275 24.1055 58.9611 23.9496C58.7092 23.8023 58.479 23.7473 58.3612 23.7243L57.6641 27.2969C57.5712 27.2788 57.3605 27.2304 57.1229 27.0914C56.8708 26.9439 56.4879 26.6297 56.316 26.0711C56.146 25.5189 56.2825 25.0524 56.3966 24.8018C56.5062 24.5611 56.643 24.4051 56.7054 24.3384L59.3636 26.825ZM58.3612 23.7243C53.812 22.8366 48.6977 23.0344 44.5872 25.0106C40.3471 27.0492 37.3087 30.9351 37.134 36.9368L40.7725 37.0426C40.9059 32.4565 43.1003 29.7644 46.1644 28.2912C49.3582 26.7557 53.6195 26.5077 57.6641 27.2969L58.3612 23.7243ZM37.134 36.9392C37.1317 37.0219 37.1293 37.2329 37.1975 37.487C37.2533 37.6951 37.4809 38.3811 38.2633 38.7071C39.0439 39.0323 39.69 38.7127 39.8756 38.6073C40.1035 38.478 40.2517 38.3289 40.3089 38.2694L37.6851 35.7465C37.7272 35.7027 37.8622 35.5647 38.0788 35.4417C38.2531 35.3428 38.89 35.0249 39.6633 35.347C40.4384 35.67 40.6607 36.3483 40.7132 36.5439C40.778 36.7855 40.7743 36.9794 40.7726 37.0402L37.134 36.9392ZM40.3175 38.2604C42.1862 36.2903 44.3345 34.7036 46.7704 33.4946L45.1522 30.2341C42.3341 31.6327 39.8396 33.4751 37.6766 35.7554L40.3175 38.2604ZM46.7691 33.4953C46.6122 33.573 46.3799 33.5339 46.2328 33.3922C46.1635 33.3255 46.0882 33.2141 46.0595 33.0531C46.0277 32.8744 46.0676 32.707 46.1307 32.5985L49.2768 34.4292C50.0601 33.0832 49.6433 31.6235 48.7582 30.7708C47.8776 29.9224 46.4696 29.5816 45.1536 30.2335L46.7691 33.4953ZM46.1296 32.6004C46.1846 32.5057 46.2307 32.4706 46.212 32.4869C46.1945 32.5023 46.1475 32.5389 46.0529 32.5971C45.9592 32.6547 45.8483 32.7157 45.706 32.7909C45.583 32.8559 45.3967 32.952 45.2406 33.0389L47.0102 36.2198C47.1179 36.1599 47.6445 35.8915 47.9594 35.6979C48.3109 35.4818 48.8977 35.0825 49.2779 34.4273L46.1296 32.6004ZM45.2436 33.0372C42.6196 34.4905 40.3499 36.3703 38.4448 38.6702L41.248 40.9922C42.8617 39.0441 44.7781 37.456 47.0071 36.2215L45.2436 33.0372ZM38.4442 38.6708C38.3333 38.8049 37.8133 39.4654 38.0832 40.3876C38.3504 41.3004 39.1336 41.5795 39.2927 41.6325L40.4438 38.1793C40.5591 38.2178 41.3168 38.4771 41.5767 39.3651C41.8393 40.2623 41.3303 40.8927 41.2485 40.9916L38.4442 38.6708ZM39.2985 41.6345C41.1292 42.2378 43.3487 42.8249 45.5547 42.7323L45.402 39.0955C43.8751 39.1596 42.1687 38.7478 40.4379 38.1774L39.2985 41.6345ZM45.5553 42.7322C48.6701 42.6003 50.9148 40.5144 52.4529 38.413C54.0114 36.2838 55.1333 33.7433 55.8992 32.0205L52.573 30.5418C51.7824 32.3203 50.8064 34.4996 49.5157 36.2631C48.2045 38.0544 46.8486 39.0342 45.4013 39.0955L45.5553 42.7322Z" fill="#006350" mask="url(#path-2-inside-1_994_690)"/>
<mask id="path-4-inside-2_994_690" fill="white">
<path d="M28.9773 54.3754C29.8728 55.6938 30.5806 57.0881 31.1006 58.5584C31.1298 58.6398 31.1596 58.6398 31.19 58.5584C31.7015 57.144 32.3832 55.788 33.235 54.4902C36.0236 50.546 39.8894 48.3315 44.528 47.1249C44.912 47.0252 45.2152 47.0058 45.4375 47.0666C46.1119 47.2506 46.5293 48.0854 46.2687 48.727C46.1958 48.9056 45.9928 49.1541 45.6599 49.4725C40.1592 54.7217 36.9058 60.8713 36.8493 68.6122C36.8493 68.662 36.8736 68.6899 36.9222 68.696C43.2722 69.5259 49.3228 71.337 55.0738 74.1293C55.5732 74.3711 55.9013 74.6069 56.0581 74.8365C56.5411 75.5382 55.9305 76.7193 55.0301 76.723C54.8017 76.7242 54.4875 76.6276 54.0878 76.4332C48.4959 73.7028 42.6076 71.944 36.4228 71.1566C36.1676 71.1238 35.6737 71.1311 35.3091 71.0618C35.1074 71.0229 34.9592 70.9992 34.8644 70.9907C25.5088 70.1341 16.2844 71.7508 8.05519 76.3402C7.61046 76.5881 7.26477 76.7151 7.0181 76.7211C6.14688 76.7448 5.51625 75.613 5.9628 74.8784C6.09524 74.6622 6.37532 74.4319 6.80303 74.1877C12.4842 70.9452 18.8288 69.0751 25.332 68.4755C25.3927 68.4706 25.4231 68.4372 25.4231 68.3752C25.3721 63.064 23.7858 58.2892 20.6642 54.051C19.618 52.6305 18.1465 50.9865 16.2498 49.1189C15.6902 48.5684 15.9654 47.329 16.7856 47.083C17.0311 47.0088 17.3537 47.0228 17.7535 47.1249C22.352 48.3005 26.205 50.5077 28.9773 54.3754ZM21.7104 51.3626C25.7822 56.2218 27.6887 61.8282 27.9384 68.2021C27.9408 68.2665 27.9742 68.2981 28.0386 68.2968L29.7592 68.2677C29.8187 68.2665 29.8491 68.2367 29.8503 68.1784C29.8892 66.1212 29.8819 64.7439 29.8284 64.0464C29.7094 62.468 29.278 60.7425 28.5344 58.8701C27.199 55.5054 24.9444 52.9786 21.7706 51.2896C21.6235 51.2119 21.6035 51.2362 21.7104 51.3626ZM34.3121 68.4262C34.318 68.4265 34.3239 68.4255 34.3294 68.4235C34.335 68.4214 34.34 68.4182 34.3443 68.4141C34.3485 68.41 34.3519 68.4051 34.3542 68.3997C34.3565 68.3942 34.3577 68.3884 34.3577 68.3825C34.4452 61.9996 36.4878 56.3548 40.4854 51.4482C40.6191 51.2854 40.593 51.2538 40.407 51.3534C37.2794 53.0546 35.0582 55.5729 33.7435 58.9083C32.9792 60.8501 32.5387 62.677 32.4221 64.3891C32.3783 65.0391 32.3765 66.3229 32.4166 68.2403C32.4178 68.2889 32.4433 68.3151 32.4931 68.3187L34.3121 68.4262Z"/>
</mask>
<path d="M28.9773 54.3754L30.4828 53.3528L30.4699 53.3338L30.4565 53.3151L28.9773 54.3754ZM31.1006 58.5584L29.3848 59.1653L29.3873 59.1721L31.1006 58.5584ZM31.19 58.5584L32.8951 59.1946L32.8983 59.186L32.9015 59.1774L31.19 58.5584ZM33.235 54.4902L31.7489 53.4395L31.7307 53.4652L31.7134 53.4916L33.235 54.4902ZM44.528 47.1249L44.0709 45.3632L44.0699 45.3635L44.528 47.1249ZM45.4375 47.0666L44.9578 48.8222L44.9583 48.8223L45.4375 47.0666ZM46.2687 48.727L47.9537 49.4148L47.9548 49.412L46.2687 48.727ZM45.6599 49.4725L46.9164 50.7891L46.9177 50.7879L45.6599 49.4725ZM36.8493 68.6122L35.0293 68.5989V68.6122H36.8493ZM36.9222 68.696L37.158 66.8913L37.1479 66.8901L36.9222 68.696ZM55.0738 74.1293L54.2789 75.7666L54.2807 75.7674L55.0738 74.1293ZM56.0581 74.8365L54.5548 75.8625L54.5589 75.8684L56.0581 74.8365ZM55.0301 76.723L55.0227 74.903L55.0204 74.903L55.0301 76.723ZM54.0878 76.4332L53.2892 78.0686L53.2918 78.0699L54.0878 76.4332ZM36.4228 71.1566L36.1907 72.9617L36.1929 72.962L36.4228 71.1566ZM35.3091 71.0618L34.9646 72.8489L34.9694 72.8498L35.3091 71.0618ZM34.8644 70.9907L34.6984 72.8031L34.7017 72.8034L34.8644 70.9907ZM8.05519 76.3402L8.94127 77.9299L8.94166 77.9297L8.05519 76.3402ZM7.0181 76.7211L6.97329 74.9017L6.96862 74.9018L7.0181 76.7211ZM5.9628 74.8784L4.41067 73.928L4.40763 73.933L5.9628 74.8784ZM6.80303 74.1877L5.90087 72.607L5.90054 72.6072L6.80303 74.1877ZM25.332 68.4755L25.1869 66.6612L25.1759 66.6621L25.1649 66.6631L25.332 68.4755ZM25.4231 68.3752H27.2431V68.3665L27.243 68.3577L25.4231 68.3752ZM20.6642 54.051L22.1296 52.9717L22.1296 52.9717L20.6642 54.051ZM16.2498 49.1189L17.5267 47.822L17.5261 47.8214L16.2498 49.1189ZM16.7856 47.083L17.3086 48.8262L17.3118 48.8252L16.7856 47.083ZM17.7535 47.1249L18.2042 45.3616L18.2037 45.3615L17.7535 47.1249ZM21.7104 51.3626L23.1054 50.1936L23.0998 50.1869L21.7104 51.3626ZM27.9384 68.2021L29.7571 68.1334L29.757 68.1308L27.9384 68.2021ZM28.0386 68.2968L28.0078 66.4771L28.0043 66.4772L28.0386 68.2968ZM29.7592 68.2677L29.79 70.0874L29.7963 70.0873L29.7592 68.2677ZM29.8503 68.1784L31.6699 68.2163L31.67 68.2128L29.8503 68.1784ZM29.8284 64.0464L28.0136 64.1833L28.0138 64.1855L29.8284 64.0464ZM28.5344 58.8701L26.8427 59.5415L26.8429 59.5418L28.5344 58.8701ZM21.7706 51.2896L22.6256 49.683L22.6215 49.6808L21.7706 51.2896ZM34.3121 68.4262L34.2047 70.2431L34.2205 70.244L34.2363 70.2447L34.3121 68.4262ZM34.3577 68.3825L32.5379 68.3576L32.5377 68.3708L32.5377 68.3841L34.3577 68.3825ZM40.4854 51.4482L39.0787 50.2934L39.0745 50.2986L40.4854 51.4482ZM40.407 51.3534L39.5473 49.7493L39.5374 49.7546L40.407 51.3534ZM33.7435 58.9083L32.0503 58.2409L32.0499 58.2417L33.7435 58.9083ZM32.4221 64.3891L30.6063 64.2654L30.6062 64.2669L32.4221 64.3891ZM32.4166 68.2403L30.597 68.2784L30.5972 68.2858L32.4166 68.2403ZM32.4931 68.3187L32.3603 70.1339L32.373 70.1348L32.3857 70.1355L32.4931 68.3187ZM27.4717 55.398C28.2816 56.5903 28.9179 57.8453 29.3848 59.1653L32.8165 57.9515C32.2433 56.331 31.464 54.7973 30.4828 53.3528L27.4717 55.398ZM29.3873 59.1721C29.4172 59.2557 29.4933 59.4572 29.6483 59.6714C29.7645 59.8319 30.2456 60.4395 31.1448 60.4395C32.0368 60.4395 32.517 59.8401 32.6311 59.6857C32.7863 59.4757 32.8642 59.2776 32.8951 59.1946L29.4848 57.9221C29.5006 57.8798 29.5633 57.7124 29.7034 57.5227C29.8025 57.3886 30.2678 56.7995 31.1448 56.7995C32.0293 56.7995 32.4955 57.3969 32.5969 57.537C32.7372 57.7308 32.7987 57.9017 32.814 57.9446L29.3873 59.1721ZM32.9015 59.1774C33.3632 57.9008 33.9801 56.6717 34.7565 55.4889L31.7134 53.4916C30.7862 54.9042 30.0398 56.3872 29.4785 57.9394L32.9015 59.1774ZM34.721 55.5409C37.2035 52.0297 40.6542 50.0131 44.9862 48.8863L44.0699 45.3635C39.1246 46.6498 34.8437 49.0623 31.7489 53.4395L34.721 55.5409ZM44.9852 48.8865C45.0393 48.8725 45.0811 48.8638 45.1116 48.8585C45.1424 48.8531 45.1579 48.852 45.1599 48.8518C45.1621 48.8517 45.1453 48.853 45.113 48.8504C45.0806 48.8479 45.0269 48.8411 44.9578 48.8222L45.9172 45.3109C45.2405 45.126 44.5686 45.2341 44.0709 45.3632L44.9852 48.8865ZM44.9583 48.8223C44.7114 48.7549 44.6091 48.6056 44.5761 48.5396C44.5435 48.4745 44.4804 48.2932 44.5825 48.042L47.9548 49.412C48.3175 48.5192 48.176 47.5997 47.8314 46.9108C47.4862 46.2211 46.838 45.5623 45.9168 45.3108L44.9583 48.8223ZM44.5836 48.0392C44.619 47.9525 44.652 47.9002 44.6607 47.8867C44.6709 47.8709 44.6706 47.8735 44.6521 47.8962C44.6133 47.9437 44.5357 48.0293 44.4021 48.157L46.9177 50.7879C47.2476 50.4724 47.7192 49.9894 47.9537 49.4148L44.5836 48.0392ZM44.4034 48.1558C38.6199 53.6749 35.0901 60.2718 35.0293 68.5989L38.6692 68.6254C38.7214 61.4709 41.6985 55.7685 46.9164 50.7891L44.4034 48.1558ZM35.0293 68.6122C35.0293 68.9231 35.1074 69.4199 35.494 69.8647C35.8845 70.3137 36.3735 70.4616 36.6964 70.5019L37.1479 66.8901C37.4222 66.9243 37.8748 67.0552 38.2409 67.4763C38.6033 67.8931 38.6693 68.351 38.6693 68.6122H35.0293ZM36.6863 70.5007C42.8426 71.3052 48.7043 73.0599 54.2789 75.7666L55.8688 72.4921C49.9413 69.6141 43.7019 67.7466 37.158 66.8913L36.6863 70.5007ZM54.2807 75.7674C54.4684 75.8583 54.578 75.9264 54.6324 75.9655C54.658 75.9839 54.6605 75.9881 54.648 75.9761C54.636 75.9646 54.5993 75.9277 54.5548 75.8625L57.5613 73.8105C57.1212 73.1657 56.4199 72.759 55.867 72.4912L54.2807 75.7674ZM54.5589 75.8684C54.4356 75.6893 54.4062 75.511 54.4081 75.3974C54.4098 75.2911 54.4368 75.2228 54.4575 75.184C54.4783 75.1452 54.6329 74.9046 55.0227 74.903L55.0375 78.5429C56.3277 78.5377 57.2378 77.7048 57.6682 76.899C58.0911 76.1072 58.2939 74.8749 57.5572 73.8046L54.5589 75.8684ZM55.0204 74.903C55.0917 74.9026 55.1395 74.9098 55.1578 74.913C55.1769 74.9164 55.1779 74.9179 55.1582 74.9118C55.1156 74.8987 55.0267 74.866 54.8838 74.7965L53.2918 78.0699C53.7485 78.292 54.3761 78.5465 55.0398 78.5429L55.0204 74.903ZM54.8863 74.7977C49.1151 71.9798 43.0346 70.1636 36.6526 69.3512L36.1929 72.962C42.1805 73.7243 47.8767 75.4258 53.2892 78.0686L54.8863 74.7977ZM36.6549 69.3514C36.5228 69.3345 36.3896 69.326 36.296 69.3206C36.2228 69.3164 36.0642 69.3087 36.0059 69.3055C35.8065 69.2947 35.6999 69.2835 35.6488 69.2738L34.9694 72.8498C35.2828 72.9094 35.6055 72.9291 35.808 72.9402C35.9507 72.9479 35.9862 72.9489 36.0887 72.9547C36.1709 72.9594 36.1951 72.9623 36.1907 72.9617L36.6549 69.3514ZM35.6536 69.2747C35.4441 69.2343 35.2195 69.1953 35.0271 69.178L34.7017 72.8034C34.6908 72.8025 34.706 72.8035 34.7594 72.8121C34.8089 72.82 34.8764 72.8319 34.9646 72.8489L35.6536 69.2747ZM35.0304 69.1783C25.3557 68.2924 15.7565 69.9613 7.16871 74.7507L8.94166 77.9297C16.8123 73.5403 25.6619 71.9757 34.6984 72.8031L35.0304 69.1783ZM7.1691 74.7505C7.00079 74.8443 6.8921 74.8919 6.83486 74.913C6.80797 74.9228 6.80497 74.9222 6.82281 74.9182C6.83962 74.9144 6.89229 74.9037 6.97329 74.9017L7.06292 78.5406C7.7808 78.5229 8.45751 78.1996 8.94127 77.9299L7.1691 74.7505ZM6.96862 74.9018C7.38059 74.8906 7.55455 75.1424 7.57965 75.1867C7.60248 75.227 7.72427 75.4845 7.51796 75.8239L4.40763 73.933C3.75477 75.0069 3.96861 76.1976 4.41293 76.9816C4.85951 77.7695 5.7844 78.5754 7.06758 78.5405L6.96862 74.9018ZM7.51491 75.8289C7.47495 75.8941 7.44062 75.9335 7.42667 75.9486C7.41234 75.9641 7.41033 75.9639 7.428 75.9494C7.46627 75.9179 7.55155 75.8561 7.70553 75.7681L5.90054 72.6072C5.41339 72.8854 4.79321 73.3033 4.41068 73.928L7.51491 75.8289ZM7.70519 75.7683C13.1408 72.6659 19.2309 70.8658 25.4991 70.2878L25.1649 66.6631C18.4267 67.2845 11.8276 69.2244 5.90087 72.607L7.70519 75.7683ZM25.4771 70.2897C25.8042 70.2635 26.3253 70.1349 26.747 69.671C27.1644 69.2119 27.2431 68.6891 27.2431 68.3752H23.6031C23.6031 68.1233 23.6666 67.6482 24.0537 67.2225C24.445 66.792 24.9205 66.6826 25.1869 66.6612L25.4771 70.2897ZM27.243 68.3577C27.1884 62.6678 25.4802 57.5208 22.1296 52.9717L19.1988 55.1303C22.0914 59.0577 23.5558 63.4602 23.6032 68.3927L27.243 68.3577ZM22.1296 52.9717C21.0056 51.4455 19.4612 49.7268 17.5267 47.822L14.9728 50.4157C16.8319 52.2462 18.2304 53.8155 19.1988 55.1303L22.1296 52.9717ZM17.5261 47.8214C17.6882 47.9809 17.7468 48.148 17.7657 48.2412C17.7841 48.3314 17.7752 48.3911 17.7669 48.4242C17.762 48.4443 17.6855 48.7131 17.3086 48.8262L16.2627 45.3397C15.0656 45.6988 14.4414 46.7104 14.2337 47.5493C14.0315 48.3659 14.0954 49.5526 14.9734 50.4163L17.5261 47.8214ZM17.3118 48.8252C17.2525 48.8432 17.2056 48.8506 17.1758 48.8538C17.1463 48.8569 17.131 48.8561 17.1329 48.8561C17.1347 48.8562 17.1497 48.857 17.1794 48.8618C17.209 48.8666 17.25 48.8747 17.3032 48.8883L18.2037 45.3615C17.6595 45.2225 16.9606 45.1289 16.2595 45.3407L17.3118 48.8252ZM17.3027 48.8882C21.5901 49.9842 25.0312 51.9941 27.498 55.4357L30.4565 53.3151C27.3789 49.0213 23.1139 46.6167 18.2042 45.3616L17.3027 48.8882ZM20.3154 52.5315C24.0954 57.0425 25.8837 62.2477 26.1198 68.2733L29.757 68.1308C29.4936 61.4087 27.469 55.401 23.1054 50.1936L20.3154 52.5315ZM26.1197 68.2707C26.1316 68.5857 26.2329 69.1408 26.7149 69.5965C27.197 70.0524 27.7572 70.1225 28.0729 70.1165L28.0043 66.4772C28.2556 66.4724 28.7669 66.5273 29.2157 66.9516C29.6642 67.3757 29.7476 67.8828 29.7571 68.1334L26.1197 68.2707ZM28.0695 70.1166L29.79 70.0874L29.7283 66.4479L28.0078 66.4771L28.0695 70.1166ZM29.7963 70.0873C30.103 70.081 30.6415 69.9941 31.1005 69.5443C31.5657 69.0885 31.6632 68.541 31.6699 68.2163L28.0307 68.1405C28.0363 67.874 28.118 67.3706 28.5528 66.9446C28.9813 66.5246 29.4749 66.4531 29.722 66.4481L29.7963 70.0873ZM31.67 68.2128C31.7086 66.1689 31.7043 64.7054 31.6431 63.9073L28.0138 64.1855C28.0595 64.7823 28.0698 66.0735 28.0306 68.144L31.67 68.2128ZM31.6433 63.9095C31.5072 62.1055 31.0198 60.1975 30.2259 58.1983L26.8429 59.5418C27.5362 61.2876 27.9115 62.8305 28.0136 64.1833L31.6433 63.9095ZM30.226 58.1987C28.7326 54.436 26.1832 51.5762 22.6256 49.683L20.9155 52.8963C23.7056 54.3811 25.6653 56.5749 26.8427 59.5415L30.226 58.1987ZM22.6215 49.6808C22.5581 49.6473 22.4157 49.5737 22.2388 49.5171C22.1604 49.4919 21.961 49.4318 21.7014 49.4257C21.4925 49.4208 20.7764 49.4427 20.2413 50.0914C19.6992 50.7486 19.8216 51.4652 19.8719 51.6794C19.9326 51.938 20.0359 52.1242 20.0774 52.1961C20.1713 52.3589 20.2749 52.4836 20.321 52.5382L23.0998 50.1869C23.1035 50.1914 23.1168 50.2072 23.1354 50.2322C23.1516 50.2539 23.1886 50.3048 23.2307 50.3778C23.2613 50.4308 23.3577 50.6014 23.4155 50.8475C23.4629 51.0492 23.5863 51.7566 23.0492 52.4077C22.5191 53.0503 21.812 53.0693 21.616 53.0647C21.3694 53.0589 21.1869 53.0023 21.1294 52.9839C21.0507 52.9587 20.9943 52.9339 20.97 52.923C20.9422 52.9103 20.9244 52.901 20.9196 52.8985L22.6215 49.6808ZM34.2363 70.2447C34.4875 70.2551 34.7382 70.2147 34.9734 70.1257L33.6855 66.7212C33.9096 66.6364 34.1486 66.5978 34.388 66.6078L34.2363 70.2447ZM34.9734 70.1257C35.2086 70.0367 35.4233 69.9011 35.6047 69.727L33.0838 67.1012C33.2567 66.9353 33.4613 66.806 33.6855 66.7212L34.9734 70.1257ZM35.6047 69.727C35.7859 69.5531 35.9302 69.3441 36.0288 69.1125L32.6796 67.6868C32.7736 67.4661 32.9112 67.267 33.0838 67.1012L35.6047 69.727ZM36.0288 69.1125C36.1274 68.8809 36.1779 68.632 36.1777 68.3809L32.5377 68.3841C32.5375 68.1448 32.5856 67.9076 32.6796 67.6868L36.0288 69.1125ZM36.1775 68.4074C36.2595 62.4309 38.1603 57.1833 41.8964 52.5978L39.0745 50.2986C34.8152 55.5263 32.6309 61.5682 32.5379 68.3576L36.1775 68.4074ZM41.8922 52.603C41.9453 52.5383 42.0532 52.4036 42.1483 52.2316C42.1909 52.1547 42.2917 51.964 42.3479 51.7023C42.3957 51.4795 42.497 50.7816 41.9687 50.1426C41.4421 49.5058 40.7403 49.4729 40.5154 49.477C40.2493 49.4819 40.044 49.5435 39.9604 49.5704C39.7739 49.6302 39.6212 49.7097 39.5473 49.7493L41.2668 52.9576C41.2662 52.9579 41.252 52.9656 41.2269 52.977C41.2055 52.9868 41.1507 53.0112 41.0726 53.0363C41.0156 53.0546 40.8317 53.1118 40.5822 53.1164C40.3738 53.1202 39.6835 53.0911 39.1634 52.4622C38.6416 51.8311 38.7445 51.1452 38.7889 50.9385C38.8416 50.6929 38.934 50.5224 38.9631 50.4698C39.003 50.3977 39.0378 50.3483 39.0516 50.3291C39.0678 50.3066 39.0782 50.294 39.0787 50.2934L41.8922 52.603ZM39.5374 49.7546C36.0316 51.6615 33.5205 54.511 32.0503 58.2409L35.4367 59.5758C36.5959 56.6348 38.5272 54.4477 41.2766 52.9522L39.5374 49.7546ZM32.0499 58.2417C31.2315 60.321 30.738 62.332 30.6063 64.2654L34.2379 64.5128C34.3394 63.022 34.7268 61.3792 35.437 59.5749L32.0499 58.2417ZM30.6062 64.2669C30.5562 65.01 30.5572 66.3732 30.597 68.2784L34.2362 68.2023C34.1958 66.2726 34.2005 65.0683 34.238 64.5113L30.6062 64.2669ZM30.5972 68.2858C30.6054 68.614 30.7065 69.1297 31.1347 69.5681C31.5561 69.9995 32.0563 70.1116 32.3603 70.1339L32.626 66.5036C32.8802 66.5222 33.3428 66.6194 33.7386 67.0246C34.1413 67.4369 34.229 67.9153 34.236 68.1948L30.5972 68.2858ZM32.3857 70.1355L34.2047 70.2431L34.4195 66.6094L32.6006 66.5019L32.3857 70.1355Z" fill="#006350" mask="url(#path-4-inside-2_994_690)"/>
</svg>
