<svg width="63" height="55" viewBox="0 0 63 55" fill="none" xmlns="http://www.w3.org/2000/svg">
<mask id="path-1-outside-1_994_748" maskUnits="userSpaceOnUse" x="14.258" y="0.439453" width="36" height="42" fill="black">
<rect fill="white" x="14.258" y="0.439453" width="36" height="42"/>
<path d="M35.6749 23.4296V22.0223C30.9156 22.0223 25.9005 23.0202 25.9005 28.6238C25.9005 31.464 27.3846 33.4086 29.8921 33.4086C30.8493 33.3611 31.7763 33.0585 32.5771 32.5321C33.378 32.0057 34.0234 31.2747 34.4467 30.4149C35.5062 28.2488 35.932 25.8273 35.6749 23.4296ZM42.3019 39.4728C42.088 39.6536 41.8242 39.7651 41.5454 39.7925C41.2667 39.8199 40.9862 39.762 40.7411 39.6263C39.2336 38.3967 37.9596 36.906 36.9798 35.2253C35.6791 36.8245 34.0175 38.0922 32.1314 38.924C30.2454 39.7558 28.1888 40.1281 26.1308 40.0101C24.7839 40.0911 23.4355 39.8785 22.1788 39.387C20.9222 38.8954 19.7874 38.1367 18.8529 37.1633C17.9184 36.1898 17.2066 35.025 16.7667 33.7494C16.3269 32.4737 16.1694 31.1177 16.3053 29.7752C16.2257 27.4802 16.8564 25.2165 18.1111 23.2931C19.3659 21.3698 21.1836 19.8805 23.3162 19.0286C27.3117 17.7059 31.4703 16.9396 35.6749 16.7513V15.8814C35.8805 14.2516 35.6047 12.5972 34.8816 11.1221C34.4505 10.5613 33.8905 10.1127 33.2491 9.81423C32.6077 9.5158 31.9038 9.37639 31.1971 9.4078C29.9876 9.33483 28.7915 9.69338 27.8216 10.4196C26.8517 11.1459 26.171 12.1927 25.9005 13.3738C25.8709 13.6701 25.7446 13.9483 25.5411 14.1657C25.3377 14.383 25.0683 14.5273 24.7747 14.5764L18.3779 13.8856C18.2223 13.8609 18.0732 13.8053 17.9394 13.7219C17.8057 13.6386 17.6901 13.5293 17.5994 13.4004C17.5087 13.2716 17.4449 13.1258 17.4116 12.9718C17.3783 12.8178 17.3762 12.6587 17.4056 12.5039C18.9152 4.77652 25.8494 2.44808 32.1182 2.44808C35.6801 2.32675 39.167 3.48906 41.9437 5.72324C45.2189 8.71695 44.9118 12.683 44.9118 17.0328V27.2677C44.955 29.55 45.8707 31.7292 47.4706 33.3575C47.6974 33.5954 47.8239 33.9115 47.8239 34.2402C47.8239 34.5689 47.6974 34.885 47.4706 35.123C46.1144 36.2232 43.7348 38.3214 42.3531 39.4728"/>
</mask>
<path d="M35.6749 23.4296H33.8549V23.5269L33.8652 23.6237L35.6749 23.4296ZM35.6749 22.0223H37.4949V20.2023H35.6749V22.0223ZM29.8921 33.4086V35.2286H29.9373L29.9824 35.2264L29.8921 33.4086ZM34.4467 30.4149L36.0796 31.2187L36.0816 31.2146L34.4467 30.4149ZM40.7411 39.6263L39.5908 41.0367L39.7172 41.1398L39.8598 41.2187L40.7411 39.6263ZM36.9798 35.2253L38.5521 34.3087L37.2275 32.0364L35.5678 34.077L36.9798 35.2253ZM26.1308 40.0101L26.2349 38.1931L26.1282 38.187L26.0216 38.1934L26.1308 40.0101ZM16.3053 29.7752L18.1161 29.9585L18.1285 29.8356L18.1242 29.7122L16.3053 29.7752ZM23.3162 19.0286L22.7442 17.3008L22.6921 17.3181L22.6411 17.3385L23.3162 19.0286ZM35.6749 16.7513L35.7563 18.5695L37.4949 18.4917V16.7513H35.6749ZM35.6749 15.8814L33.8692 15.6536L33.8549 15.767V15.8814H35.6749ZM34.8816 11.1221L36.5158 10.321L36.4356 10.1574L36.3245 10.0129L34.8816 11.1221ZM31.1971 9.4078L31.0875 11.2245L31.1827 11.2302L31.2779 11.226L31.1971 9.4078ZM25.9005 13.3738L24.1264 12.9676L24.1009 13.079L24.0896 13.1927L25.9005 13.3738ZM24.7747 14.5764L24.5793 16.3859L24.828 16.4128L25.0747 16.3715L24.7747 14.5764ZM18.3779 13.8856L18.0932 15.6832L18.1377 15.6902L18.1825 15.695L18.3779 13.8856ZM17.4056 12.5039L15.6193 12.1549L15.6174 12.1649L17.4056 12.5039ZM32.1182 2.44808V4.26808H32.1492L32.1802 4.26702L32.1182 2.44808ZM41.9437 5.72324L43.1716 4.37988L43.1293 4.3412L43.0847 4.30526L41.9437 5.72324ZM44.9118 27.2677H43.0918V27.2849L43.0922 27.3021L44.9118 27.2677ZM47.4706 33.3575L48.7879 32.1017L48.7784 32.0917L48.7688 32.0819L47.4706 33.3575ZM47.4706 35.123L48.6172 36.5363L48.7076 36.463L48.7879 36.3788L47.4706 35.123ZM37.4949 23.4296V22.0223H33.8549V23.4296H37.4949ZM35.6749 20.2023C33.2375 20.2023 30.4248 20.4449 28.1712 21.6029C27.0097 22.1997 25.9599 23.058 25.2101 24.2719C24.4594 25.4872 24.0805 26.944 24.0805 28.6238H27.7205C27.7205 27.5019 27.9685 26.7326 28.3069 26.1848C28.6462 25.6355 29.1476 25.1936 29.8348 24.8405C31.2785 24.0987 33.353 23.8423 35.6749 23.8423V20.2023ZM24.0805 28.6238C24.0805 30.3418 24.5285 31.9817 25.5443 33.23C26.5944 34.5205 28.1232 35.2286 29.8921 35.2286V31.5886C29.1535 31.5886 28.6866 31.3245 28.3677 30.9326C28.0145 30.4986 27.7205 29.746 27.7205 28.6238H24.0805ZM29.9824 35.2264C31.2637 35.1628 32.5047 34.7577 33.5768 34.053L31.5775 31.0112C31.0479 31.3593 30.4349 31.5595 29.8019 31.5909L29.9824 35.2264ZM33.5768 34.053C34.6489 33.3483 35.513 32.3697 36.0796 31.2187L32.8138 29.6112C32.5339 30.1798 32.107 30.6631 31.5775 31.0112L33.5768 34.053ZM36.0816 31.2146C37.2918 28.7403 37.7782 25.9743 37.4845 23.2356L33.8652 23.6237C34.0858 25.6802 33.7206 27.7572 32.8118 29.6153L36.0816 31.2146ZM41.1273 38.0826C41.1952 38.0253 41.2789 37.9899 41.3673 37.9812L41.7236 41.6037C42.3695 41.5402 42.9808 41.2819 43.4766 40.863L41.1273 38.0826ZM41.3673 37.9812C41.4557 37.9725 41.5447 37.9909 41.6224 38.0339L39.8598 41.2187C40.4277 41.533 41.0777 41.6673 41.7236 41.6037L41.3673 37.9812ZM41.8915 38.216C40.5531 37.1243 39.422 35.8008 38.5521 34.3087L35.4075 36.1419C36.4971 38.0111 37.9141 39.6691 39.5908 41.0367L41.8915 38.216ZM35.5678 34.077C34.4489 35.4527 33.0195 36.5432 31.397 37.2587L32.8658 40.5892C35.0155 39.6411 36.9093 38.1964 38.3918 36.3737L35.5678 34.077ZM31.397 37.2587C29.7745 37.9743 28.0053 38.2946 26.2349 38.1931L26.0267 41.8272C28.3723 41.9616 30.7162 41.5373 32.8658 40.5892L31.397 37.2587ZM26.0216 38.1934C24.9378 38.2586 23.8529 38.0875 22.8418 37.692L21.5158 41.0819C23.018 41.6695 24.6299 41.9237 26.2401 41.8269L26.0216 38.1934ZM22.8418 37.692C21.8308 37.2965 20.9177 36.686 20.1658 35.9028L17.54 38.4237C18.657 39.5873 20.0136 40.4943 21.5158 41.0819L22.8418 37.692ZM20.1658 35.9028C19.414 35.1197 18.8412 34.1824 18.4873 33.1561L15.0462 34.3427C15.572 35.8676 16.4229 37.26 17.54 38.4237L20.1658 35.9028ZM18.4873 33.1561C18.1334 32.1297 18.0067 31.0387 18.1161 29.9585L14.4946 29.592C14.3321 31.1968 14.5203 32.8178 15.0462 34.3427L18.4873 33.1561ZM18.1242 29.7122C18.0576 27.7915 18.5854 25.8971 19.6354 24.2875L16.5868 22.2987C15.1274 24.5358 14.3938 27.1688 14.4864 29.8383L18.1242 29.7122ZM19.6354 24.2875C20.6855 22.678 22.2067 21.4317 23.9914 20.7187L22.6411 17.3385C20.1606 18.3293 18.0463 20.0616 16.5868 22.2987L19.6354 24.2875ZM23.8882 20.7564C27.7251 19.4862 31.7186 18.7503 35.7563 18.5695L35.5934 14.9332C31.222 15.1289 26.8983 15.9256 22.7442 17.3008L23.8882 20.7564ZM37.4949 16.7513V15.8814H33.8549V16.7513H37.4949ZM37.4805 16.1092C37.7306 14.127 37.3953 12.115 36.5158 10.321L33.2475 11.9233C33.8142 13.0794 34.0303 14.3761 33.8692 15.6536L37.4805 16.1092ZM36.3245 10.0129C35.7151 9.22012 34.9235 8.58594 34.0169 8.1641L32.4813 11.4644C32.8575 11.6394 33.1859 11.9025 33.4387 12.2314L36.3245 10.0129ZM34.0169 8.1641C33.1102 7.74226 32.1153 7.54519 31.1163 7.5896L31.2779 11.226C31.6924 11.2076 32.1052 11.2893 32.4813 11.4644L34.0169 8.1641ZM31.3067 7.59111C29.6671 7.49218 28.0456 7.97825 26.7307 8.96279L28.9125 11.8765C29.5374 11.4085 30.3082 11.1775 31.0875 11.2245L31.3067 7.59111ZM26.7307 8.96279C25.4159 9.94733 24.493 11.3665 24.1264 12.9676L27.6746 13.78C27.8489 13.019 28.2875 12.3444 28.9125 11.8765L26.7307 8.96279ZM24.0896 13.1927C24.0997 13.0914 24.1429 12.9962 24.2125 12.9218L26.8698 15.4095C27.3463 14.9005 27.6421 14.2488 27.7115 13.555L24.0896 13.1927ZM24.2125 12.9218C24.2821 12.8475 24.3742 12.7981 24.4747 12.7813L25.0747 16.3715C25.7624 16.2566 26.3932 15.9185 26.8698 15.4095L24.2125 12.9218ZM24.9701 12.7669L18.5733 12.0761L18.1825 15.695L24.5793 16.3859L24.9701 12.7669ZM18.6626 12.088C18.7476 12.1014 18.829 12.1318 18.9021 12.1774L16.9768 15.2665C17.3173 15.4787 17.6969 15.6204 18.0932 15.6832L18.6626 12.088ZM18.9021 12.1774C18.9751 12.2229 19.0383 12.2826 19.0878 12.353L16.111 14.4478C16.3419 14.7759 16.6363 15.0543 16.9768 15.2665L18.9021 12.1774ZM19.0878 12.353C19.1374 12.4234 19.1723 12.503 19.1905 12.5872L15.6327 13.3564C15.7175 13.7486 15.8801 14.1197 16.111 14.4478L19.0878 12.353ZM19.1905 12.5872C19.2086 12.6713 19.2098 12.7582 19.1937 12.8428L15.6174 12.1649C15.5427 12.5591 15.5479 12.9643 15.6327 13.3564L19.1905 12.5872ZM19.1918 12.8528C19.839 9.54012 21.605 7.46003 23.881 6.15796C26.2215 4.81891 29.1778 4.26808 32.1182 4.26808V0.628076C28.7898 0.628076 25.1445 1.24147 22.0734 2.99847C18.9376 4.79245 16.4818 7.74026 15.6193 12.1549L19.1918 12.8528ZM32.1802 4.26702C35.306 4.16055 38.366 5.18056 40.8028 7.14122L43.0847 4.30526C39.968 1.79756 36.0542 0.492951 32.0563 0.629131L32.1802 4.26702ZM40.7158 7.0666C43.2735 9.40453 43.0918 12.3805 43.0918 17.0328H46.7318C46.7318 12.9854 47.1642 8.02937 43.1716 4.37988L40.7158 7.0666ZM43.0918 17.0328V27.2677H46.7318V17.0328H43.0918ZM43.0922 27.3021C43.1442 30.0496 44.2464 32.6729 46.1724 34.633L48.7688 32.0819C47.4949 30.7855 46.7659 29.0504 46.7315 27.2333L43.0922 27.3021ZM46.1532 34.6133C46.0574 34.5127 46.0039 34.3791 46.0039 34.2402H49.6439C49.6439 33.4439 49.3374 32.6781 48.7879 32.1017L46.1532 34.6133ZM46.0039 34.2402C46.0039 34.1013 46.0574 33.9677 46.1532 33.8672L48.7879 36.3788C49.3374 35.8024 49.6439 35.0366 49.6439 34.2402H46.0039ZM46.3239 33.7096C44.9902 34.7917 42.465 37.0105 41.188 38.0746L43.5183 40.871C45.0047 39.6323 47.2387 37.6548 48.6172 36.5363L46.3239 33.7096Z" fill="#006350" mask="url(#path-1-outside-1_994_748)"/>
<path d="M57.0695 46.3045C49.6667 51.3334 40.9176 54.009 31.9684 53.9807C20.632 54.0563 9.67803 49.8847 1.26369 42.2873C0.624013 41.6988 1.26369 40.9312 1.95455 41.3662C11.3033 46.7132 21.8894 49.5185 32.6592 49.5029C40.7032 49.4739 48.6612 47.8475 56.0716 44.7181C57.223 44.232 58.1697 45.4857 57.0439 46.3045" stroke="#006350" stroke-width="1.82"/>
<path d="M59.8638 43.0803C58.9938 41.9801 54.1066 42.5686 51.9317 42.8244C51.2664 42.8244 51.1641 42.3127 51.7526 41.9033C55.6419 39.1655 61.9875 39.9587 62.7551 40.8798C63.5227 41.801 62.5504 48.1722 58.917 51.1147C58.3541 51.6009 57.8168 51.345 58.0726 50.7309C58.8914 48.6839 60.6314 44.1038 59.8638 43.0547" fill="#006350"/>
</svg>
