<svg width="40" height="40" viewBox="0 0 40 40" fill="none" xmlns="http://www.w3.org/2000/svg">
<path d="M20 2C10.0584 2 2 10.0584 2 20C2 29.9405 10.0584 38 20 38C29.9416 38 38 29.9405 38 20C38 10.0584 29.9416 2 20 2Z" stroke="white" stroke-width="3"/>
<path d="M9.34848 26.2561C12.107 28.6513 15.1287 30.8776 19.1922 30.8787C19.271 30.8787 19.3509 30.8776 19.433 30.8754C22.0182 30.8157 24.9421 29.9427 27.2124 28.5174L27.2259 28.5084C27.5229 28.3295 27.821 28.1281 28.1 27.9031C28.2755 27.7737 28.3947 27.5735 28.3947 27.3631C28.388 26.9885 28.0707 26.7365 27.7287 26.7365C27.6219 26.7354 27.5105 26.7601 27.4059 26.8108C27.29 26.8569 27.1696 26.9097 27.0582 26.9581L26.8917 27.0279L26.678 27.1145V27.1156C24.3436 28.0618 21.8911 28.6175 19.622 28.6681C19.5387 28.6704 19.4555 28.6704 19.3722 28.6704C15.8037 28.6715 12.8911 27.0155 9.95486 25.3842C9.85136 25.3302 9.74673 25.3021 9.64436 25.3021C9.51048 25.3021 9.37661 25.3516 9.27761 25.4439C9.17861 25.5361 9.12011 25.6711 9.12123 25.8084C9.12123 25.9884 9.21573 26.1515 9.34848 26.2561Z" fill="white"/>
<path d="M30.8754 25.4146C30.8664 25.1874 30.8191 25.0152 30.7235 24.8724L30.7145 24.8577L30.7032 24.8431C30.6065 24.7374 30.5142 24.6991 30.4141 24.6541C30.1171 24.5394 29.6829 24.4786 29.162 24.4775C28.7862 24.4775 28.3711 24.5135 27.956 24.6035L27.9549 24.5765L27.5375 24.7149L27.5307 24.7194L27.2945 24.7959V24.806C27.0166 24.9207 26.7646 25.0659 26.5306 25.2335C26.3844 25.3437 26.2629 25.4877 26.2561 25.7082C26.2527 25.8286 26.3146 25.9681 26.4159 26.0502C26.5171 26.1324 26.6341 26.1594 26.7376 26.1594C26.7635 26.1594 26.786 26.1582 26.8074 26.1549L26.8254 26.1537L26.8422 26.1504C27.0459 26.1065 27.3451 26.0784 27.6939 26.0289C27.9931 25.9962 28.3104 25.9704 28.5849 25.9704C28.7795 25.9704 28.955 25.9839 29.0754 26.0097C29.1361 26.0232 29.18 26.0379 29.2059 26.0514C29.2149 26.0547 29.2216 26.057 29.2239 26.0604C29.2295 26.0772 29.2362 26.12 29.2351 26.1807C29.2396 26.4102 29.1406 26.8389 29.0079 27.2551C28.8774 27.6725 28.7176 28.091 28.613 28.3689C28.5871 28.433 28.5736 28.5039 28.5736 28.5804C28.5702 28.6917 28.6164 28.8267 28.7131 28.9179C28.8065 29.0067 28.9291 29.0439 29.0315 29.0439H29.036C29.1901 29.0416 29.3206 28.9797 29.4342 28.892C30.4962 27.9357 30.8652 26.4102 30.881 25.553L30.8754 25.4146Z" fill="#FEFEFE"/>
<path d="M21.1644 15.1737C20.54 15.221 19.8189 15.2682 19.0989 15.3639C17.9941 15.5101 16.8905 15.7014 15.9781 16.1345C14.2017 16.8545 13.0002 18.3912 13.0002 20.6491C13.0002 23.4841 14.825 24.9252 17.1312 24.9252C17.8996 24.9252 18.524 24.8274 19.0989 24.6856C20.0124 24.3965 20.7785 23.8689 21.6931 22.907C22.2207 23.627 22.3647 23.9645 23.2771 24.7329C23.5167 24.8274 23.7575 24.8274 23.9487 24.6867C24.527 24.2052 25.5339 23.3401 26.0604 22.8597C26.3022 22.6685 26.2527 22.3794 26.1076 22.1409C25.5811 21.4681 25.0524 20.891 25.0524 19.5927V15.2694C25.0524 13.4435 25.1964 11.7616 23.8531 10.514C22.7495 9.50599 21.0204 9.12012 19.676 9.12012H19.1C16.652 9.26299 14.0589 10.3205 13.4817 13.3479C13.385 13.7326 13.6752 13.8755 13.8665 13.9227L16.5541 14.2591C16.8432 14.2107 16.9884 13.97 17.0345 13.7315C17.2752 12.674 18.1392 12.1452 19.1 12.0496H19.2935C19.8695 12.0496 20.4927 12.2904 20.8291 12.7707C21.2127 13.3479 21.1666 14.1151 21.1666 14.789L21.1644 15.1737ZM20.6367 20.8887C20.3004 21.5592 19.7244 21.9912 19.1 22.1386C19.0032 22.1386 18.8604 22.1847 18.7152 22.1847C17.66 22.1847 17.0356 21.3669 17.0356 20.1676C17.0356 18.6286 17.9491 17.9086 19.1011 17.5722C19.7255 17.4294 20.4455 17.3787 21.1666 17.3787V17.9559C21.1644 19.064 21.2116 19.928 20.6367 20.8887Z" fill="white"/>
</svg>
