<svg width="62" height="64" viewBox="0 0 62 64" fill="none" xmlns="http://www.w3.org/2000/svg">
<path d="M13.6244 49.9275C13.6244 49.9275 13.6245 49.9275 13.6245 49.9275C15.9988 52.3022 18.8175 54.1855 21.9197 55.4705L21.9198 55.4706C25.0219 56.7552 28.3466 57.4167 31.7045 57.4167C44.6322 57.4167 54.1992 47.8392 55.7762 35.4856L55.9071 34.4603H54.8735H32.6145V29.2349H60.9427C61.0397 30.3006 61.09 31.3881 61.09 32.4958C61.09 41.9044 57.722 49.7596 51.9496 55.0765L51.9489 55.0772C46.9 59.7384 39.9647 62.4977 31.6341 62.4977H31.6337C27.5989 62.4994 23.6031 61.706 19.8749 60.163C16.1468 58.62 12.7593 56.3571 9.90596 53.504L9.90593 53.504C7.0527 50.6513 4.78961 47.2639 3.24603 43.5359C1.70246 39.808 0.908669 35.8123 0.910003 31.7775L0.910003 31.7768C0.908224 27.7416 1.70167 23.7456 3.24504 20.0172C4.78841 16.2888 7.05142 12.9011 9.90475 10.0478L9.90476 10.0478C12.7581 7.19449 16.1457 4.93147 19.8741 3.3881C23.6025 1.84474 27.5986 1.05129 31.6337 1.05307H31.6341C39.5611 1.05307 46.2584 3.83711 51.4783 8.41564L47.6258 12.2655C43.4522 8.52604 37.9625 6.27852 31.7045 6.27852C28.3466 6.27852 25.0219 6.93989 21.9197 8.22484L22.2679 9.06557L21.9197 8.22485C18.8175 9.50983 15.9988 11.3932 13.6245 13.7675C11.2501 16.1418 9.36677 18.9606 8.08178 22.0628L8.92251 22.411L8.08178 22.0628C6.79682 25.1649 6.13546 28.4897 6.13546 31.8476C6.13546 35.2056 6.79682 38.5303 8.08177 41.6325L8.92251 41.2843M13.6244 49.9275L14.2679 49.2841C11.9781 46.9943 10.1618 44.2761 8.92251 41.2843M13.6244 49.9275C11.2501 47.5532 9.36677 44.7348 8.08178 41.6325L8.92251 41.2843M13.6244 49.9275L8.92251 41.2843" stroke="#006350" stroke-width="1.82"/>
</svg>
