<svg width="531" height="51" viewBox="0 0 531 51" fill="none" xmlns="http://www.w3.org/2000/svg">
<path d="M227.709 30.7071C228.652 32.4916 229.124 34.5184 229.124 36.8001C229.124 39.4259 228.474 41.8095 227.186 43.9383C225.886 46.067 224.025 47.7496 221.591 48.9987C219.156 50.2352 216.313 50.8598 213.088 50.8598C210.259 50.8598 207.633 50.5666 205.211 49.9675C202.802 49.3684 200.852 48.7056 199.36 47.9663V45.2129C199.309 44.4736 199.284 42.8038 199.284 40.2289H199.883C201.17 41.9625 202.343 43.3137 203.388 44.2824C204.433 45.2512 205.708 45.9905 207.225 46.5131C208.742 47.0357 210.692 47.2907 213.088 47.2907C215.319 47.2907 217.167 46.5641 218.608 45.0982C220.048 43.6323 220.775 41.7841 220.775 39.5661C220.775 37.1825 220.125 35.1812 218.837 33.5496C217.55 31.918 215.255 29.9805 211.98 27.7498C208.053 24.971 205.185 22.4344 203.401 20.1272C201.604 17.82 200.711 15.1815 200.711 12.2114C200.711 8.45114 202.101 5.48113 204.892 3.32692C207.684 1.17271 211.278 0.0892277 215.714 0.0892277C219.487 0.0892277 222.827 0.535366 225.708 1.42764V6.25869H225.185C223.745 5.26443 222.292 4.53787 220.826 4.06623C219.36 3.5946 217.652 3.36516 215.714 3.36516C213.382 3.36516 211.584 3.90053 210.335 4.95851C209.099 6.02924 208.474 7.49513 208.474 9.38165C208.474 10.924 208.793 12.2497 209.443 13.3969C210.093 14.5314 210.973 15.5894 212.094 16.5581C213.216 17.5269 214.937 18.8525 217.282 20.5351C220.112 22.6128 222.33 24.3847 223.923 25.8505C225.517 27.3164 226.779 28.9353 227.722 30.7198L227.709 30.7071ZM184.357 46.7681H168.985V25.7358H183.388L187.263 27.2272H187.633V20.9813H187.263L183.388 22.4726H168.985V4.1937H182.866L188.385 5.68508H188.831V0.930517H158.609V1.37666L160.1 5.3919V45.6718L158.609 49.6871V50.1332H190.539V44.1932H190.093L184.344 46.7935L184.357 46.7681ZM119.221 46.7681H103.632V5.36641L105.123 1.35116V0.905024H93.2557V1.35116L94.7471 5.36641V45.6463L93.2557 49.6616V50.1077H127.2V43.7853H126.831L119.221 46.7553V46.7681ZM77.883 46.7681H62.2937V5.36641L63.7851 1.35116V0.905024H51.9178V1.35116L53.4091 5.36641V45.6463L51.9178 49.6616V50.1077H85.8625V43.7853H85.4929L77.883 46.7553V46.7681ZM40.5859 45.6463L42.4469 49.6616V50.1077H30.3629V49.6616L31.2552 45.6463L30.8855 44.6776L25.5191 31.816H11.1152L5.96551 45.1237L5.81255 45.4934L6.93427 49.6616V50.1077H0V49.6616L1.78455 45.4934L19.6173 0.0764809H21.1852L40.5859 45.6336V45.6463ZM24.168 28.6293L17.973 14.0597L12.3007 28.6293H24.168ZM134.594 1.35116L136.085 5.36641V45.6463L134.594 49.5086V50.1077H146.461V49.5086L144.97 45.6463V5.36641L146.461 1.42764V0.905024H134.594V1.35116ZM460.887 1.35116L462.378 5.36641V45.6463L460.887 49.5086V50.1077H472.754V49.5086L471.262 45.6463V5.36641L472.754 1.42764V0.905024H460.887V1.35116ZM430.817 20.3822L445.284 5.14971L448.943 1.36391V0.917771H438.643V1.36391L440.135 5.37916L421.626 25.6721H424.086L439.383 45.6591L437.891 49.6743V50.1205H452.512V49.6743L449.529 45.6591L430.804 20.3949L430.817 20.3822ZM523.18 0.905024V1.35116L524.672 5.5831V36.5706L492.958 0.892277H485.054V1.33842L486.546 7.13822V45.4169L485.054 49.6488V50.095H492.218V49.6488L490.727 45.4169V11.6761L525.271 50.095H528.776V5.5831L530.267 1.35116V0.905024H523.18ZM394.692 25.8378C393.099 24.3719 390.881 22.6001 388.051 20.5224C385.719 18.8398 383.985 17.5141 382.863 16.5454C381.742 15.5766 380.862 14.5314 380.212 13.3842C379.562 12.2497 379.243 10.9113 379.243 9.36891C379.243 7.48238 379.868 6.0165 381.104 4.94576C382.341 3.87503 384.138 3.35241 386.483 3.35241C388.421 3.35241 390.129 3.5946 391.595 4.05349C393.061 4.52512 394.514 5.25169 395.954 6.24594H396.477V1.4149C393.596 0.522619 390.256 0.0764809 386.483 0.0764809C382.048 0.0764809 378.453 1.15996 375.661 3.31417C372.87 5.46838 371.48 8.42564 371.48 12.1987C371.48 15.1687 372.373 17.8073 374.17 20.1145C375.955 22.4216 378.823 24.9583 382.749 27.7371C386.024 29.9678 388.319 31.9053 389.606 33.5369C390.894 35.1685 391.544 37.1825 391.544 39.5534C391.544 41.7841 390.817 43.6323 389.377 45.0855C387.937 46.5514 386.101 47.2779 383.858 47.2779C381.474 47.2779 379.524 47.023 377.994 46.5004C376.477 45.9778 375.202 45.2384 374.157 44.2697C373.112 43.3009 371.939 41.9498 370.652 40.2162H370.053C370.053 42.7911 370.078 44.4481 370.129 45.2002V47.9535C371.621 48.6928 373.571 49.3684 375.98 49.9548C378.389 50.5539 381.015 50.847 383.858 50.847C387.082 50.847 389.925 50.2224 392.36 48.986C394.794 47.7496 396.655 46.067 397.956 43.9255C399.243 41.7968 399.893 39.4131 399.893 36.7873C399.893 34.5056 399.421 32.4789 398.478 30.6943C397.535 28.9098 396.26 27.2909 394.68 25.825L394.692 25.8378ZM314.706 1.35116L316.197 5.36641V45.6463L314.706 49.6616V50.1077H327.313V49.6616L325.082 45.5699V25.7995H339.486L343.437 27.2909H343.731V20.9685H343.437L339.486 22.4599H325.082V4.18095H338.81L344.559 6.41165H344.929V0.905024H314.706V1.35116ZM420.517 5.36641L422.009 1.35116V0.905024H410.141V1.35116L411.633 5.36641V45.6463L410.141 49.6616V50.1077H422.009V49.6616L420.517 45.6463V5.36641ZM300.557 11.9438C302.813 15.7296 303.948 20.0635 303.948 24.92C303.948 29.7766 302.788 34.3399 300.481 38.2914C298.173 42.2557 295.076 45.3659 291.188 47.6221C287.313 49.8783 283.158 51 278.735 51C274.311 51 269.99 49.9548 266.09 47.877C262.189 45.7993 259.079 42.8675 256.759 39.1072C254.452 35.3469 253.292 31.0257 253.292 26.1692C253.292 21.3127 254.439 16.813 256.721 12.8233C259.003 8.83354 262.074 5.69783 265.937 3.41615C269.786 1.13447 273.98 0 278.505 0C283.03 0 287.39 1.04524 291.303 3.12297C295.203 5.2007 298.288 8.14521 300.557 11.931V11.9438ZM294.26 25.5829C294.26 21.2234 293.521 17.3612 292.055 13.9833C290.589 10.6181 288.639 8.01775 286.23 6.1822C283.821 4.34666 281.246 3.42889 278.505 3.42889C275.765 3.42889 273.215 4.34666 270.857 6.1822C268.499 8.01775 266.6 10.6181 265.185 13.9833C263.77 17.3484 263.056 21.2234 263.056 25.5829C263.056 29.9423 263.783 33.7153 265.223 37.0677C266.663 40.4074 268.588 42.995 270.972 44.7923C273.355 46.6023 275.918 47.5074 278.658 47.5074C281.399 47.5074 283.961 46.6023 286.344 44.7923C288.728 42.9823 290.653 40.4201 292.093 37.106C293.534 33.7918 294.26 29.9423 294.26 25.5829Z" fill="#96A9B3"/>
</svg>
